<svg width="57" height="24" viewBox="0 0 57 24" fill="none" xmlns="http://www.w3.org/2000/svg">
<path d="M2 10.5C1.17157 10.5 0.5 11.1716 0.5 12C0.5 12.8284 1.17157 13.5 2 13.5L2 10.5ZM56.0607 13.0607C56.6464 12.4749 56.6464 11.5251 56.0607 10.9393L46.5147 1.39339C45.9289 0.807608 44.9792 0.807608 44.3934 1.39339C43.8076 1.97918 43.8076 2.92893 44.3934 3.51471L52.8787 12L44.3934 20.4853C43.8076 21.0711 43.8076 22.0208 44.3934 22.6066C44.9792 23.1924 45.9289 23.1924 46.5147 22.6066L56.0607 13.0607ZM2 13.5L55 13.5L55 10.5L2 10.5L2 13.5Z" fill="#C97FC9"/>
</svg>
