<svg width="79" height="79" viewBox="0 0 79 79" fill="none" xmlns="http://www.w3.org/2000/svg">
<path d="M27.3855 50.5036C30.4185 50.5036 32.8873 49.4279 32.8873 46.0246C32.8873 42.5507 30.8241 41.1929 27.5442 41.1752H19.4326V50.5036H27.3855ZM26.4333 27.65H19.4502V35.55H26.9799C29.6426 35.55 31.5295 34.3862 31.5295 31.5118C31.5295 28.3906 29.1136 27.65 26.4333 27.65ZM49.2692 40.8402H60.2375C59.9377 37.5779 58.2449 35.6029 54.8592 35.6029C51.6321 35.6029 49.4808 37.6132 49.2692 40.8402ZM67.7143 0H11.2857C5.06094 0 0 5.06094 0 11.2857V67.7143C0 73.9391 5.06094 79 11.2857 79H67.7143C73.9391 79 79 73.9391 79 67.7143V11.2857C79 5.06094 73.9391 0 67.7143 0ZM61.6306 26.9799H47.9114V23.6471H61.6306V26.9799ZM34.1569 37.331C38.3185 38.5125 40.3288 42.1804 40.3288 46.4301C40.3288 53.3074 34.5625 56.2522 28.4083 56.2875H11.9911V22.4304H27.9498C33.7513 22.4304 38.777 24.0703 38.777 30.8065C38.777 34.2098 37.19 35.885 34.1569 37.331ZM55.0884 30.5243C62.7592 30.5243 67.0089 36.5728 67.0089 43.8203C67.0089 44.1025 66.9913 44.4022 66.9737 44.702C66.9737 44.8431 66.956 44.9665 66.956 45.09H49.2868C49.2868 49.0047 51.35 51.3147 55.3 51.3147C57.3455 51.3147 59.973 50.2214 60.6254 48.123H66.5681C64.7342 53.7482 60.9429 56.3757 55.0884 56.3757C47.3647 56.3757 42.5507 51.1384 42.5507 43.5029C42.5507 36.1319 47.6116 30.5243 55.0884 30.5243Z" fill="#F5F5FF"/>
</svg>
