<svg width="43" height="53" viewBox="0 0 43 53" fill="none" xmlns="http://www.w3.org/2000/svg">
<path d="M1.505 26.785C1.505 24.405 2.04167 22.27 3.115 20.38C4.18833 18.4667 5.64667 16.9733 7.49 15.9C9.35667 14.8267 11.4217 14.29 13.685 14.29C16.345 14.29 18.6667 14.9317 20.65 16.215C22.6333 17.4983 24.08 19.3183 24.99 21.675H21.175C20.4983 20.205 19.5183 19.0733 18.235 18.28C16.975 17.4867 15.4583 17.09 13.685 17.09C11.9817 17.09 10.4533 17.4867 9.1 18.28C7.74667 19.0733 6.685 20.205 5.915 21.675C5.145 23.1217 4.76 24.825 4.76 26.785C4.76 28.7217 5.145 30.425 5.915 31.895C6.685 33.3417 7.74667 34.4617 9.1 35.255C10.4533 36.0483 11.9817 36.445 13.685 36.445C15.4583 36.445 16.975 36.06 18.235 35.29C19.5183 34.4967 20.4983 33.365 21.175 31.895H24.99C24.08 34.2283 22.6333 36.0367 20.65 37.32C18.6667 38.58 16.345 39.21 13.685 39.21C11.4217 39.21 9.35667 38.685 7.49 37.635C5.64667 36.5617 4.18833 35.08 3.115 33.19C2.04167 31.3 1.505 29.165 1.505 26.785ZM32.9161 36.41H41.4561V39H29.7311V14.605H32.9161V36.41Z" fill="#C97FC9"/>
</svg>
