<svg width="79" height="79" viewBox="0 0 79 79" fill="none" xmlns="http://www.w3.org/2000/svg">
<path d="M74.6544 4.34561C71.756 1.44722 68.2684 0 64.1877 0H14.8123C10.7316 0 7.24401 1.44722 4.34561 4.34561C1.44722 7.24401 0 10.7316 0 14.8123V64.1877C0 68.2684 1.44722 71.756 4.34561 74.6544C7.24401 77.5528 10.7316 79 14.8123 79H26.3347C27.0859 79 27.6514 78.9723 28.031 78.9209C28.4726 78.8324 28.8713 78.5968 29.1619 78.2527C29.5375 77.8573 29.7273 77.2839 29.7273 76.5326L29.6996 73.0332C29.6838 70.803 29.6759 69.0395 29.6759 67.7346L28.4897 67.9402C27.7384 68.0786 26.7894 68.1379 25.6387 68.1221C24.4394 68.1 23.2439 67.9796 22.0642 67.7623C20.8083 67.5304 19.6261 67.0017 18.6161 66.2202C17.5584 65.42 16.7695 64.3166 16.3544 63.0569L15.8403 61.8706C15.4071 60.9349 14.8628 60.0547 14.2191 59.249C13.4837 58.2882 12.7363 57.6397 11.9811 57.2957L11.6252 57.0386C11.3771 56.8609 11.1513 56.6538 10.953 56.4218C10.7636 56.2065 10.6076 55.9639 10.4904 55.7021C10.3876 55.4609 10.4745 55.2632 10.7474 55.109C11.0242 54.9509 11.5184 54.8757 12.2421 54.8757L13.2701 55.0339C13.9542 55.1683 14.8043 55.5796 15.8127 56.2636C16.8331 56.9593 17.6855 57.8738 18.3077 58.9406C19.0986 60.3443 20.0476 61.4159 21.1626 62.1553C22.2777 62.8908 23.4007 63.2625 24.5316 63.2625C25.6624 63.2625 26.6391 63.1755 27.4655 63.0055C28.2647 62.8402 29.0413 62.58 29.7787 62.2304C30.0871 59.937 30.9254 58.1656 32.2975 56.9319C30.5196 56.7576 28.7576 56.4483 27.0266 56.0066C25.3374 55.5426 23.7128 54.8691 22.1907 54.0019C20.5981 53.1348 19.1915 51.9633 18.0507 50.5538C16.9554 49.1817 16.0539 47.3826 15.35 45.1564C14.6501 42.9263 14.2982 40.3521 14.2982 37.4379C14.2982 33.29 15.6505 29.7589 18.3591 26.8408C17.0938 23.7249 17.2124 20.2255 18.719 16.3544C19.7154 16.042 21.1903 16.2753 23.1437 17.0463C25.097 17.8174 26.5284 18.4778 27.4379 19.0234C28.3473 19.577 29.0749 20.0396 29.6245 20.4153C32.8391 19.5207 36.1612 19.071 39.498 19.0788C42.8946 19.0788 46.1845 19.5256 49.3755 20.4153L51.3288 19.1816C52.8314 18.2795 54.4162 17.5221 56.062 16.9198C57.8809 16.2318 59.2648 16.0459 60.2296 16.3544C61.7718 20.2294 61.9062 23.7249 60.6369 26.8447C63.3455 29.7589 64.7018 33.29 64.7018 37.4419C64.7018 40.3561 64.3499 42.9381 63.646 45.1801C62.9461 47.4261 62.0367 49.2252 60.9216 50.5815C59.7607 51.9729 58.3482 53.1332 56.7579 54.0019C55.0972 54.9271 53.4839 55.5954 51.922 56.0066C50.1911 56.4497 48.4291 56.7603 46.6511 56.9358C48.4305 58.478 49.3241 60.9098 49.3241 64.2352V76.5326C49.3241 77.1139 49.4071 77.5844 49.5811 77.9442C49.6611 78.1176 49.7751 78.2731 49.9164 78.4015C50.0577 78.5299 50.2234 78.6285 50.4036 78.6916C50.7832 78.826 51.1153 78.913 51.4079 78.9446C51.7005 78.9842 52.1197 78.996 52.6653 78.996H64.1877C68.2684 78.996 71.756 77.5488 74.6544 74.6504C77.5488 71.756 79 68.2645 79 64.1838V14.8123C79 10.7316 77.5528 7.24401 74.6544 4.34561Z" fill="#F5F5FF"/>
</svg>
