<svg width="820" height="89" viewBox="0 0 820 89" fill="none" xmlns="http://www.w3.org/2000/svg">
<g clip-path="url(#clip0_114_860)">
<path d="M728 1H636V89H728V1Z" fill="#FFD8DF"/>
<path d="M645.617 74.0002V59.4547H654.338V61.0172H647.378V65.932H653.685V67.4945H647.378V74.0002H645.617ZM657.355 74.0002V59.4547H666.077V61.0172H659.116V65.932H665.423V67.4945H659.116V74.0002H657.355ZM673.582 74.0002H669.093V59.4547H673.781C675.192 59.4547 676.399 59.7459 677.403 60.3283C678.407 60.906 679.176 61.7369 679.711 62.8212C680.246 63.9008 680.514 65.1934 680.514 66.6991C680.514 68.2142 680.244 69.5187 679.704 70.6124C679.164 71.7014 678.378 72.5395 677.346 73.1266C676.314 73.709 675.059 74.0002 673.582 74.0002ZM670.855 72.4377H673.468C674.671 72.4377 675.668 72.2057 676.458 71.7417C677.249 71.2777 677.839 70.6172 678.227 69.7601C678.615 68.9031 678.809 67.8828 678.809 66.6991C678.809 65.5248 678.618 64.5139 678.234 63.6664C677.85 62.8141 677.278 62.1607 676.515 61.7062C675.753 61.2469 674.804 61.0172 673.667 61.0172H670.855V72.4377ZM687.872 74.1991C686.896 74.1991 686.035 74.0262 685.287 73.6806C684.543 73.3302 683.963 72.8496 683.547 72.2388C683.13 71.6233 682.924 70.9225 682.929 70.1366C682.924 69.521 683.045 68.9529 683.291 68.432C683.537 67.9064 683.873 67.4685 684.299 67.1181C684.73 66.763 685.211 66.5381 685.741 66.4434V66.3582C685.045 66.1782 684.491 65.7876 684.079 65.1863C683.667 64.5802 683.464 63.8913 683.468 63.1195C683.464 62.3809 683.651 61.7204 684.029 61.138C684.408 60.5556 684.929 60.0963 685.592 59.7601C686.26 59.424 687.02 59.2559 687.872 59.2559C688.715 59.2559 689.467 59.424 690.13 59.7601C690.793 60.0963 691.314 60.5556 691.693 61.138C692.076 61.7204 692.27 62.3809 692.275 63.1195C692.27 63.8913 692.06 64.5802 691.643 65.1863C691.231 65.7876 690.684 66.1782 690.002 66.3582V66.4434C690.528 66.5381 691.002 66.763 691.423 67.1181C691.844 67.4685 692.181 67.9064 692.431 68.432C692.682 68.9529 692.81 69.521 692.815 70.1366C692.81 70.9225 692.597 71.6233 692.176 72.2388C691.759 72.8496 691.179 73.3302 690.436 73.6806C689.697 74.0262 688.842 74.1991 687.872 74.1991ZM687.872 72.6366C688.53 72.6366 689.098 72.53 689.576 72.317C690.055 72.1039 690.424 71.8032 690.684 71.415C690.945 71.0267 691.077 70.5722 691.082 70.0513C691.077 69.5021 690.935 69.0168 690.656 68.5954C690.377 68.174 689.995 67.8425 689.512 67.6011C689.034 67.3596 688.487 67.2388 687.872 67.2388C687.252 67.2388 686.698 67.3596 686.21 67.6011C685.727 67.8425 685.346 68.174 685.066 68.5954C684.792 69.0168 684.657 69.5021 684.662 70.0513C684.657 70.5722 684.782 71.0267 685.038 71.415C685.298 71.8032 685.67 72.1039 686.153 72.317C686.636 72.53 687.209 72.6366 687.872 72.6366ZM687.872 65.7332C688.393 65.7332 688.854 65.629 689.257 65.4207C689.664 65.2123 689.984 64.9211 690.216 64.5471C690.448 64.173 690.566 63.735 690.571 63.2332C690.566 62.7407 690.45 62.3122 690.223 61.9476C689.995 61.5783 689.681 61.2942 689.278 61.0954C688.876 60.8918 688.407 60.79 687.872 60.79C687.327 60.79 686.851 60.8918 686.444 61.0954C686.037 61.2942 685.722 61.5783 685.5 61.9476C685.277 62.3122 685.168 62.7407 685.173 63.2332C685.168 63.735 685.279 64.173 685.507 64.5471C685.739 64.9211 686.058 65.2123 686.466 65.4207C686.873 65.629 687.342 65.7332 687.872 65.7332ZM700.281 74.0002H695.793V59.4547H700.48C701.891 59.4547 703.098 59.7459 704.102 60.3283C705.106 60.906 705.875 61.7369 706.411 62.8212C706.946 63.9008 707.213 65.1934 707.213 66.6991C707.213 68.2142 706.943 69.5187 706.403 70.6124C705.864 71.7014 705.078 72.5395 704.045 73.1266C703.013 73.709 701.759 74.0002 700.281 74.0002ZM697.554 72.4377H700.168C701.37 72.4377 702.367 72.2057 703.158 71.7417C703.948 71.2777 704.538 70.6172 704.926 69.7601C705.314 68.9031 705.509 67.8828 705.509 66.6991C705.509 65.5248 705.317 64.5139 704.933 63.6664C704.55 62.8141 703.977 62.1607 703.214 61.7062C702.452 61.2469 701.503 61.0172 700.366 61.0172H697.554V72.4377ZM710.168 74.0002V59.4547H718.889V61.0172H711.929V65.932H718.236V67.4945H711.929V74.0002H710.168Z" fill="black"/>
<path d="M636 1H544V89H636V1Z" fill="#644B52"/>
<path d="M558.62 74.1991C558.024 74.1896 557.427 74.076 556.831 73.8582C556.234 73.6404 555.69 73.2734 555.197 72.7573C554.705 72.2365 554.309 71.5333 554.011 70.6479C553.713 69.7578 553.564 68.6404 553.564 67.2957C553.564 66.0078 553.684 64.8667 553.926 63.8724C554.167 62.8733 554.518 62.0329 554.977 61.3511C555.436 60.6645 555.99 60.1437 556.639 59.7886C557.292 59.4334 558.029 59.2559 558.848 59.2559C559.662 59.2559 560.386 59.4192 561.021 59.7459C561.66 60.0679 562.181 60.5177 562.583 61.0954C562.986 61.673 563.246 62.3383 563.365 63.0911H561.632C561.471 62.4377 561.158 61.8956 560.694 61.4647C560.23 61.0338 559.615 60.8184 558.848 60.8184C557.721 60.8184 556.833 61.3084 556.184 62.2886C555.54 63.2687 555.216 64.6441 555.211 66.415H555.325C555.59 66.0125 555.905 65.6692 556.27 65.3851C556.639 65.0963 557.046 64.8738 557.491 64.7175C557.936 64.5613 558.407 64.4832 558.904 64.4832C559.738 64.4832 560.5 64.6915 561.191 65.1082C561.883 65.5201 562.437 66.0906 562.853 66.8198C563.27 67.5442 563.478 68.3752 563.478 69.3127C563.478 70.2123 563.277 71.0362 562.875 71.7843C562.472 72.5277 561.906 73.1195 561.177 73.5599C560.453 73.9955 559.6 74.2085 558.62 74.1991ZM558.62 72.6366C559.217 72.6366 559.752 72.4874 560.225 72.1891C560.704 71.8908 561.08 71.4907 561.355 70.9888C561.634 70.4869 561.774 69.9282 561.774 69.3127C561.774 68.7114 561.639 68.1645 561.369 67.6721C561.104 67.1749 560.737 66.7796 560.268 66.486C559.804 66.1924 559.274 66.0457 558.677 66.0457C558.227 66.0457 557.808 66.1356 557.42 66.3155C557.032 66.4907 556.691 66.7322 556.397 67.04C556.109 67.3477 555.881 67.7005 555.716 68.0982C555.55 68.4912 555.467 68.9055 555.467 69.3411C555.467 69.9188 555.602 70.4585 555.872 70.9604C556.146 71.4623 556.52 71.8672 556.994 72.1749C557.472 72.4827 558.014 72.6366 558.62 72.6366ZM565.93 71.0172V69.5684L572.322 59.4547H573.374V61.6991H572.663L567.834 69.3411V69.4547H576.442V71.0172H565.93ZM572.777 74.0002V70.5769V69.9022V59.4547H574.453V74.0002H572.777ZM578.762 71.0172V69.5684L585.154 59.4547H586.206V61.6991H585.495L580.666 69.3411V69.4547H589.274V71.0172H578.762ZM585.609 74.0002V70.5769V69.9022V59.4547H587.285V74.0002H585.609ZM592.191 74.0002V59.4547H597.276C598.29 59.4547 599.125 59.6299 599.783 59.9803C600.442 60.326 600.932 60.7923 601.254 61.3795C601.576 61.9618 601.737 62.6082 601.737 63.3184C601.737 63.9434 601.625 64.4595 601.403 64.8667C601.185 65.2739 600.896 65.5958 600.536 65.8326C600.181 66.0693 599.795 66.2445 599.379 66.3582V66.5002C599.824 66.5286 600.271 66.6849 600.721 66.969C601.171 67.253 601.547 67.6602 601.85 68.1905C602.153 68.7208 602.305 69.3695 602.305 70.1366C602.305 70.8657 602.139 71.5215 601.808 72.1039C601.476 72.6863 600.953 73.1479 600.238 73.4888C599.523 73.8297 598.593 74.0002 597.447 74.0002H592.191ZM593.952 72.4377H597.447C598.597 72.4377 599.414 72.2152 599.897 71.7701C600.385 71.3203 600.629 70.7758 600.629 70.1366C600.629 69.6441 600.503 69.1896 600.252 68.7729C600.001 68.3515 599.644 68.0154 599.18 67.7644C598.716 67.5087 598.166 67.3809 597.532 67.3809H593.952V72.4377ZM593.952 65.8468H597.219C597.75 65.8468 598.228 65.7426 598.654 65.5343C599.085 65.326 599.426 65.0324 599.677 64.6536C599.933 64.2748 600.06 63.8297 600.06 63.3184C600.06 62.6792 599.838 62.137 599.393 61.692C598.948 61.2422 598.242 61.0172 597.276 61.0172H593.952V65.8468ZM609.489 74.1991C608.655 74.1991 607.905 74.0333 607.237 73.7019C606.57 73.3705 606.035 72.9159 605.632 72.3383C605.23 71.7606 605.009 71.1025 604.972 70.3638H606.676C606.742 71.022 607.041 71.5665 607.571 71.9974C608.106 72.4235 608.745 72.6366 609.489 72.6366C610.085 72.6366 610.616 72.4969 611.08 72.2175C611.548 71.9382 611.915 71.5547 612.18 71.067C612.45 70.5745 612.585 70.0182 612.585 69.3979C612.585 68.7635 612.446 68.1976 612.166 67.7005C611.892 67.1986 611.513 66.8032 611.03 66.5144C610.547 66.2256 609.995 66.0788 609.375 66.0741C608.93 66.0693 608.473 66.138 608.004 66.28C607.536 66.4173 607.15 66.5949 606.847 66.8127L605.199 66.6138L606.08 59.4547H613.636V61.0172H607.557L607.045 65.307H607.131C607.429 65.0703 607.803 64.8738 608.253 64.7175C608.703 64.5613 609.171 64.4832 609.659 64.4832C610.549 64.4832 611.342 64.6962 612.038 65.1224C612.739 65.5438 613.288 66.1214 613.686 66.8553C614.089 67.5892 614.29 68.4273 614.29 69.3695C614.29 70.2975 614.081 71.1261 613.665 71.8553C613.253 72.5797 612.685 73.1527 611.96 73.5741C611.236 73.9907 610.412 74.1991 609.489 74.1991ZM617.111 74.0002V72.7218L621.912 67.4661C622.476 66.8506 622.94 66.3155 623.304 65.861C623.669 65.4017 623.939 64.9708 624.114 64.5684C624.294 64.1612 624.384 63.735 624.384 63.29C624.384 62.7786 624.261 62.3359 624.015 61.9618C623.773 61.5878 623.442 61.299 623.02 61.0954C622.599 60.8918 622.125 60.79 621.6 60.79C621.041 60.79 620.553 60.906 620.137 61.138C619.725 61.3653 619.405 61.6849 619.178 62.0968C618.955 62.5087 618.844 62.9917 618.844 63.5457H617.168C617.168 62.6934 617.364 61.9453 617.757 61.3013C618.15 60.6574 618.685 60.1555 619.363 59.7957C620.044 59.4358 620.809 59.2559 621.657 59.2559C622.509 59.2559 623.264 59.4358 623.922 59.7957C624.58 60.1555 625.096 60.6408 625.471 61.2516C625.845 61.8624 626.032 62.5419 626.032 63.29C626.032 63.825 625.935 64.3482 625.74 64.8596C625.551 65.3662 625.22 65.932 624.746 66.557C624.277 67.1773 623.626 67.9349 622.793 68.8297L619.526 72.3241V72.4377H626.287V74.0002H617.111Z" fill="white"/>
<path d="M548 1H456V89H548V1Z" fill="#261D20"/>
<path d="M467.07 74.0002V72.7218L471.871 67.4661C472.435 66.8506 472.899 66.3155 473.263 65.861C473.628 65.4017 473.898 64.9708 474.073 64.5684C474.253 64.1612 474.343 63.735 474.343 63.29C474.343 62.7786 474.22 62.3359 473.974 61.9618C473.732 61.5878 473.401 61.299 472.979 61.0954C472.558 60.8918 472.084 60.79 471.559 60.79C471 60.79 470.512 60.906 470.096 61.138C469.684 61.3653 469.364 61.6849 469.137 62.0968C468.914 62.5087 468.803 62.9917 468.803 63.5457H467.127C467.127 62.6934 467.323 61.9453 467.716 61.3013C468.109 60.6574 468.644 60.1555 469.322 59.7957C470.003 59.4358 470.768 59.2559 471.616 59.2559C472.468 59.2559 473.223 59.4358 473.881 59.7957C474.539 60.1555 475.055 60.6408 475.43 61.2516C475.804 61.8624 475.991 62.5419 475.991 63.29C475.991 63.825 475.894 64.3482 475.699 64.8596C475.51 65.3662 475.179 65.932 474.705 66.557C474.236 67.1773 473.585 67.9349 472.752 68.8297L469.485 72.3241V72.4377H476.246V74.0002H467.07ZM484.009 74.1991C483.412 74.1896 482.816 74.076 482.219 73.8582C481.623 73.6404 481.078 73.2734 480.586 72.7573C480.093 72.2365 479.698 71.5333 479.4 70.6479C479.101 69.7578 478.952 68.6404 478.952 67.2957C478.952 66.0078 479.073 64.8667 479.314 63.8724C479.556 62.8733 479.906 62.0329 480.366 61.3511C480.825 60.6645 481.379 60.1437 482.028 59.7886C482.681 59.4334 483.417 59.2559 484.236 59.2559C485.051 59.2559 485.775 59.4192 486.41 59.7459C487.049 60.0679 487.57 60.5177 487.972 61.0954C488.375 61.673 488.635 62.3383 488.753 63.0911H487.02C486.859 62.4377 486.547 61.8956 486.083 61.4647C485.619 61.0338 485.003 60.8184 484.236 60.8184C483.109 60.8184 482.222 61.3084 481.573 62.2886C480.929 63.2687 480.605 64.6441 480.6 66.415H480.714C480.979 66.0125 481.294 65.6692 481.658 65.3851C482.028 65.0963 482.435 64.8738 482.88 64.7175C483.325 64.5613 483.796 64.4832 484.293 64.4832C485.126 64.4832 485.889 64.6915 486.58 65.1082C487.271 65.5201 487.825 66.0906 488.242 66.8198C488.659 67.5442 488.867 68.3752 488.867 69.3127C488.867 70.2123 488.666 71.0362 488.263 71.7843C487.861 72.5277 487.295 73.1195 486.566 73.5599C485.841 73.9955 484.989 74.2085 484.009 74.1991ZM484.009 72.6366C484.606 72.6366 485.141 72.4874 485.614 72.1891C486.092 71.8908 486.469 71.4907 486.743 70.9888C487.023 70.4869 487.162 69.9282 487.162 69.3127C487.162 68.7114 487.028 68.1645 486.758 67.6721C486.492 67.1749 486.126 66.7796 485.657 66.486C485.193 66.1924 484.662 66.0457 484.066 66.0457C483.616 66.0457 483.197 66.1356 482.809 66.3155C482.421 66.4907 482.08 66.7322 481.786 67.04C481.497 67.3477 481.27 67.7005 481.104 68.0982C480.939 68.4912 480.856 68.9055 480.856 69.3411C480.856 69.9188 480.991 70.4585 481.26 70.9604C481.535 71.4623 481.909 71.8672 482.383 72.1749C482.861 72.4827 483.403 72.6366 484.009 72.6366ZM496.774 59.4547V74.0002H495.012V61.3013H494.927L491.376 63.6593V61.8695L495.012 59.4547H496.774ZM505.701 74.0002H501.213V59.4547H505.9C507.311 59.4547 508.518 59.7459 509.522 60.3283C510.526 60.906 511.295 61.7369 511.83 62.8212C512.365 63.9008 512.633 65.1934 512.633 66.6991C512.633 68.2142 512.363 69.5187 511.823 70.6124C511.284 71.7014 510.498 72.5395 509.465 73.1266C508.433 73.709 507.178 74.0002 505.701 74.0002ZM502.974 72.4377H505.588C506.79 72.4377 507.787 72.2057 508.578 71.7417C509.368 71.2777 509.958 70.6172 510.346 69.7601C510.734 68.9031 510.928 67.8828 510.928 66.6991C510.928 65.5248 510.737 64.5139 510.353 63.6664C509.97 62.8141 509.397 62.1607 508.634 61.7062C507.872 61.2469 506.923 61.0172 505.786 61.0172H502.974V72.4377ZM515.332 74.0002V72.7218L520.133 67.4661C520.696 66.8506 521.16 66.3155 521.525 65.861C521.89 65.4017 522.16 64.9708 522.335 64.5684C522.515 64.1612 522.605 63.735 522.605 63.29C522.605 62.7786 522.481 62.3359 522.235 61.9618C521.994 61.5878 521.662 61.299 521.241 61.0954C520.82 60.8918 520.346 60.79 519.82 60.79C519.262 60.79 518.774 60.906 518.357 61.138C517.945 61.3653 517.626 61.6849 517.399 62.0968C517.176 62.5087 517.065 62.9917 517.065 63.5457H515.389C515.389 62.6934 515.585 61.9453 515.978 61.3013C516.371 60.6574 516.906 60.1555 517.583 59.7957C518.265 59.4358 519.03 59.2559 519.877 59.2559C520.73 59.2559 521.485 59.4358 522.143 59.7957C522.801 60.1555 523.317 60.6408 523.691 61.2516C524.065 61.8624 524.252 62.5419 524.252 63.29C524.252 63.825 524.155 64.3482 523.961 64.8596C523.772 65.3662 523.44 65.932 522.967 66.557C522.498 67.1773 521.847 67.9349 521.014 68.8297L517.747 72.3241V72.4377H524.508V74.0002H515.332ZM532.186 74.1991C531.115 74.1991 530.204 73.9079 529.451 73.3255C528.698 72.7384 528.123 71.8885 527.725 70.7758C527.328 69.6583 527.129 68.3089 527.129 66.7275C527.129 65.1555 527.328 63.8132 527.725 62.7005C528.128 61.5831 528.705 60.7308 529.458 60.1437C530.216 59.5518 531.125 59.2559 532.186 59.2559C533.246 59.2559 534.153 59.5518 534.906 60.1437C535.663 60.7308 536.241 61.5831 536.639 62.7005C537.041 63.8132 537.242 65.1555 537.242 66.7275C537.242 68.3089 537.044 69.6583 536.646 70.7758C536.248 71.8885 535.673 72.7384 534.92 73.3255C534.167 73.9079 533.256 74.1991 532.186 74.1991ZM532.186 72.6366C533.246 72.6366 534.07 72.1252 534.657 71.1025C535.244 70.0797 535.538 68.6214 535.538 66.7275C535.538 65.468 535.403 64.3956 535.133 63.5101C534.868 62.6247 534.484 61.95 533.982 61.486C533.485 61.022 532.886 60.79 532.186 60.79C531.134 60.79 530.313 61.3084 529.721 62.3454C529.129 63.3776 528.833 64.8383 528.833 66.7275C528.833 67.9869 528.966 69.057 529.231 69.9377C529.496 70.8184 529.877 71.4884 530.374 71.9476C530.876 72.4069 531.48 72.6366 532.186 72.6366Z" fill="white"/>
<path d="M456 1H364V89H456V1Z" fill="#3D3638"/>
<path d="M377.729 74.1991C376.792 74.1991 375.956 74.0381 375.222 73.7161C374.493 73.3941 373.913 72.9467 373.482 72.3738C373.056 71.7961 372.824 71.1261 372.786 70.3638H374.576C374.614 70.8326 374.775 71.2374 375.059 71.5783C375.343 71.9145 375.714 72.1749 376.174 72.3596C376.633 72.5442 377.142 72.6366 377.701 72.6366C378.326 72.6366 378.88 72.5277 379.363 72.3099C379.846 72.0921 380.224 71.789 380.499 71.4008C380.774 71.0125 380.911 70.5627 380.911 70.0513C380.911 69.5163 380.778 69.0452 380.513 68.638C380.248 68.2261 379.86 67.9041 379.348 67.6721C378.837 67.4401 378.212 67.3241 377.473 67.3241H376.309V65.7616H377.473C378.051 65.7616 378.558 65.6574 378.993 65.4491C379.434 65.2407 379.777 64.9472 380.023 64.5684C380.274 64.1896 380.4 63.7445 380.4 63.2332C380.4 62.7407 380.291 62.3122 380.073 61.9476C379.855 61.5831 379.547 61.299 379.15 61.0954C378.757 60.8918 378.292 60.79 377.757 60.79C377.256 60.79 376.782 60.8823 376.337 61.067C375.897 61.2469 375.537 61.5097 375.257 61.8553C374.978 62.1962 374.827 62.6082 374.803 63.0911H373.098C373.127 62.3288 373.356 61.6612 373.787 61.0883C374.218 60.5106 374.782 60.0608 375.478 59.7388C376.178 59.4169 376.948 59.2559 377.786 59.2559C378.685 59.2559 379.457 59.4382 380.101 59.8028C380.745 60.1626 381.24 60.6385 381.586 61.2303C381.931 61.8222 382.104 62.4614 382.104 63.1479C382.104 63.9671 381.889 64.6654 381.458 65.2431C381.032 65.8207 380.452 66.2208 379.718 66.4434V66.557C380.636 66.7085 381.354 67.0992 381.87 67.7289C382.386 68.3539 382.644 69.128 382.644 70.0513C382.644 70.8421 382.428 71.5523 381.998 72.182C381.571 72.807 380.989 73.2994 380.25 73.6593C379.512 74.0191 378.671 74.1991 377.729 74.1991ZM390.293 74.0002H385.804V59.4547H390.492C391.903 59.4547 393.11 59.7459 394.114 60.3283C395.118 60.906 395.887 61.7369 396.422 62.8212C396.957 63.9008 397.225 65.1934 397.225 66.6991C397.225 68.2142 396.955 69.5187 396.415 70.6124C395.875 71.7014 395.089 72.5395 394.057 73.1266C393.025 73.709 391.77 74.0002 390.293 74.0002ZM387.566 72.4377H390.179C391.382 72.4377 392.379 72.2057 393.169 71.7417C393.96 71.2777 394.55 70.6172 394.938 69.7601C395.326 68.9031 395.52 67.8828 395.52 66.6991C395.52 65.5248 395.328 64.5139 394.945 63.6664C394.561 62.8141 393.989 62.1607 393.226 61.7062C392.464 61.2469 391.515 61.0172 390.378 61.0172H387.566V72.4377ZM404.838 74.1991C403.901 74.1991 403.065 74.0381 402.331 73.7161C401.602 73.3941 401.022 72.9467 400.591 72.3738C400.165 71.7961 399.933 71.1261 399.895 70.3638H401.685C401.723 70.8326 401.884 71.2374 402.168 71.5783C402.452 71.9145 402.824 72.1749 403.283 72.3596C403.742 72.5442 404.251 72.6366 404.81 72.6366C405.435 72.6366 405.989 72.5277 406.472 72.3099C406.955 72.0921 407.334 71.789 407.608 71.4008C407.883 71.0125 408.02 70.5627 408.02 70.0513C408.02 69.5163 407.888 69.0452 407.623 68.638C407.357 68.2261 406.969 67.9041 406.458 67.6721C405.946 67.4401 405.321 67.3241 404.583 67.3241H403.418V65.7616H404.583C405.16 65.7616 405.667 65.6574 406.103 65.4491C406.543 65.2407 406.886 64.9472 407.132 64.5684C407.383 64.1896 407.509 63.7445 407.509 63.2332C407.509 62.7407 407.4 62.3122 407.182 61.9476C406.964 61.5831 406.657 61.299 406.259 61.0954C405.866 60.8918 405.402 60.79 404.867 60.79C404.365 60.79 403.891 60.8823 403.446 61.067C403.006 61.2469 402.646 61.5097 402.367 61.8553C402.087 62.1962 401.936 62.6082 401.912 63.0911H400.208C400.236 62.3288 400.466 61.6612 400.897 61.0883C401.328 60.5106 401.891 60.0608 402.587 59.7388C403.288 59.4169 404.057 59.2559 404.895 59.2559C405.795 59.2559 406.567 59.4382 407.211 59.8028C407.855 60.1626 408.349 60.6385 408.695 61.2303C409.041 61.8222 409.213 62.4614 409.213 63.1479C409.213 63.9671 408.998 64.6654 408.567 65.2431C408.141 65.8207 407.561 66.2208 406.827 66.4434V66.557C407.746 66.7085 408.463 67.0992 408.979 67.7289C409.495 68.3539 409.753 69.128 409.753 70.0513C409.753 70.8421 409.538 71.5523 409.107 72.182C408.681 72.807 408.098 73.2994 407.36 73.6593C406.621 74.0191 405.781 74.1991 404.838 74.1991ZM417.488 74.1991C416.891 74.1896 416.294 74.076 415.698 73.8582C415.101 73.6404 414.557 73.2734 414.064 72.7573C413.572 72.2365 413.176 71.5333 412.878 70.6479C412.58 69.7578 412.431 68.6404 412.431 67.2957C412.431 66.0078 412.551 64.8667 412.793 63.8724C413.034 62.8733 413.385 62.0329 413.844 61.3511C414.303 60.6645 414.857 60.1437 415.506 59.7886C416.159 59.4334 416.896 59.2559 417.715 59.2559C418.529 59.2559 419.254 59.4192 419.888 59.7459C420.527 60.0679 421.048 60.5177 421.451 61.0954C421.853 61.673 422.114 62.3383 422.232 63.0911H420.499C420.338 62.4377 420.025 61.8956 419.561 61.4647C419.097 61.0338 418.482 60.8184 417.715 60.8184C416.588 60.8184 415.7 61.3084 415.051 62.2886C414.408 63.2687 414.083 64.6441 414.078 66.415H414.192C414.457 66.0125 414.772 65.6692 415.137 65.3851C415.506 65.0963 415.913 64.8738 416.358 64.7175C416.803 64.5613 417.275 64.4832 417.772 64.4832C418.605 64.4832 419.367 64.6915 420.059 65.1082C420.75 65.5201 421.304 66.0906 421.721 66.8198C422.137 67.5442 422.346 68.3752 422.346 69.3127C422.346 70.2123 422.144 71.0362 421.742 71.7843C421.339 72.5277 420.774 73.1195 420.044 73.5599C419.32 73.9955 418.468 74.2085 417.488 74.1991ZM417.488 72.6366C418.084 72.6366 418.619 72.4874 419.093 72.1891C419.571 71.8908 419.947 71.4907 420.222 70.9888C420.501 70.4869 420.641 69.9282 420.641 69.3127C420.641 68.7114 420.506 68.1645 420.236 67.6721C419.971 67.1749 419.604 66.7796 419.135 66.486C418.671 66.1924 418.141 66.0457 417.544 66.0457C417.095 66.0457 416.676 66.1356 416.287 66.3155C415.899 66.4907 415.558 66.7322 415.265 67.04C414.976 67.3477 414.748 67.7005 414.583 68.0982C414.417 68.4912 414.334 68.9055 414.334 69.3411C414.334 69.9188 414.469 70.4585 414.739 70.9604C415.014 71.4623 415.388 71.8672 415.861 72.1749C416.339 72.4827 416.882 72.6366 417.488 72.6366ZM430.053 74.1991C429.116 74.1991 428.28 74.0381 427.546 73.7161C426.817 73.3941 426.237 72.9467 425.806 72.3738C425.38 71.7961 425.148 71.1261 425.11 70.3638H426.9C426.938 70.8326 427.099 71.2374 427.383 71.5783C427.667 71.9145 428.039 72.1749 428.498 72.3596C428.957 72.5442 429.466 72.6366 430.025 72.6366C430.65 72.6366 431.204 72.5277 431.687 72.3099C432.17 72.0921 432.549 71.789 432.823 71.4008C433.098 71.0125 433.235 70.5627 433.235 70.0513C433.235 69.5163 433.103 69.0452 432.837 68.638C432.572 68.2261 432.184 67.9041 431.673 67.6721C431.161 67.4401 430.536 67.3241 429.798 67.3241H428.633V65.7616H429.798C430.375 65.7616 430.882 65.6574 431.317 65.4491C431.758 65.2407 432.101 64.9472 432.347 64.5684C432.598 64.1896 432.724 63.7445 432.724 63.2332C432.724 62.7407 432.615 62.3122 432.397 61.9476C432.179 61.5831 431.871 61.299 431.474 61.0954C431.081 60.8918 430.617 60.79 430.082 60.79C429.58 60.79 429.106 60.8823 428.661 61.067C428.221 61.2469 427.861 61.5097 427.582 61.8553C427.302 62.1962 427.151 62.6082 427.127 63.0911H425.423C425.451 62.3288 425.681 61.6612 426.112 61.0883C426.542 60.5106 427.106 60.0608 427.802 59.7388C428.503 59.4169 429.272 59.2559 430.11 59.2559C431.01 59.2559 431.781 59.4382 432.425 59.8028C433.069 60.1626 433.564 60.6385 433.91 61.2303C434.255 61.8222 434.428 62.4614 434.428 63.1479C434.428 63.9671 434.213 64.6654 433.782 65.2431C433.356 65.8207 432.776 66.2208 432.042 66.4434V66.557C432.96 66.7085 433.678 67.0992 434.194 67.7289C434.71 68.3539 434.968 69.128 434.968 70.0513C434.968 70.8421 434.753 71.5523 434.322 72.182C433.896 72.807 433.313 73.2994 432.575 73.6593C431.836 74.0191 430.996 74.1991 430.053 74.1991ZM442.532 74.1991C441.557 74.1991 440.695 74.0262 439.947 73.6806C439.203 73.3302 438.623 72.8496 438.207 72.2388C437.79 71.6233 437.584 70.9225 437.589 70.1366C437.584 69.521 437.705 68.9529 437.951 68.432C438.197 67.9064 438.533 67.4685 438.96 67.1181C439.39 66.763 439.871 66.5381 440.401 66.4434V66.3582C439.705 66.1782 439.151 65.7876 438.739 65.1863C438.327 64.5802 438.124 63.8913 438.129 63.1195C438.124 62.3809 438.311 61.7204 438.69 61.138C439.068 60.5556 439.589 60.0963 440.252 59.7601C440.92 59.424 441.68 59.2559 442.532 59.2559C443.375 59.2559 444.128 59.424 444.79 59.7601C445.453 60.0963 445.974 60.5556 446.353 61.138C446.737 61.7204 446.931 62.3809 446.935 63.1195C446.931 63.8913 446.72 64.5802 446.303 65.1863C445.891 65.7876 445.344 66.1782 444.663 66.3582V66.4434C445.188 66.5381 445.662 66.763 446.083 67.1181C446.504 67.4685 446.841 67.9064 447.092 68.432C447.343 68.9529 447.47 69.521 447.475 70.1366C447.47 70.9225 447.257 71.6233 446.836 72.2388C446.419 72.8496 445.839 73.3302 445.096 73.6806C444.357 74.0262 443.503 74.1991 442.532 74.1991ZM442.532 72.6366C443.19 72.6366 443.758 72.53 444.237 72.317C444.715 72.1039 445.084 71.8032 445.344 71.415C445.605 71.0267 445.737 70.5722 445.742 70.0513C445.737 69.5021 445.595 69.0168 445.316 68.5954C445.037 68.174 444.656 67.8425 444.173 67.6011C443.694 67.3596 443.147 67.2388 442.532 67.2388C441.912 67.2388 441.358 67.3596 440.87 67.6011C440.387 67.8425 440.006 68.174 439.727 68.5954C439.452 69.0168 439.317 69.5021 439.322 70.0513C439.317 70.5722 439.442 71.0267 439.698 71.415C439.959 71.8032 440.33 72.1039 440.813 72.317C441.296 72.53 441.869 72.6366 442.532 72.6366ZM442.532 65.7332C443.053 65.7332 443.514 65.629 443.917 65.4207C444.324 65.2123 444.644 64.9211 444.876 64.5471C445.108 64.173 445.226 63.735 445.231 63.2332C445.226 62.7407 445.11 62.3122 444.883 61.9476C444.656 61.5783 444.341 61.2942 443.938 61.0954C443.536 60.8918 443.067 60.79 442.532 60.79C441.987 60.79 441.512 60.8918 441.104 61.0954C440.697 61.2942 440.382 61.5783 440.16 61.9476C439.937 62.3122 439.828 62.7407 439.833 63.2332C439.828 63.735 439.94 64.173 440.167 64.5471C440.399 64.9211 440.719 65.2123 441.126 65.4207C441.533 65.629 442.002 65.7332 442.532 65.7332Z" fill="#FFE7EB"/>
<path d="M364 1H272V89H364V1Z" fill="#FFE7EB"/>
<path d="M283.853 74.0001V59.4546H292.575V61.0171H285.615V65.9319H291.921V67.4944H285.615V74.0001H283.853ZM295.591 74.0001V59.4546H304.313V61.0171H297.353V65.9319H303.66V67.4944H297.353V74.0001H295.591ZM307.33 74.0001V59.4546H316.108V61.0171H309.091V65.9319H315.654V67.4944H309.091V72.4376H316.222V74.0001H307.33ZM319.482 74.0001L325.987 61.1308V61.0171H318.487V59.4546H327.806V61.1024L321.328 74.0001H319.482ZM330.709 74.0001V59.4546H339.487V61.0171H332.47V65.9319H339.032V67.4944H332.47V72.4376H339.601V74.0001H330.709ZM342.662 74.0001V59.4546H347.747C348.76 59.4546 349.596 59.6298 350.254 59.9802C350.912 60.3259 351.402 60.7922 351.724 61.3794C352.046 61.9617 352.207 62.6081 352.207 63.3183C352.207 63.9433 352.096 64.4594 351.873 64.8666C351.656 65.2738 351.367 65.5957 351.007 65.8325C350.652 66.0692 350.266 66.2444 349.849 66.3581V66.5001C350.294 66.5285 350.742 66.6848 351.192 66.9689C351.641 67.2529 352.018 67.6601 352.321 68.1904C352.624 68.7207 352.775 69.3694 352.775 70.1365C352.775 70.8656 352.61 71.5214 352.278 72.1038C351.947 72.6862 351.424 73.1478 350.709 73.4887C349.994 73.8296 349.063 74.0001 347.917 74.0001H342.662ZM344.423 72.4376H347.917C349.068 72.4376 349.885 72.2151 350.368 71.77C350.855 71.3202 351.099 70.7757 351.099 70.1365C351.099 69.644 350.974 69.1895 350.723 68.7728C350.472 68.3514 350.114 68.0153 349.65 67.7643C349.186 67.5086 348.637 67.3808 348.003 67.3808H344.423V72.4376ZM344.423 65.8467H347.69C348.22 65.8467 348.699 65.7425 349.125 65.5342C349.556 65.3259 349.897 65.0323 350.148 64.6535C350.403 64.2747 350.531 63.8296 350.531 63.3183C350.531 62.6791 350.309 62.1369 349.863 61.6919C349.418 61.2421 348.713 61.0171 347.747 61.0171H344.423V65.8467Z" fill="#261D20"/>
<path d="M272 1H180V89H272V1Z" fill="#F8527D"/>
<path d="M272 1H180V89H272V1Z" fill="#F8527D"/>
<path d="M190.691 74.0002V59.4547H199.413V61.0172H192.452V65.932H198.759V67.4945H192.452V74.0002H190.691ZM206.833 74.1991C205.857 74.1991 204.996 74.0262 204.248 73.6806C203.504 73.3302 202.924 72.8496 202.507 72.2388C202.091 71.6233 201.885 70.9225 201.89 70.1366C201.885 69.521 202.006 68.9529 202.252 68.432C202.498 67.9064 202.834 67.4685 203.26 67.1181C203.691 66.763 204.172 66.5381 204.702 66.4434V66.3582C204.006 66.1782 203.452 65.7876 203.04 65.1863C202.628 64.5802 202.425 63.8913 202.429 63.1195C202.425 62.3809 202.612 61.7204 202.99 61.138C203.369 60.5556 203.89 60.0963 204.553 59.7601C205.221 59.424 205.98 59.2559 206.833 59.2559C207.676 59.2559 208.428 59.424 209.091 59.7601C209.754 60.0963 210.275 60.5556 210.654 61.138C211.037 61.7204 211.231 62.3809 211.236 63.1195C211.231 63.8913 211.021 64.5802 210.604 65.1863C210.192 65.7876 209.645 66.1782 208.963 66.3582V66.4434C209.489 66.5381 209.962 66.763 210.384 67.1181C210.805 67.4685 211.141 67.9064 211.392 68.432C211.643 68.9529 211.771 69.521 211.776 70.1366C211.771 70.9225 211.558 71.6233 211.137 72.2388C210.72 72.8496 210.14 73.3302 209.397 73.6806C208.658 74.0262 207.803 74.1991 206.833 74.1991ZM206.833 72.6366C207.491 72.6366 208.059 72.53 208.537 72.317C209.016 72.1039 209.385 71.8032 209.645 71.415C209.906 71.0267 210.038 70.5722 210.043 70.0513C210.038 69.5021 209.896 69.0168 209.617 68.5954C209.337 68.174 208.956 67.8425 208.473 67.6011C207.995 67.3596 207.448 67.2388 206.833 67.2388C206.212 67.2388 205.658 67.3596 205.171 67.6011C204.688 67.8425 204.307 68.174 204.027 68.5954C203.753 69.0168 203.618 69.5021 203.623 70.0513C203.618 70.5722 203.743 71.0267 203.999 71.415C204.259 71.8032 204.631 72.1039 205.114 72.317C205.597 72.53 206.17 72.6366 206.833 72.6366ZM206.833 65.7332C207.354 65.7332 207.815 65.629 208.218 65.4207C208.625 65.2123 208.944 64.9211 209.176 64.5471C209.408 64.173 209.527 63.735 209.532 63.2332C209.527 62.7407 209.411 62.3122 209.184 61.9476C208.956 61.5783 208.641 61.2942 208.239 61.0954C207.837 60.8918 207.368 60.79 206.833 60.79C206.288 60.79 205.812 60.8918 205.405 61.0954C204.998 61.2942 204.683 61.5783 204.461 61.9476C204.238 62.3122 204.129 62.7407 204.134 63.2332C204.129 63.735 204.24 64.173 204.468 64.5471C204.7 64.9211 205.019 65.2123 205.426 65.4207C205.834 65.629 206.302 65.7332 206.833 65.7332ZM219.043 74.1991C218.21 74.1991 217.46 74.0333 216.792 73.7019C216.124 73.3705 215.589 72.9159 215.187 72.3383C214.784 71.7606 214.564 71.1025 214.526 70.3638H216.231C216.297 71.022 216.595 71.5665 217.126 71.9974C217.661 72.4235 218.3 72.6366 219.043 72.6366C219.64 72.6366 220.17 72.4969 220.634 72.2175C221.103 71.9382 221.47 71.5547 221.735 71.067C222.005 70.5745 222.14 70.0182 222.14 69.3979C222.14 68.7635 222 68.1976 221.721 67.7005C221.446 67.1986 221.067 66.8032 220.585 66.5144C220.102 66.2256 219.55 66.0788 218.93 66.0741C218.485 66.0693 218.028 66.138 217.559 66.28C217.09 66.4173 216.704 66.5949 216.401 66.8127L214.754 66.6138L215.634 59.4547H223.191V61.0172H217.112L216.6 65.307H216.685C216.984 65.0703 217.358 64.8738 217.808 64.7175C218.257 64.5613 218.726 64.4832 219.214 64.4832C220.104 64.4832 220.897 64.6962 221.593 65.1224C222.294 65.5438 222.843 66.1214 223.241 66.8553C223.643 67.5892 223.844 68.4273 223.844 69.3695C223.844 70.2975 223.636 71.1261 223.219 71.8553C222.808 72.5797 222.239 73.1527 221.515 73.5741C220.79 73.9907 219.967 74.1991 219.043 74.1991ZM226.666 74.0002V72.7218L231.467 67.4661C232.03 66.8506 232.494 66.3155 232.859 65.861C233.224 65.4017 233.493 64.9708 233.669 64.5684C233.849 64.1612 233.939 63.735 233.939 63.29C233.939 62.7786 233.815 62.3359 233.569 61.9618C233.328 61.5878 232.996 61.299 232.575 61.0954C232.154 60.8918 231.68 60.79 231.154 60.79C230.596 60.79 230.108 60.906 229.691 61.138C229.279 61.3653 228.96 61.6849 228.733 62.0968C228.51 62.5087 228.399 62.9917 228.399 63.5457H226.723C226.723 62.6934 226.919 61.9453 227.312 61.3013C227.705 60.6574 228.24 60.1555 228.917 59.7957C229.599 59.4358 230.364 59.2559 231.211 59.2559C232.064 59.2559 232.819 59.4358 233.477 59.7957C234.135 60.1555 234.651 60.6408 235.025 61.2516C235.399 61.8624 235.586 62.5419 235.586 63.29C235.586 63.825 235.489 64.3482 235.295 64.8596C235.106 65.3662 234.774 65.932 234.301 66.557C233.832 67.1773 233.181 67.9349 232.348 68.8297L229.081 72.3241V72.4377H235.842V74.0002H226.666ZM239.23 74.0002L245.735 61.1309V61.0172H238.235V59.4547H247.554V61.1025L241.076 74.0002H239.23ZM254.945 74.0002H250.457V59.4547H255.144C256.555 59.4547 257.763 59.7459 258.766 60.3283C259.77 60.906 260.54 61.7369 261.075 62.8212C261.61 63.9008 261.877 65.1934 261.877 66.6991C261.877 68.2142 261.607 69.5187 261.067 70.6124C260.528 71.7014 259.742 72.5395 258.71 73.1266C257.677 73.709 256.423 74.0002 254.945 74.0002ZM252.218 72.4377H254.832C256.034 72.4377 257.031 72.2057 257.822 71.7417C258.612 71.2777 259.202 70.6172 259.59 69.7601C259.978 68.9031 260.173 67.8828 260.173 66.6991C260.173 65.5248 259.981 64.5139 259.597 63.6664C259.214 62.8141 258.641 62.1607 257.879 61.7062C257.116 61.2469 256.167 61.0172 255.031 61.0172H252.218V72.4377Z" fill="#261D20"/>
<path d="M180 1H88V89H180V1Z" fill="#F98B9F"/>
<path d="M180 1H88V89H180V1Z" fill="#F98B9F"/>
<path d="M98.7373 73.9998V59.4543H107.459V61.0168H100.498V65.9317H106.805V67.4942H100.498V73.9998H98.7373ZM114.85 59.2555C115.447 59.2602 116.044 59.3739 116.64 59.5964C117.237 59.8189 117.781 60.1882 118.274 60.7043C118.766 61.2157 119.161 61.9142 119.46 62.7996C119.758 63.685 119.907 64.7953 119.907 66.1305C119.907 67.4231 119.784 68.5714 119.538 69.5752C119.296 70.5742 118.946 71.4169 118.487 72.1035C118.032 72.79 117.478 73.3109 116.825 73.666C116.176 74.0211 115.442 74.1987 114.623 74.1987C113.809 74.1987 113.082 74.0377 112.443 73.7157C111.808 73.389 111.287 72.9368 110.88 72.3592C110.478 71.7768 110.22 71.1021 110.106 70.335H111.839C111.995 71.0026 112.305 71.5543 112.769 71.9899C113.238 72.4207 113.856 72.6362 114.623 72.6362C115.745 72.6362 116.631 72.1461 117.279 71.166C117.933 70.1859 118.259 68.8009 118.259 67.0112H118.146C117.881 67.4089 117.566 67.7522 117.201 68.041C116.837 68.3298 116.432 68.5525 115.987 68.7087C115.542 68.865 115.068 68.943 114.566 68.943C113.733 68.943 112.968 68.7371 112.272 68.3252C111.581 67.9085 111.027 67.338 110.61 66.6135C110.198 65.8844 109.992 65.051 109.992 64.1135C109.992 63.2234 110.191 62.409 110.589 61.6704C110.991 60.927 111.555 60.3351 112.279 59.8948C113.008 59.4544 113.865 59.2413 114.85 59.2555ZM114.85 60.818C114.254 60.818 113.716 60.9671 113.238 61.2654C112.765 61.559 112.388 61.9568 112.109 62.4587C111.834 62.9559 111.697 63.5075 111.697 64.1135C111.697 64.7196 111.83 65.2712 112.095 65.7684C112.365 66.2608 112.732 66.6538 113.196 66.9473C113.664 67.2362 114.197 67.3805 114.794 67.3805C115.243 67.3805 115.662 67.2929 116.051 67.1177C116.439 66.9378 116.777 66.6939 117.066 66.3862C117.36 66.0737 117.589 65.721 117.755 65.328C117.921 64.9303 118.004 64.5159 118.004 64.085C118.004 63.5168 117.866 62.9843 117.592 62.4871C117.322 61.99 116.948 61.5874 116.47 61.2796C115.996 60.9719 115.456 60.818 114.85 60.818ZM127.359 74.1987C126.384 74.1987 125.522 74.0258 124.774 73.6802C124.031 73.3298 123.451 72.8493 123.034 72.2385C122.617 71.623 122.411 70.9221 122.416 70.1362C122.411 69.5206 122.532 68.9525 122.778 68.4317C123.024 67.906 123.361 67.4681 123.787 67.1177C124.218 66.7626 124.698 66.5377 125.229 66.443V66.3579C124.533 66.1779 123.979 65.7872 123.567 65.1859C123.155 64.5798 122.951 63.891 122.956 63.1192C122.951 62.3806 123.138 61.72 123.517 61.1376C123.896 60.5552 124.417 60.0959 125.079 59.7597C125.747 59.4236 126.507 59.2555 127.359 59.2555C128.202 59.2555 128.955 59.4236 129.618 59.7597C130.281 60.0959 130.801 60.5552 131.18 61.1376C131.564 61.72 131.758 62.3806 131.763 63.1192C131.758 63.891 131.547 64.5798 131.131 65.1859C130.719 65.7872 130.172 66.1779 129.49 66.3579V66.443C130.015 66.5377 130.489 66.7626 130.91 67.1177C131.332 67.4681 131.668 67.906 131.919 68.4317C132.17 68.9525 132.298 69.5206 132.302 70.1362C132.298 70.9221 132.085 71.623 131.663 72.2385C131.247 72.8493 130.667 73.3298 129.923 73.6802C129.185 74.0258 128.33 74.1987 127.359 74.1987ZM127.359 72.6362C128.017 72.6362 128.586 72.5297 129.064 72.3167C129.542 72.1036 129.911 71.8029 130.172 71.4147C130.432 71.0264 130.565 70.5719 130.569 70.051C130.565 69.5018 130.423 69.0164 130.143 68.595C129.864 68.1736 129.483 67.8421 129 67.6007C128.522 67.3592 127.975 67.2385 127.359 67.2385C126.739 67.2385 126.185 67.3592 125.697 67.6007C125.214 67.8421 124.833 68.1736 124.554 68.595C124.279 69.0164 124.144 69.5018 124.149 70.051C124.144 70.5719 124.27 71.0264 124.525 71.4147C124.786 71.8029 125.158 72.1036 125.64 72.3167C126.123 72.5297 126.696 72.6362 127.359 72.6362ZM127.359 65.7329C127.88 65.7329 128.342 65.6287 128.744 65.4204C129.151 65.212 129.471 64.9207 129.703 64.5467C129.935 64.1726 130.053 63.7347 130.058 63.2329C130.053 62.7404 129.937 62.3118 129.71 61.9472C129.483 61.5779 129.168 61.2938 128.765 61.095C128.363 60.8914 127.894 60.7896 127.359 60.7896C126.815 60.7896 126.339 60.8914 125.932 61.095C125.524 61.2938 125.21 61.5779 124.987 61.9472C124.765 62.3118 124.656 62.7404 124.66 63.2329C124.656 63.7347 124.767 64.1726 124.994 64.5467C125.226 64.9207 125.546 65.212 125.953 65.4204C126.36 65.6287 126.829 65.7329 127.359 65.7329ZM135.28 73.9998V59.4543H140.365C141.379 59.4543 142.214 59.6295 142.872 59.9799C143.531 60.3256 144.021 60.7919 144.343 61.3791C144.665 61.9614 144.825 62.6078 144.825 63.318C144.825 63.943 144.714 64.4592 144.492 64.8664C144.274 65.2736 143.985 65.5954 143.625 65.8322C143.27 66.0689 142.884 66.2442 142.468 66.3579V66.4998C142.913 66.5282 143.36 66.6846 143.81 66.9687C144.26 67.2527 144.636 67.6598 144.939 68.1901C145.242 68.7204 145.394 69.3691 145.394 70.1362C145.394 70.8653 145.228 71.5211 144.897 72.1035C144.565 72.6859 144.042 73.1476 143.327 73.4885C142.612 73.8294 141.682 73.9998 140.536 73.9998H135.28ZM137.041 72.4373H140.536C141.686 72.4373 142.503 72.2148 142.986 71.7697C143.474 71.3199 143.718 70.7754 143.718 70.1362C143.718 69.6437 143.592 69.1892 143.341 68.7725C143.09 68.3511 142.733 68.015 142.269 67.764C141.805 67.5083 141.255 67.3805 140.621 67.3805H137.041V72.4373ZM137.041 65.8465H140.308C140.839 65.8465 141.317 65.7423 141.743 65.534C142.174 65.3257 142.515 65.032 142.766 64.6532C143.022 64.2744 143.149 63.8293 143.149 63.318C143.149 62.6788 142.927 62.1366 142.482 61.6916C142.037 61.2418 141.331 61.0168 140.365 61.0168H137.041V65.8465ZM152.663 59.2555C153.259 59.2602 153.856 59.3739 154.453 59.5964C155.049 59.8189 155.594 60.1882 156.086 60.7043C156.579 61.2157 156.974 61.9142 157.272 62.7996C157.571 63.685 157.72 64.7953 157.72 66.1305C157.72 67.4231 157.597 68.5714 157.35 69.5752C157.109 70.5742 156.758 71.4169 156.299 72.1035C155.845 72.79 155.291 73.3109 154.637 73.666C153.989 74.0211 153.255 74.1987 152.436 74.1987C151.621 74.1987 150.894 74.0377 150.255 73.7157C149.621 73.389 149.1 72.9368 148.693 72.3592C148.29 71.7768 148.032 71.1021 147.919 70.335H149.651C149.808 71.0026 150.118 71.5543 150.582 71.9899C151.051 72.4207 151.669 72.6362 152.436 72.6362C153.558 72.6362 154.443 72.1461 155.092 71.166C155.745 70.1859 156.072 68.8009 156.072 67.0112H155.958C155.693 67.4089 155.378 67.7522 155.014 68.041C154.649 68.3298 154.244 68.5525 153.799 68.7087C153.354 68.865 152.881 68.943 152.379 68.943C151.545 68.943 150.781 68.7371 150.085 68.3252C149.393 67.9085 148.839 67.338 148.423 66.6135C148.011 65.8844 147.805 65.051 147.805 64.1135C147.805 63.2234 148.004 62.409 148.401 61.6704C148.804 60.927 149.367 60.3351 150.092 59.8948C150.821 59.4544 151.678 59.2413 152.663 59.2555ZM152.663 60.818C152.066 60.818 151.529 60.9671 151.051 61.2654C150.577 61.559 150.201 61.9568 149.921 62.4587C149.647 62.9559 149.509 63.5075 149.509 64.1135C149.509 64.7196 149.642 65.2712 149.907 65.7684C150.177 66.2608 150.544 66.6538 151.008 66.9473C151.477 67.2362 152.009 67.3805 152.606 67.3805C153.056 67.3805 153.475 67.2929 153.863 67.1177C154.251 66.9378 154.59 66.6939 154.879 66.3862C155.172 66.0737 155.402 65.721 155.568 65.328C155.733 64.9303 155.816 64.5159 155.816 64.085C155.816 63.5168 155.679 62.9843 155.404 62.4871C155.134 61.99 154.76 61.5874 154.282 61.2796C153.809 60.9719 153.269 60.818 152.663 60.818ZM160.768 73.9998V59.4543H169.49V61.0168H162.53V65.9317H168.836V67.4942H162.53V73.9998H160.768Z" fill="#261D20"/>
<path d="M92 1H0V89H92V1Z" fill="#F5B3BF"/>
<path d="M92 1H0V89H92V1Z" fill="#F5B3BF"/>
<path d="M10.564 74.0002V59.4547H19.2856V61.0172H12.3254V65.932H18.6322V67.4945H12.3254V74.0002H10.564ZM26.5921 74.1991C25.7587 74.1991 25.0082 74.0333 24.3406 73.7019C23.673 73.3705 23.138 72.9159 22.7355 72.3383C22.3331 71.7606 22.1129 71.1025 22.075 70.3638H23.7796C23.8458 71.022 24.1441 71.5665 24.6744 71.9974C25.2095 72.4235 25.8487 72.6366 26.5921 72.6366C27.1886 72.6366 27.7189 72.4969 28.183 72.2175C28.6517 71.9382 29.0187 71.5547 29.2838 71.067C29.5537 70.5745 29.6886 70.0182 29.6886 69.3979C29.6886 68.7635 29.549 68.1976 29.2696 67.7005C28.995 67.1986 28.6162 66.8032 28.1332 66.5144C27.6503 66.2256 27.0987 66.0788 26.4784 66.0741C26.0333 66.0693 25.5764 66.138 25.1077 66.28C24.6389 66.4173 24.253 66.5949 23.95 66.8127L22.3023 66.6138L23.183 59.4547H30.7398V61.0172H24.6602L24.1489 65.307H24.2341C24.5324 65.0703 24.9064 64.8738 25.3563 64.7175C25.8061 64.5613 26.2748 64.4832 26.7625 64.4832C27.6527 64.4832 28.4457 64.6962 29.1418 65.1224C29.8425 65.5438 30.3918 66.1214 30.7895 66.8553C31.192 67.5892 31.3932 68.4273 31.3932 69.3695C31.3932 70.2975 31.1849 71.1261 30.7682 71.8553C30.3563 72.5797 29.7881 73.1527 29.0636 73.5741C28.3392 73.9907 27.5153 74.1991 26.5921 74.1991ZM34.4702 74.0002V59.4547H39.5555C40.5687 59.4547 41.4044 59.6299 42.0626 59.9803C42.7207 60.326 43.2108 60.7923 43.5327 61.3795C43.8547 61.9618 44.0157 62.6082 44.0157 63.3184C44.0157 63.9434 43.9044 64.4595 43.6819 64.8667C43.4641 65.2739 43.1753 65.5958 42.8154 65.8326C42.4603 66.0693 42.0744 66.2445 41.6577 66.3582V66.5002C42.1028 66.5286 42.5503 66.6849 43.0001 66.969C43.4499 67.253 43.8263 67.6602 44.1293 68.1905C44.4324 68.7208 44.5839 69.3695 44.5839 70.1366C44.5839 70.8657 44.4182 71.5215 44.0867 72.1039C43.7553 72.6863 43.2321 73.1479 42.5171 73.4888C41.8022 73.8297 40.8718 74.0002 39.7259 74.0002H34.4702ZM36.2316 72.4377H39.7259C40.8765 72.4377 41.6933 72.2152 42.1762 71.7701C42.6639 71.3203 42.9077 70.7758 42.9077 70.1366C42.9077 69.6441 42.7823 69.1896 42.5313 68.7729C42.2804 68.3515 41.9229 68.0154 41.4589 67.7644C40.9949 67.5087 40.4456 67.3809 39.8112 67.3809H36.2316V72.4377ZM36.2316 65.8468H39.4987C40.029 65.8468 40.5072 65.7426 40.9333 65.5343C41.3642 65.326 41.7051 65.0324 41.956 64.6536C42.2117 64.2748 42.3396 63.8297 42.3396 63.3184C42.3396 62.6792 42.117 62.137 41.672 61.692C41.2269 61.2422 40.5214 61.0172 39.5555 61.0172H36.2316V65.8468ZM52.1372 74.1991C51.1997 74.1991 50.364 74.0381 49.63 73.7161C48.9009 73.3941 48.3209 72.9467 47.89 72.3738C47.4639 71.7961 47.2318 71.1261 47.194 70.3638H48.9837C49.0216 70.8326 49.1826 71.2374 49.4667 71.5783C49.7508 71.9145 50.1225 72.1749 50.5818 72.3596C51.041 72.5442 51.55 72.6366 52.1087 72.6366C52.7337 72.6366 53.2877 72.5277 53.7707 72.3099C54.2536 72.0921 54.6324 71.789 54.907 71.4008C55.1817 71.0125 55.319 70.5627 55.319 70.0513C55.319 69.5163 55.1864 69.0452 54.9212 68.638C54.6561 68.2261 54.2678 67.9041 53.7565 67.6721C53.2451 67.4401 52.6201 67.3241 51.8815 67.3241H50.7167V65.7616H51.8815C52.4591 65.7616 52.9657 65.6574 53.4014 65.4491C53.8417 65.2407 54.185 64.9472 54.4312 64.5684C54.6821 64.1896 54.8076 63.7445 54.8076 63.2332C54.8076 62.7407 54.6987 62.3122 54.4809 61.9476C54.2631 61.5831 53.9553 61.299 53.5576 61.0954C53.1646 60.8918 52.7006 60.79 52.1656 60.79C51.6637 60.79 51.1902 60.8823 50.7451 61.067C50.3048 61.2469 49.9449 61.5097 49.6656 61.8553C49.3862 62.1962 49.2347 62.6082 49.211 63.0911H47.5065C47.5349 62.3288 47.7645 61.6612 48.1954 61.0883C48.6263 60.5106 49.1897 60.0608 49.8857 59.7388C50.5865 59.4169 51.3559 59.2559 52.194 59.2559C53.0936 59.2559 53.8654 59.4382 54.5093 59.8028C55.1533 60.1626 55.648 60.6385 55.9937 61.2303C56.3393 61.8222 56.5122 62.4614 56.5122 63.1479C56.5122 63.9671 56.2967 64.6654 55.8658 65.2431C55.4397 65.8207 54.8597 66.2208 54.1258 66.4434V66.557C55.0443 66.7085 55.7617 67.0992 56.2778 67.7289C56.7939 68.3539 57.0519 69.128 57.0519 70.0513C57.0519 70.8421 56.8365 71.5523 56.4056 72.182C55.9795 72.807 55.3971 73.2994 54.6585 73.6593C53.9198 74.0191 53.0794 74.1991 52.1372 74.1991ZM60.2124 74.0002V59.4547H65.2977C66.3109 59.4547 67.1466 59.6299 67.8048 59.9803C68.4629 60.326 68.953 60.7923 69.2749 61.3795C69.5969 61.9618 69.7579 62.6082 69.7579 63.3184C69.7579 63.9434 69.6466 64.4595 69.4241 64.8667C69.2063 65.2739 68.9175 65.5958 68.5576 65.8326C68.2025 66.0693 67.8166 66.2445 67.3999 66.3582V66.5002C67.845 66.5286 68.2925 66.6849 68.7423 66.969C69.1921 67.253 69.5685 67.6602 69.8715 68.1905C70.1746 68.7208 70.3261 69.3695 70.3261 70.1366C70.3261 70.8657 70.1604 71.5215 69.8289 72.1039C69.4975 72.6863 68.9743 73.1479 68.2593 73.4888C67.5443 73.8297 66.614 74.0002 65.4681 74.0002H60.2124ZM61.9738 72.4377H65.4681C66.6187 72.4377 67.4354 72.2152 67.9184 71.7701C68.4061 71.3203 68.6499 70.7758 68.6499 70.1366C68.6499 69.6441 68.5245 69.1896 68.2735 68.7729C68.0226 68.3515 67.6651 68.0154 67.2011 67.7644C66.7371 67.5087 66.1878 67.3809 65.5533 67.3809H61.9738V72.4377ZM61.9738 65.8468H65.2408C65.7711 65.8468 66.2494 65.7426 66.6755 65.5343C67.1064 65.326 67.4473 65.0324 67.6982 64.6536C67.9539 64.2748 68.0818 63.8297 68.0818 63.3184C68.0818 62.6792 67.8592 62.137 67.4141 61.692C66.9691 61.2422 66.2636 61.0172 65.2977 61.0172H61.9738V65.8468ZM73.2202 74.0002V59.4547H81.9418V61.0172H74.9816V65.932H81.2884V67.4945H74.9816V74.0002H73.2202Z" fill="#261D20"/>
<path d="M820 0H728V88H820V0Z" fill="#FFF2F5"/>
<path d="M740.146 73.0002V58.4547H748.868V60.0172H741.907V64.932H748.214V66.4945H741.907V73.0002H740.146ZM751.884 73.0002V58.4547H760.607V60.0172H753.646V64.932H759.953V66.4945H753.646V73.0002H751.884ZM763.623 73.0002V58.4547H772.344V60.0172H765.384V64.932H771.691V66.4945H765.384V73.0002H763.623ZM775.105 73.0002V71.7218L779.906 66.4661C780.47 65.8506 780.934 65.3155 781.298 64.861C781.663 64.4017 781.933 63.9708 782.108 63.5684C782.288 63.1612 782.378 62.735 782.378 62.29C782.378 61.7786 782.255 61.3359 782.009 60.9618C781.767 60.5878 781.436 60.299 781.014 60.0954C780.593 59.8918 780.119 59.79 779.594 59.79C779.035 59.79 778.548 59.906 778.131 60.138C777.719 60.3653 777.399 60.6849 777.172 61.0968C776.95 61.5087 776.839 61.9917 776.839 62.5457H775.162C775.162 61.6934 775.36 60.9453 775.753 60.3013C776.146 59.6574 776.68 59.1555 777.357 58.7957C778.039 58.4358 778.803 58.2559 779.651 58.2559C780.503 58.2559 781.259 58.4358 781.917 58.7957C782.576 59.1555 783.092 59.6408 783.466 60.2516C783.84 60.8624 784.026 61.5419 784.026 62.29C784.026 62.825 783.929 63.3482 783.735 63.8596C783.545 64.3662 783.214 64.932 782.74 65.557C782.271 66.1773 781.62 66.9349 780.787 67.8297L777.521 71.3241V71.4377H784.281V73.0002H775.105ZM787.47 73.0002V58.4547H796.193V60.0172H789.232V64.932H795.539V66.4945H789.232V73.0002H787.47ZM803.498 73.1991C802.665 73.1991 801.915 73.0333 801.247 72.7019C800.579 72.3705 800.045 71.9159 799.643 71.3383C799.24 70.7606 799.02 70.1025 798.982 69.3638H800.686C800.752 70.022 801.05 70.5665 801.581 70.9974C802.116 71.4235 802.755 71.6366 803.498 71.6366C804.095 71.6366 804.625 71.4969 805.089 71.2175C805.558 70.9382 805.925 70.5547 806.19 70.067C806.46 69.5745 806.595 69.0182 806.595 68.3979C806.595 67.7635 806.456 67.1976 806.177 66.7005C805.902 66.1986 805.523 65.8032 805.04 65.5144C804.557 65.2256 804.005 65.0788 803.385 65.0741C802.94 65.0693 802.483 65.138 802.014 65.28C801.545 65.4173 801.16 65.5949 800.857 65.8127L799.209 65.6138L800.089 58.4547H807.646V60.0172H801.568L801.055 64.307H801.141C801.44 64.0703 801.813 63.8738 802.263 63.7175C802.712 63.5613 803.181 63.4832 803.669 63.4832C804.559 63.4832 805.352 63.6962 806.048 64.1224C806.749 64.5438 807.298 65.1214 807.696 65.8553C808.098 66.5892 808.3 67.4273 808.3 68.3695C808.3 69.2975 808.091 70.1261 807.675 70.8553C807.263 71.5797 806.694 72.1527 805.97 72.5741C805.246 72.9907 804.422 73.1991 803.498 73.1991Z" fill="black"/>
</g>
<defs>
<clipPath id="clip0_114_860">
<rect width="820" height="89" fill="white"/>
</clipPath>
</defs>
</svg>
