<svg width="79" height="79" viewBox="0 0 79 79" fill="none" xmlns="http://www.w3.org/2000/svg">
<path fill-rule="evenodd" clip-rule="evenodd" d="M11.2857 0C8.29256 0 5.42199 1.18903 3.30551 3.30551C1.18903 5.42199 0 8.29256 0 11.2857V67.7143C0 70.7074 1.18903 73.578 3.30551 75.6945C5.42199 77.811 8.29256 79 11.2857 79H67.7143C70.7074 79 73.578 77.811 75.6945 75.6945C77.811 73.578 79 70.7074 79 67.7143V11.2857C79 8.29256 77.811 5.42199 75.6945 3.30551C73.578 1.18903 70.7074 0 67.7143 0H11.2857ZM17.5041 24.2474C19.2926 24.2474 21.0077 23.5369 22.2723 22.2723C23.5369 21.0077 24.2474 19.2926 24.2474 17.5041C24.2474 15.7157 23.5369 14.0006 22.2723 12.736C21.0077 11.4714 19.2926 10.7609 17.5041 10.7609C15.7157 10.7609 14.0006 11.4714 12.736 12.736C11.4714 14.0006 10.7609 15.7157 10.7609 17.5041C10.7609 19.2926 11.4714 21.0077 12.736 22.2723C14.0006 23.5369 15.7157 24.2474 17.5041 24.2474ZM23.147 66.6591V29.5347H11.8613V66.6591H23.147ZM30.6407 29.5347H41.9264V34.5061C43.5911 31.8991 47.2476 28.3892 54.0473 28.3892C62.1617 28.3892 66.5688 33.7669 66.5688 43.9974C66.5688 44.4883 66.6139 46.7285 66.6139 46.7285V66.6534H55.3282V46.7341C55.3282 43.9974 54.7526 38.6197 48.6696 38.6197C42.581 38.6197 42.0675 45.3799 41.9264 49.8039V66.6534H30.6407V29.5347Z" fill="#F5F5FF"/>
</svg>
