<svg width="94" height="79" viewBox="0 0 94 79" fill="none" xmlns="http://www.w3.org/2000/svg">
<path d="M84.6 69.125H75.2V25.9219L47 44.4375L18.8 25.9219V69.125H9.4V9.875H15.04L47 30.8594L78.96 9.875H84.6M84.6 0H9.4C4.183 0 0 4.39437 0 9.875V69.125C0 71.744 0.990354 74.2558 2.7532 76.1077C4.51604 77.9596 6.90696 79 9.4 79H84.6C87.093 79 89.484 77.9596 91.2468 76.1077C93.0096 74.2558 94 71.744 94 69.125V9.875C94 7.25599 93.0096 4.74424 91.2468 2.89232C89.484 1.0404 87.093 0 84.6 0Z" fill="#F5F5FF"/>
</svg>
