<svg width="843" height="151" viewBox="0 0 843 151" fill="none" xmlns="http://www.w3.org/2000/svg">
<path d="M763.528 147L764.904 135.8H765.768L764.392 147H763.528ZM757.464 143.96V143.08H767.144V143.96H757.464ZM759.368 147L760.744 135.8H761.624L760.232 147H759.368ZM757.976 139.72V138.84H767.656V139.72H757.976ZM770.925 147V136.28L771.437 136.824H768.285V135.8H772.077V147H770.925ZM775.746 147V135.8H780.306C781.501 135.8 782.546 136.04 783.442 136.52C784.349 136.989 785.053 137.645 785.554 138.488C786.055 139.331 786.306 140.301 786.306 141.4C786.306 142.499 786.055 143.469 785.554 144.312C785.053 145.155 784.349 145.816 783.442 146.296C782.546 146.765 781.501 147 780.306 147H775.746ZM776.93 145.976H780.242C781.234 145.976 782.093 145.784 782.818 145.4C783.554 145.005 784.125 144.467 784.53 143.784C784.935 143.091 785.138 142.296 785.138 141.4C785.138 140.493 784.935 139.699 784.53 139.016C784.125 138.333 783.554 137.8 782.818 137.416C782.093 137.021 781.234 136.824 780.242 136.824H776.93V145.976ZM792.437 147.096C791.573 147.096 790.805 146.872 790.133 146.424C789.461 145.965 788.933 145.315 788.549 144.472C788.165 143.619 787.973 142.595 787.973 141.4C787.973 140.205 788.165 139.187 788.549 138.344C788.933 137.491 789.461 136.84 790.133 136.392C790.805 135.933 791.573 135.704 792.437 135.704C793.301 135.704 794.069 135.933 794.741 136.392C795.413 136.84 795.941 137.491 796.325 138.344C796.719 139.187 796.917 140.205 796.917 141.4C796.917 142.595 796.719 143.619 796.325 144.472C795.941 145.315 795.413 145.965 794.741 146.424C794.069 146.872 793.301 147.096 792.437 147.096ZM792.437 146.04C793.098 146.04 793.674 145.864 794.165 145.512C794.655 145.149 795.039 144.627 795.317 143.944C795.594 143.251 795.733 142.403 795.733 141.4C795.733 140.397 795.594 139.555 795.317 138.872C795.039 138.179 794.655 137.656 794.165 137.304C793.674 136.941 793.098 136.76 792.437 136.76C791.797 136.76 791.226 136.941 790.725 137.304C790.223 137.656 789.834 138.179 789.557 138.872C789.279 139.555 789.141 140.397 789.141 141.4C789.141 142.403 789.279 143.251 789.557 143.944C789.834 144.627 790.223 145.149 790.725 145.512C791.226 145.864 791.797 146.04 792.437 146.04ZM799.558 147V135.8H804.118C805.313 135.8 806.358 136.04 807.254 136.52C808.161 136.989 808.865 137.645 809.366 138.488C809.868 139.331 810.118 140.301 810.118 141.4C810.118 142.499 809.868 143.469 809.366 144.312C808.865 145.155 808.161 145.816 807.254 146.296C806.358 146.765 805.313 147 804.118 147H799.558ZM800.742 145.976H804.054C805.046 145.976 805.905 145.784 806.63 145.4C807.366 145.005 807.937 144.467 808.342 143.784C808.748 143.091 808.95 142.296 808.95 141.4C808.95 140.493 808.748 139.699 808.342 139.016C807.937 138.333 807.366 137.8 806.63 137.416C805.905 137.021 805.046 136.824 804.054 136.824H800.742V145.976ZM816.249 147.096C815.385 147.096 814.617 146.872 813.945 146.424C813.273 145.965 812.745 145.315 812.361 144.472C811.977 143.619 811.785 142.595 811.785 141.4C811.785 140.205 811.977 139.187 812.361 138.344C812.745 137.491 813.273 136.84 813.945 136.392C814.617 135.933 815.385 135.704 816.249 135.704C817.113 135.704 817.881 135.933 818.553 136.392C819.225 136.84 819.753 137.491 820.137 138.344C820.532 139.187 820.729 140.205 820.729 141.4C820.729 142.595 820.532 143.619 820.137 144.472C819.753 145.315 819.225 145.965 818.553 146.424C817.881 146.872 817.113 147.096 816.249 147.096ZM816.249 146.04C816.91 146.04 817.486 145.864 817.977 145.512C818.468 145.149 818.852 144.627 819.129 143.944C819.406 143.251 819.545 142.403 819.545 141.4C819.545 140.397 819.406 139.555 819.129 138.872C818.852 138.179 818.468 137.656 817.977 137.304C817.486 136.941 816.91 136.76 816.249 136.76C815.609 136.76 815.038 136.941 814.537 137.304C814.036 137.656 813.646 138.179 813.369 138.872C813.092 139.555 812.953 140.397 812.953 141.4C812.953 142.403 813.092 143.251 813.369 143.944C813.646 144.627 814.036 145.149 814.537 145.512C815.038 145.864 815.609 146.04 816.249 146.04ZM828.235 147.096C827.392 147.096 826.614 146.957 825.899 146.68C825.184 146.392 824.566 145.992 824.043 145.48C823.52 144.968 823.11 144.365 822.811 143.672C822.523 142.979 822.379 142.221 822.379 141.4C822.379 140.579 822.523 139.821 822.811 139.128C823.11 138.435 823.52 137.832 824.043 137.32C824.576 136.808 825.2 136.413 825.915 136.136C826.63 135.848 827.408 135.704 828.251 135.704C829.062 135.704 829.824 135.843 830.539 136.12C831.254 136.387 831.856 136.792 832.347 137.336L831.595 138.088C831.136 137.619 830.63 137.283 830.075 137.08C829.52 136.867 828.923 136.76 828.283 136.76C827.611 136.76 826.987 136.877 826.411 137.112C825.835 137.336 825.334 137.661 824.907 138.088C824.48 138.504 824.144 138.995 823.899 139.56C823.664 140.115 823.547 140.728 823.547 141.4C823.547 142.072 823.664 142.691 823.899 143.256C824.144 143.811 824.48 144.301 824.907 144.728C825.334 145.144 825.835 145.469 826.411 145.704C826.987 145.928 827.611 146.04 828.283 146.04C828.923 146.04 829.52 145.933 830.075 145.72C830.63 145.507 831.136 145.165 831.595 144.696L832.347 145.448C831.856 145.992 831.254 146.403 830.539 146.68C829.824 146.957 829.056 147.096 828.235 147.096Z" fill="#FFFBE6"/>
<path d="M793.5 124.5C820.562 124.5 842.5 102.562 842.5 75.5C842.5 48.438 820.562 26.5 793.5 26.5C766.438 26.5 744.5 48.438 744.5 75.5C744.5 102.562 766.438 124.5 793.5 124.5Z" fill="#1D0D0C" stroke="#1D0D0C"/>
<path d="M763.152 16.0799C762.277 16.0799 761.509 15.8986 760.848 15.5359C760.187 15.1626 759.669 14.6559 759.296 14.0159C758.923 13.3652 758.736 12.6239 758.736 11.7919C758.736 10.9599 758.912 10.2239 759.264 9.58393C759.627 8.94393 760.117 8.4426 760.736 8.07993C761.365 7.7066 762.069 7.51993 762.848 7.51993C763.637 7.51993 764.336 7.70126 764.944 8.06393C765.563 8.41593 766.048 8.91726 766.4 9.56793C766.752 10.2079 766.928 10.9492 766.928 11.7919C766.928 11.8452 766.923 11.9039 766.912 11.9679C766.912 12.0212 766.912 12.0799 766.912 12.1439H759.6V11.2959H766.304L765.856 11.6319C765.856 11.0239 765.723 10.4852 765.456 10.0159C765.2 9.53593 764.848 9.1626 764.4 8.89593C763.952 8.62926 763.435 8.49593 762.848 8.49593C762.272 8.49593 761.755 8.62926 761.296 8.89593C760.837 9.1626 760.48 9.53593 760.224 10.0159C759.968 10.4959 759.84 11.0452 759.84 11.6639V11.8399C759.84 12.4799 759.979 13.0452 760.256 13.5359C760.544 14.0159 760.939 14.3946 761.44 14.6719C761.952 14.9386 762.533 15.0719 763.184 15.0719C763.696 15.0719 764.171 14.9812 764.608 14.7999C765.056 14.6186 765.44 14.3412 765.76 13.9679L766.4 14.7039C766.027 15.1519 765.557 15.4932 764.992 15.7279C764.437 15.9626 763.824 16.0799 763.152 16.0799ZM772.824 19.1839C772.056 19.1839 771.32 19.0719 770.616 18.8479C769.912 18.6239 769.342 18.3039 768.904 17.8879L769.48 17.0239C769.875 17.3759 770.36 17.6532 770.936 17.8559C771.523 18.0692 772.142 18.1759 772.792 18.1759C773.859 18.1759 774.643 17.9252 775.144 17.4239C775.646 16.9332 775.896 16.1652 775.896 15.1199V13.0239L776.056 11.5839L775.944 10.1439V7.59993H777.032V14.9759C777.032 16.4266 776.675 17.4879 775.96 18.1599C775.256 18.8426 774.211 19.1839 772.824 19.1839ZM772.616 15.6799C771.816 15.6799 771.096 15.5092 770.456 15.1679C769.816 14.8159 769.31 14.3306 768.936 13.7119C768.574 13.0932 768.392 12.3839 768.392 11.5839C768.392 10.7839 768.574 10.0799 768.936 9.47193C769.31 8.85326 769.816 8.37326 770.456 8.03193C771.096 7.6906 771.816 7.51993 772.616 7.51993C773.363 7.51993 774.035 7.6746 774.632 7.98393C775.23 8.29326 775.704 8.75193 776.056 9.35993C776.408 9.96793 776.584 10.7092 776.584 11.5839C776.584 12.4586 776.408 13.1999 776.056 13.8079C775.704 14.4159 775.23 14.8799 774.632 15.1999C774.035 15.5199 773.363 15.6799 772.616 15.6799ZM772.728 14.6719C773.347 14.6719 773.896 14.5439 774.376 14.2879C774.856 14.0212 775.235 13.6586 775.512 13.1999C775.79 12.7306 775.928 12.1919 775.928 11.5839C775.928 10.9759 775.79 10.4426 775.512 9.98393C775.235 9.52526 774.856 9.16793 774.376 8.91193C773.896 8.64526 773.347 8.51193 772.728 8.51193C772.12 8.51193 771.571 8.64526 771.08 8.91193C770.6 9.16793 770.222 9.52526 769.944 9.98393C769.678 10.4426 769.544 10.9759 769.544 11.5839C769.544 12.1919 769.678 12.7306 769.944 13.1999C770.222 13.6586 770.6 14.0212 771.08 14.2879C771.571 14.5439 772.12 14.6719 772.728 14.6719ZM783.777 19.1839C783.009 19.1839 782.273 19.0719 781.569 18.8479C780.865 18.6239 780.295 18.3039 779.857 17.8879L780.433 17.0239C780.828 17.3759 781.313 17.6532 781.889 17.8559C782.476 18.0692 783.095 18.1759 783.745 18.1759C784.812 18.1759 785.596 17.9252 786.097 17.4239C786.599 16.9332 786.849 16.1652 786.849 15.1199V13.0239L787.009 11.5839L786.897 10.1439V7.59993H787.985V14.9759C787.985 16.4266 787.628 17.4879 786.913 18.1599C786.209 18.8426 785.164 19.1839 783.777 19.1839ZM783.569 15.6799C782.769 15.6799 782.049 15.5092 781.409 15.1679C780.769 14.8159 780.263 14.3306 779.889 13.7119C779.527 13.0932 779.345 12.3839 779.345 11.5839C779.345 10.7839 779.527 10.0799 779.889 9.47193C780.263 8.85326 780.769 8.37326 781.409 8.03193C782.049 7.6906 782.769 7.51993 783.569 7.51993C784.316 7.51993 784.988 7.6746 785.585 7.98393C786.183 8.29326 786.657 8.75193 787.009 9.35993C787.361 9.96793 787.537 10.7092 787.537 11.5839C787.537 12.4586 787.361 13.1999 787.009 13.8079C786.657 14.4159 786.183 14.8799 785.585 15.1999C784.988 15.5199 784.316 15.6799 783.569 15.6799ZM783.681 14.6719C784.3 14.6719 784.849 14.5439 785.329 14.2879C785.809 14.0212 786.188 13.6586 786.465 13.1999C786.743 12.7306 786.881 12.1919 786.881 11.5839C786.881 10.9759 786.743 10.4426 786.465 9.98393C786.188 9.52526 785.809 9.16793 785.329 8.91193C784.849 8.64526 784.3 8.51193 783.681 8.51193C783.073 8.51193 782.524 8.64526 782.033 8.91193C781.553 9.16793 781.175 9.52526 780.897 9.98393C780.631 10.4426 780.497 10.9759 780.497 11.5839C780.497 12.1919 780.631 12.7306 780.897 13.1999C781.175 13.6586 781.553 14.0212 782.033 14.2879C782.524 14.5439 783.073 14.6719 783.681 14.6719ZM795.483 16.0799C794.757 16.0799 794.101 15.9146 793.515 15.5839C792.928 15.2426 792.459 14.7572 792.107 14.1279C791.765 13.4879 791.595 12.7092 791.595 11.7919C791.595 10.8746 791.765 10.1012 792.107 9.47193C792.448 8.83193 792.912 8.3466 793.499 8.01593C794.085 7.68526 794.747 7.51993 795.483 7.51993C796.283 7.51993 796.997 7.70126 797.627 8.06393C798.267 8.41593 798.768 8.91726 799.131 9.56793C799.493 10.2079 799.675 10.9492 799.675 11.7919C799.675 12.6452 799.493 13.3919 799.131 14.0319C798.768 14.6719 798.267 15.1732 797.627 15.5359C796.997 15.8986 796.283 16.0799 795.483 16.0799ZM791.147 19.1039V7.59993H792.235V10.1279L792.123 11.8079L792.283 13.5039V19.1039H791.147ZM795.403 15.0719C796 15.0719 796.533 14.9386 797.003 14.6719C797.472 14.3946 797.845 14.0106 798.123 13.5199C798.4 13.0186 798.539 12.4426 798.539 11.7919C798.539 11.1412 798.4 10.5706 798.123 10.0799C797.845 9.58926 797.472 9.20526 797.003 8.92793C796.533 8.6506 796 8.51193 795.403 8.51193C794.805 8.51193 794.267 8.6506 793.786 8.92793C793.317 9.20526 792.944 9.58926 792.667 10.0799C792.4 10.5706 792.267 11.1412 792.267 11.7919C792.267 12.4426 792.4 13.0186 792.667 13.5199C792.944 14.0106 793.317 14.3946 793.786 14.6719C794.267 14.9386 794.805 15.0719 795.403 15.0719ZM801.99 15.9999V4.12793H803.126V15.9999H801.99ZM811.551 15.9999V14.1439L811.503 13.8399V10.7359C811.503 10.0212 811.3 9.47193 810.895 9.08793C810.5 8.70393 809.908 8.51193 809.119 8.51193C808.575 8.51193 808.058 8.6026 807.567 8.78393C807.076 8.96526 806.66 9.20526 806.319 9.50393L805.807 8.65593C806.234 8.29326 806.746 8.01593 807.343 7.82393C807.94 7.62126 808.57 7.51993 809.231 7.51993C810.319 7.51993 811.156 7.79193 811.743 8.33593C812.34 8.86926 812.639 9.68526 812.639 10.7839V15.9999H811.551ZM808.655 16.0799C808.026 16.0799 807.476 15.9786 807.007 15.7759C806.548 15.5626 806.196 15.2746 805.951 14.9119C805.706 14.5386 805.583 14.1119 805.583 13.6319C805.583 13.1946 805.684 12.7999 805.887 12.4479C806.1 12.0852 806.442 11.7972 806.911 11.5839C807.391 11.3599 808.031 11.2479 808.831 11.2479H811.727V12.0959H808.863C808.052 12.0959 807.487 12.2399 807.167 12.5279C806.858 12.8159 806.703 13.1732 806.703 13.5999C806.703 14.0799 806.89 14.4639 807.263 14.7519C807.636 15.0399 808.159 15.1839 808.831 15.1839C809.471 15.1839 810.02 15.0399 810.479 14.7519C810.948 14.4532 811.29 14.0266 811.503 13.4719L811.759 14.2559C811.546 14.8106 811.172 15.2532 810.639 15.5839C810.116 15.9146 809.455 16.0799 808.655 16.0799ZM820.013 7.51993C820.695 7.51993 821.293 7.65326 821.805 7.91993C822.327 8.17593 822.733 8.5706 823.021 9.10393C823.319 9.63726 823.469 10.3092 823.469 11.1199V15.9999H822.333V11.2319C822.333 10.3466 822.109 9.67993 821.661 9.23193C821.223 8.77326 820.605 8.54393 819.805 8.54393C819.207 8.54393 818.685 8.6666 818.237 8.91193C817.799 9.1466 817.458 9.49326 817.213 9.95193C816.978 10.3999 816.861 10.9439 816.861 11.5839V15.9999H815.725V7.59993H816.813V9.90393L816.637 9.47193C816.903 8.86393 817.33 8.38926 817.917 8.04793C818.503 7.69593 819.202 7.51993 820.013 7.51993ZM829.193 16.0799C828.404 16.0799 827.796 15.8666 827.369 15.4399C826.942 15.0132 826.729 14.4106 826.729 13.6319V5.74393H827.865V13.5679C827.865 14.0586 827.988 14.4372 828.233 14.7039C828.489 14.9706 828.852 15.1039 829.321 15.1039C829.822 15.1039 830.238 14.9599 830.569 14.6719L830.969 15.4879C830.745 15.6906 830.473 15.8399 830.153 15.9359C829.844 16.0319 829.524 16.0799 829.193 16.0799ZM825.225 8.54393V7.59993H830.425V8.54393H825.225Z" fill="#FFFBE6"/>
<path d="M639.528 147L640.904 135.8H641.768L640.392 147H639.528ZM633.464 143.96V143.08H643.144V143.96H633.464ZM635.368 147L636.744 135.8H637.624L636.232 147H635.368ZM633.976 139.72V138.84H643.656V139.72H633.976ZM647.021 141.224H652.941V142.248H647.021V141.224ZM647.149 147H645.965V135.8H653.645V136.824H647.149V147ZM659.471 147.096C658.479 147.096 657.642 146.877 656.959 146.44C656.276 145.992 655.759 145.352 655.407 144.52C655.055 143.677 654.879 142.669 654.879 141.496C654.879 140.227 655.092 139.165 655.519 138.312C655.956 137.448 656.559 136.797 657.327 136.36C658.095 135.923 658.986 135.704 659.999 135.704C660.5 135.704 660.98 135.752 661.439 135.848C661.898 135.944 662.303 136.099 662.655 136.312L662.191 137.24C661.903 137.048 661.572 136.915 661.199 136.84C660.826 136.755 660.431 136.712 660.015 136.712C658.81 136.712 657.844 137.096 657.119 137.864C656.404 138.632 656.047 139.779 656.047 141.304C656.047 141.539 656.058 141.832 656.079 142.184C656.111 142.525 656.175 142.867 656.271 143.208L655.871 142.904C655.988 142.349 656.218 141.88 656.559 141.496C656.9 141.101 657.327 140.803 657.839 140.6C658.351 140.397 658.911 140.296 659.519 140.296C660.266 140.296 660.922 140.435 661.487 140.712C662.052 140.989 662.495 141.379 662.815 141.88C663.135 142.381 663.295 142.973 663.295 143.656C663.295 144.349 663.13 144.957 662.799 145.48C662.468 145.992 662.01 146.392 661.423 146.68C660.847 146.957 660.196 147.096 659.471 147.096ZM659.423 146.12C659.956 146.12 660.426 146.024 660.831 145.832C661.247 145.629 661.572 145.347 661.807 144.984C662.042 144.611 662.159 144.179 662.159 143.688C662.159 142.952 661.903 142.365 661.391 141.928C660.89 141.491 660.207 141.272 659.343 141.272C658.767 141.272 658.266 141.379 657.839 141.592C657.412 141.805 657.076 142.099 656.831 142.472C656.586 142.835 656.463 143.251 656.463 143.72C656.463 144.125 656.575 144.515 656.799 144.888C657.023 145.251 657.354 145.549 657.791 145.784C658.239 146.008 658.783 146.12 659.423 146.12ZM664.421 147V146.184L669.077 141.624C669.504 141.208 669.824 140.845 670.037 140.536C670.25 140.216 670.394 139.917 670.469 139.64C670.544 139.363 670.581 139.101 670.581 138.856C670.581 138.205 670.357 137.693 669.909 137.32C669.472 136.947 668.821 136.76 667.957 136.76C667.296 136.76 666.709 136.861 666.197 137.064C665.696 137.267 665.264 137.581 664.901 138.008L664.085 137.304C664.522 136.792 665.082 136.397 665.765 136.12C666.448 135.843 667.21 135.704 668.053 135.704C668.81 135.704 669.466 135.827 670.021 136.072C670.576 136.307 671.002 136.653 671.301 137.112C671.61 137.571 671.765 138.109 671.765 138.728C671.765 139.091 671.712 139.448 671.605 139.8C671.509 140.152 671.328 140.525 671.061 140.92C670.805 141.304 670.426 141.741 669.925 142.232L665.653 146.424L665.333 145.976H672.277V147H664.421ZM674.715 147V135.8H679.275C680.469 135.8 681.515 136.04 682.411 136.52C683.317 136.989 684.021 137.645 684.523 138.488C685.024 139.331 685.275 140.301 685.275 141.4C685.275 142.499 685.024 143.469 684.523 144.312C684.021 145.155 683.317 145.816 682.411 146.296C681.515 146.765 680.469 147 679.275 147H674.715ZM675.899 145.976H679.211C680.203 145.976 681.061 145.784 681.787 145.4C682.523 145.005 683.093 144.467 683.499 143.784C683.904 143.091 684.107 142.296 684.107 141.4C684.107 140.493 683.904 139.699 683.499 139.016C683.093 138.333 682.523 137.8 681.787 137.416C681.061 137.021 680.203 136.824 679.211 136.824H675.899V145.976ZM686.577 147V146.184L691.233 141.624C691.66 141.208 691.98 140.845 692.193 140.536C692.406 140.216 692.55 139.917 692.625 139.64C692.7 139.363 692.737 139.101 692.737 138.856C692.737 138.205 692.513 137.693 692.065 137.32C691.628 136.947 690.977 136.76 690.113 136.76C689.452 136.76 688.865 136.861 688.353 137.064C687.852 137.267 687.42 137.581 687.057 138.008L686.241 137.304C686.678 136.792 687.238 136.397 687.921 136.12C688.604 135.843 689.366 135.704 690.209 135.704C690.966 135.704 691.622 135.827 692.177 136.072C692.732 136.307 693.158 136.653 693.457 137.112C693.766 137.571 693.921 138.109 693.921 138.728C693.921 139.091 693.868 139.448 693.761 139.8C693.665 140.152 693.484 140.525 693.217 140.92C692.961 141.304 692.582 141.741 692.081 142.232L687.809 146.424L687.489 145.976H694.433V147H686.577ZM700.312 147.096C699.448 147.096 698.68 146.872 698.008 146.424C697.336 145.965 696.808 145.315 696.424 144.472C696.04 143.619 695.848 142.595 695.848 141.4C695.848 140.205 696.04 139.187 696.424 138.344C696.808 137.491 697.336 136.84 698.008 136.392C698.68 135.933 699.448 135.704 700.312 135.704C701.176 135.704 701.944 135.933 702.616 136.392C703.288 136.84 703.816 137.491 704.2 138.344C704.594 139.187 704.792 140.205 704.792 141.4C704.792 142.595 704.594 143.619 704.2 144.472C703.816 145.315 703.288 145.965 702.616 146.424C701.944 146.872 701.176 147.096 700.312 147.096ZM700.312 146.04C700.973 146.04 701.549 145.864 702.04 145.512C702.53 145.149 702.914 144.627 703.192 143.944C703.469 143.251 703.608 142.403 703.608 141.4C703.608 140.397 703.469 139.555 703.192 138.872C702.914 138.179 702.53 137.656 702.04 137.304C701.549 136.941 700.973 136.76 700.312 136.76C699.672 136.76 699.101 136.941 698.6 137.304C698.098 137.656 697.709 138.179 697.432 138.872C697.154 139.555 697.016 140.397 697.016 141.4C697.016 142.403 697.154 143.251 697.432 143.944C697.709 144.627 698.098 145.149 698.6 145.512C699.101 145.864 699.672 146.04 700.312 146.04Z" fill="#FFFBE6"/>
<path d="M669.5 124.5C696.562 124.5 718.5 102.562 718.5 75.5C718.5 48.438 696.562 26.5 669.5 26.5C642.438 26.5 620.5 48.438 620.5 75.5C620.5 102.562 642.438 124.5 669.5 124.5Z" fill="#F72D20" stroke="#1D0D0C"/>
<path d="M644.24 16.0799C643.451 16.0799 642.843 15.8666 642.416 15.4399C641.989 15.0132 641.776 14.4106 641.776 13.6319V5.7439H642.911V13.5679C642.911 14.0586 643.035 14.4372 643.28 14.7039C643.536 14.9706 643.898 15.1039 644.367 15.1039C644.868 15.1039 645.285 14.9599 645.616 14.6719L646.016 15.4879C645.792 15.6906 645.52 15.8399 645.2 15.9359C644.891 16.0319 644.571 16.0799 644.24 16.0799ZM640.271 8.5439V7.5999H645.471V8.5439H640.271ZM651.211 16.0799C650.4 16.0799 649.669 15.8986 649.018 15.5359C648.378 15.1626 647.872 14.6559 647.499 14.0159C647.126 13.3652 646.939 12.6239 646.939 11.7919C646.939 10.9492 647.126 10.2079 647.499 9.5679C647.872 8.9279 648.378 8.42657 649.018 8.0639C649.658 7.70123 650.39 7.5199 651.211 7.5199C652.043 7.5199 652.779 7.70123 653.419 8.0639C654.07 8.42657 654.576 8.9279 654.939 9.5679C655.312 10.2079 655.499 10.9492 655.499 11.7919C655.499 12.6239 655.312 13.3652 654.939 14.0159C654.576 14.6559 654.07 15.1626 653.419 15.5359C652.768 15.8986 652.032 16.0799 651.211 16.0799ZM651.211 15.0719C651.819 15.0719 652.358 14.9386 652.827 14.6719C653.296 14.3946 653.664 14.0106 653.931 13.5199C654.208 13.0186 654.346 12.4426 654.346 11.7919C654.346 11.1306 654.208 10.5546 653.931 10.0639C653.664 9.57323 653.296 9.19457 652.827 8.9279C652.358 8.65057 651.824 8.5119 651.227 8.5119C650.63 8.5119 650.096 8.65057 649.627 8.9279C649.158 9.19457 648.784 9.57323 648.507 10.0639C648.23 10.5546 648.091 11.1306 648.091 11.7919C648.091 12.4426 648.23 13.0186 648.507 13.5199C648.784 14.0106 649.158 14.3946 649.627 14.6719C650.096 14.9386 650.624 15.0719 651.211 15.0719ZM668.314 7.5199C668.997 7.5199 669.589 7.65323 670.09 7.9199C670.602 8.1759 670.996 8.57057 671.273 9.1039C671.561 9.63723 671.706 10.3092 671.706 11.1199V15.9999H670.57V11.2319C670.57 10.3466 670.357 9.6799 669.93 9.2319C669.514 8.77323 668.922 8.5439 668.154 8.5439C667.578 8.5439 667.077 8.66657 666.65 8.9119C666.234 9.14657 665.909 9.49323 665.674 9.9519C665.45 10.3999 665.338 10.9439 665.338 11.5839V15.9999H664.202V11.2319C664.202 10.3466 663.989 9.6799 663.562 9.2319C663.136 8.77323 662.538 8.5439 661.77 8.5439C661.205 8.5439 660.708 8.66657 660.281 8.9119C659.855 9.14657 659.524 9.49323 659.289 9.9519C659.065 10.3999 658.953 10.9439 658.953 11.5839V15.9999H657.818V7.5999H658.906V9.8719L658.729 9.4719C658.985 8.8639 659.396 8.38923 659.961 8.0479C660.537 7.6959 661.216 7.5199 661.994 7.5199C662.816 7.5199 663.514 7.7279 664.09 8.1439C664.666 8.54923 665.04 9.16257 665.21 9.9839L664.762 9.8079C665.008 9.12523 665.439 8.5759 666.057 8.1599C666.687 7.73323 667.44 7.5199 668.314 7.5199ZM680.051 15.9999V14.1439L680.003 13.8399V10.7359C680.003 10.0212 679.8 9.4719 679.395 9.0879C679 8.7039 678.408 8.5119 677.619 8.5119C677.075 8.5119 676.558 8.60257 676.067 8.7839C675.576 8.96523 675.159 9.20523 674.818 9.5039L674.307 8.6559C674.734 8.29323 675.246 8.0159 675.843 7.8239C676.44 7.62123 677.07 7.5199 677.731 7.5199C678.819 7.5199 679.655 7.7919 680.242 8.3359C680.839 8.86923 681.138 9.68523 681.138 10.7839V15.9999H680.051ZM677.155 16.0799C676.526 16.0799 675.976 15.9786 675.507 15.7759C675.048 15.5626 674.695 15.2746 674.451 14.9119C674.206 14.5386 674.083 14.1119 674.083 13.6319C674.083 13.1946 674.184 12.7999 674.387 12.4479C674.6 12.0852 674.942 11.7972 675.411 11.5839C675.891 11.3599 676.531 11.2479 677.331 11.2479H680.227V12.0959H677.362C676.551 12.0959 675.987 12.2399 675.667 12.5279C675.358 12.8159 675.203 13.1732 675.203 13.5999C675.203 14.0799 675.39 14.4639 675.763 14.7519C676.136 15.0399 676.659 15.1839 677.331 15.1839C677.971 15.1839 678.52 15.0399 678.979 14.7519C679.448 14.4532 679.79 14.0266 680.003 13.4719L680.258 14.2559C680.045 14.8106 679.671 15.2532 679.138 15.5839C678.615 15.9146 677.955 16.0799 677.155 16.0799ZM686.88 16.0799C686.09 16.0799 685.483 15.8666 685.057 15.4399C684.63 15.0132 684.417 14.4106 684.417 13.6319V5.7439H685.552V13.5679C685.552 14.0586 685.675 14.4372 685.921 14.7039C686.177 14.9706 686.538 15.1039 687.008 15.1039C687.509 15.1039 687.926 14.9599 688.257 14.6719L688.656 15.4879C688.432 15.6906 688.161 15.8399 687.841 15.9359C687.531 16.0319 687.21 16.0799 686.88 16.0799ZM682.913 8.5439V7.5999H688.112V8.5439H682.913ZM693.852 16.0799C693.041 16.0799 692.309 15.8986 691.659 15.5359C691.019 15.1626 690.513 14.6559 690.14 14.0159C689.766 13.3652 689.58 12.6239 689.58 11.7919C689.58 10.9492 689.766 10.2079 690.14 9.5679C690.513 8.9279 691.019 8.42657 691.659 8.0639C692.299 7.70123 693.03 7.5199 693.852 7.5199C694.684 7.5199 695.42 7.70123 696.06 8.0639C696.71 8.42657 697.217 8.9279 697.58 9.5679C697.953 10.2079 698.14 10.9492 698.14 11.7919C698.14 12.6239 697.953 13.3652 697.58 14.0159C697.217 14.6559 696.71 15.1626 696.06 15.5359C695.409 15.8986 694.673 16.0799 693.852 16.0799ZM693.852 15.0719C694.46 15.0719 694.998 14.9386 695.468 14.6719C695.937 14.3946 696.305 14.0106 696.572 13.5199C696.849 13.0186 696.987 12.4426 696.987 11.7919C696.987 11.1306 696.849 10.5546 696.572 10.0639C696.305 9.57323 695.937 9.19457 695.468 8.9279C694.998 8.65057 694.464 8.5119 693.867 8.5119C693.269 8.5119 692.737 8.65057 692.268 8.9279C691.798 9.19457 691.425 9.57323 691.148 10.0639C690.87 10.5546 690.732 11.1306 690.732 11.7919C690.732 12.4426 690.87 13.0186 691.148 13.5199C691.425 14.0106 691.798 14.3946 692.268 14.6719C692.737 14.9386 693.264 15.0719 693.852 15.0719Z" fill="#FFFBE6"/>
<path d="M517.528 147L518.904 135.8H519.768L518.392 147H517.528ZM511.464 143.96V143.08H521.144V143.96H511.464ZM513.368 147L514.744 135.8H515.624L514.232 147H513.368ZM511.976 139.72V138.84H521.656V139.72H511.976ZM526.317 147.096C525.506 147.096 524.738 146.968 524.013 146.712C523.298 146.445 522.722 146.093 522.285 145.656L522.845 144.744C523.207 145.117 523.693 145.427 524.301 145.672C524.919 145.917 525.591 146.04 526.317 146.04C527.245 146.04 527.954 145.837 528.445 145.432C528.946 145.027 529.197 144.483 529.197 143.8C529.197 143.117 528.951 142.573 528.461 142.168C527.981 141.763 527.218 141.56 526.173 141.56H525.373V140.712L528.829 136.376L528.989 136.824H522.749V135.8H529.949V136.616L526.493 140.952L525.933 140.584H526.365C527.709 140.584 528.711 140.883 529.373 141.48C530.045 142.077 530.381 142.845 530.381 143.784C530.381 144.413 530.231 144.979 529.933 145.48C529.634 145.981 529.181 146.376 528.573 146.664C527.975 146.952 527.223 147.096 526.317 147.096ZM535.384 147.096C534.584 147.096 533.821 146.968 533.096 146.712C532.37 146.445 531.794 146.093 531.368 145.656L531.928 144.744C532.28 145.117 532.76 145.427 533.368 145.672C533.986 145.917 534.653 146.04 535.368 146.04C536.317 146.04 537.037 145.832 537.528 145.416C538.029 144.989 538.28 144.435 538.28 143.752C538.28 143.272 538.162 142.861 537.928 142.52C537.704 142.168 537.32 141.896 536.776 141.704C536.232 141.512 535.485 141.416 534.536 141.416H532.152L532.728 135.8H538.856V136.824H533.192L533.784 136.264L533.288 140.968L532.696 140.392H534.792C535.922 140.392 536.829 140.531 537.512 140.808C538.194 141.085 538.685 141.475 538.984 141.976C539.293 142.467 539.448 143.043 539.448 143.704C539.448 144.333 539.298 144.909 539 145.432C538.701 145.944 538.253 146.349 537.656 146.648C537.058 146.947 536.301 147.096 535.384 147.096ZM545.502 147.096C544.51 147.096 543.673 146.877 542.99 146.44C542.307 145.992 541.79 145.352 541.438 144.52C541.086 143.677 540.91 142.669 540.91 141.496C540.91 140.227 541.123 139.165 541.55 138.312C541.987 137.448 542.59 136.797 543.358 136.36C544.126 135.923 545.017 135.704 546.03 135.704C546.531 135.704 547.011 135.752 547.47 135.848C547.929 135.944 548.334 136.099 548.686 136.312L548.222 137.24C547.934 137.048 547.603 136.915 547.23 136.84C546.857 136.755 546.462 136.712 546.046 136.712C544.841 136.712 543.875 137.096 543.15 137.864C542.435 138.632 542.078 139.779 542.078 141.304C542.078 141.539 542.089 141.832 542.11 142.184C542.142 142.525 542.206 142.867 542.302 143.208L541.902 142.904C542.019 142.349 542.249 141.88 542.59 141.496C542.931 141.101 543.358 140.803 543.87 140.6C544.382 140.397 544.942 140.296 545.55 140.296C546.297 140.296 546.953 140.435 547.518 140.712C548.083 140.989 548.526 141.379 548.846 141.88C549.166 142.381 549.326 142.973 549.326 143.656C549.326 144.349 549.161 144.957 548.83 145.48C548.499 145.992 548.041 146.392 547.454 146.68C546.878 146.957 546.227 147.096 545.502 147.096ZM545.454 146.12C545.987 146.12 546.457 146.024 546.862 145.832C547.278 145.629 547.603 145.347 547.838 144.984C548.073 144.611 548.19 144.179 548.19 143.688C548.19 142.952 547.934 142.365 547.422 141.928C546.921 141.491 546.238 141.272 545.374 141.272C544.798 141.272 544.297 141.379 543.87 141.592C543.443 141.805 543.107 142.099 542.862 142.472C542.617 142.835 542.494 143.251 542.494 143.72C542.494 144.125 542.606 144.515 542.83 144.888C543.054 145.251 543.385 145.549 543.822 145.784C544.27 146.008 544.814 146.12 545.454 146.12ZM554.916 147.096C554.02 147.096 553.247 146.968 552.596 146.712C551.956 146.456 551.46 146.088 551.108 145.608C550.767 145.117 550.596 144.541 550.596 143.88C550.596 143.24 550.761 142.696 551.092 142.248C551.433 141.789 551.924 141.437 552.564 141.192C553.215 140.947 553.999 140.824 554.916 140.824C555.823 140.824 556.601 140.947 557.252 141.192C557.903 141.437 558.399 141.789 558.74 142.248C559.092 142.696 559.268 143.24 559.268 143.88C559.268 144.541 559.092 145.117 558.74 145.608C558.388 146.088 557.887 146.456 557.236 146.712C556.585 146.968 555.812 147.096 554.916 147.096ZM554.916 146.12C555.908 146.12 556.681 145.917 557.236 145.512C557.801 145.107 558.084 144.557 558.084 143.864C558.084 143.171 557.801 142.627 557.236 142.232C556.681 141.827 555.908 141.624 554.916 141.624C553.924 141.624 553.151 141.827 552.596 142.232C552.041 142.627 551.764 143.171 551.764 143.864C551.764 144.557 552.041 145.107 552.596 145.512C553.151 145.917 553.924 146.12 554.916 146.12ZM554.916 141.48C554.084 141.48 553.375 141.368 552.788 141.144C552.212 140.92 551.769 140.6 551.46 140.184C551.151 139.757 550.996 139.251 550.996 138.664C550.996 138.045 551.156 137.517 551.476 137.08C551.807 136.632 552.265 136.291 552.852 136.056C553.439 135.821 554.127 135.704 554.916 135.704C555.705 135.704 556.393 135.821 556.98 136.056C557.577 136.291 558.041 136.632 558.372 137.08C558.703 137.517 558.868 138.045 558.868 138.664C558.868 139.251 558.713 139.757 558.404 140.184C558.095 140.6 557.641 140.92 557.044 141.144C556.457 141.368 555.748 141.48 554.916 141.48ZM554.916 140.712C555.791 140.712 556.473 140.531 556.964 140.168C557.455 139.805 557.7 139.32 557.7 138.712C557.7 138.072 557.444 137.576 556.932 137.224C556.431 136.861 555.759 136.68 554.916 136.68C554.073 136.68 553.401 136.861 552.9 137.224C552.399 137.576 552.148 138.067 552.148 138.696C552.148 139.315 552.388 139.805 552.868 140.168C553.359 140.531 554.041 140.712 554.916 140.712ZM564.399 147.096C563.599 147.096 562.837 146.968 562.111 146.712C561.386 146.445 560.81 146.093 560.383 145.656L560.943 144.744C561.295 145.117 561.775 145.427 562.383 145.672C563.002 145.917 563.669 146.04 564.383 146.04C565.333 146.04 566.053 145.832 566.543 145.416C567.045 144.989 567.295 144.435 567.295 143.752C567.295 143.272 567.178 142.861 566.943 142.52C566.719 142.168 566.335 141.896 565.791 141.704C565.247 141.512 564.501 141.416 563.551 141.416H561.167L561.743 135.8H567.871V136.824H562.207L562.799 136.264L562.303 140.968L561.711 140.392H563.807C564.938 140.392 565.845 140.531 566.527 140.808C567.21 141.085 567.701 141.475 567.999 141.976C568.309 142.467 568.463 143.043 568.463 143.704C568.463 144.333 568.314 144.909 568.015 145.432C567.717 145.944 567.269 146.349 566.671 146.648C566.074 146.947 565.317 147.096 564.399 147.096ZM573.414 135.704C574.406 135.704 575.243 135.928 575.926 136.376C576.608 136.813 577.126 137.448 577.478 138.28C577.83 139.112 578.006 140.12 578.006 141.304C578.006 142.563 577.787 143.624 577.35 144.488C576.923 145.352 576.326 146.003 575.558 146.44C574.79 146.877 573.899 147.096 572.886 147.096C572.384 147.096 571.904 147.048 571.446 146.952C570.998 146.856 570.592 146.701 570.23 146.488L570.694 145.56C570.982 145.752 571.312 145.891 571.686 145.976C572.07 146.051 572.464 146.088 572.87 146.088C574.075 146.088 575.035 145.704 575.75 144.936C576.475 144.168 576.838 143.021 576.838 141.496C576.838 141.251 576.822 140.957 576.79 140.616C576.768 140.275 576.71 139.933 576.614 139.592L577.014 139.896C576.907 140.451 576.678 140.925 576.326 141.32C575.984 141.704 575.558 141.997 575.046 142.2C574.544 142.403 573.984 142.504 573.366 142.504C572.63 142.504 571.974 142.365 571.398 142.088C570.832 141.811 570.39 141.421 570.07 140.92C569.75 140.419 569.59 139.827 569.59 139.144C569.59 138.44 569.755 137.832 570.086 137.32C570.416 136.808 570.87 136.413 571.446 136.136C572.032 135.848 572.688 135.704 573.414 135.704ZM573.462 136.68C572.928 136.68 572.454 136.781 572.038 136.984C571.632 137.176 571.312 137.453 571.078 137.816C570.843 138.179 570.726 138.611 570.726 139.112C570.726 139.848 570.976 140.435 571.478 140.872C571.99 141.309 572.678 141.528 573.542 141.528C574.118 141.528 574.619 141.421 575.046 141.208C575.483 140.995 575.819 140.701 576.054 140.328C576.299 139.955 576.422 139.539 576.422 139.08C576.422 138.664 576.31 138.275 576.086 137.912C575.862 137.549 575.531 137.256 575.094 137.032C574.656 136.797 574.112 136.68 573.462 136.68Z" fill="#FFFBE6"/>
<path d="M545.5 124.5C572.562 124.5 594.5 102.562 594.5 75.5C594.5 48.438 572.562 26.5 545.5 26.5C518.438 26.5 496.5 48.438 496.5 75.5C496.5 102.562 518.438 124.5 545.5 124.5Z" fill="#356859" stroke="#1D0D0C"/>
<path d="M531.008 16.0799C530.197 16.0799 529.467 15.8986 528.816 15.5359C528.176 15.1626 527.669 14.6559 527.296 14.0159C526.923 13.3652 526.736 12.6239 526.736 11.7919C526.736 10.9492 526.923 10.2079 527.296 9.56793C527.669 8.92793 528.176 8.4266 528.816 8.06393C529.456 7.70126 530.187 7.51993 531.008 7.51993C531.84 7.51993 532.576 7.70126 533.216 8.06393C533.867 8.4266 534.373 8.92793 534.736 9.56793C535.109 10.2079 535.296 10.9492 535.296 11.7919C535.296 12.6239 535.109 13.3652 534.736 14.0159C534.373 14.6559 533.867 15.1626 533.216 15.5359C532.565 15.8986 531.829 16.0799 531.008 16.0799ZM531.008 15.0719C531.616 15.0719 532.155 14.9386 532.624 14.6719C533.093 14.3946 533.461 14.0106 533.728 13.5199C534.005 13.0186 534.144 12.4426 534.144 11.7919C534.144 11.1306 534.005 10.5546 533.728 10.0639C533.461 9.57326 533.093 9.1946 532.624 8.92793C532.155 8.6506 531.621 8.51193 531.024 8.51193C530.427 8.51193 529.893 8.6506 529.424 8.92793C528.955 9.1946 528.581 9.57326 528.304 10.0639C528.027 10.5546 527.888 11.1306 527.888 11.7919C527.888 12.4426 528.027 13.0186 528.304 13.5199C528.581 14.0106 528.955 14.3946 529.424 14.6719C529.893 14.9386 530.421 15.0719 531.008 15.0719ZM537.615 15.9999V4.12793H538.751V15.9999H537.615ZM541.912 15.9999V7.59993H543.048V15.9999H541.912ZM542.488 5.74393C542.253 5.74393 542.056 5.66393 541.896 5.50393C541.736 5.34393 541.656 5.15193 541.656 4.92793C541.656 4.70393 541.736 4.51726 541.896 4.36793C542.056 4.20793 542.253 4.12793 542.488 4.12793C542.723 4.12793 542.92 4.2026 543.08 4.35193C543.24 4.50126 543.32 4.68793 543.32 4.91193C543.32 5.1466 543.24 5.34393 543.08 5.50393C542.931 5.66393 542.733 5.74393 542.488 5.74393ZM548.369 15.9999L544.641 7.59993H545.825L549.249 15.3919H548.689L552.161 7.59993H553.281L549.537 15.9999H548.369ZM558.215 16.0799C557.34 16.0799 556.572 15.8986 555.911 15.5359C555.249 15.1626 554.732 14.6559 554.359 14.0159C553.985 13.3652 553.799 12.6239 553.799 11.7919C553.799 10.9599 553.975 10.2239 554.327 9.58393C554.689 8.94393 555.18 8.4426 555.799 8.07993C556.428 7.7066 557.132 7.51993 557.911 7.51993C558.7 7.51993 559.399 7.70126 560.007 8.06393C560.625 8.41593 561.111 8.91726 561.463 9.56793C561.815 10.2079 561.991 10.9492 561.991 11.7919C561.991 11.8452 561.985 11.9039 561.975 11.9679C561.975 12.0212 561.975 12.0799 561.975 12.1439H554.663V11.2959H561.367L560.919 11.6319C560.919 11.0239 560.785 10.4852 560.519 10.0159C560.263 9.53593 559.911 9.1626 559.463 8.89593C559.015 8.62926 558.497 8.49593 557.911 8.49593C557.335 8.49593 556.817 8.62926 556.359 8.89593C555.9 9.1626 555.543 9.53593 555.287 10.0159C555.031 10.4959 554.903 11.0452 554.903 11.6639V11.8399C554.903 12.4799 555.041 13.0452 555.319 13.5359C555.607 14.0159 556.001 14.3946 556.503 14.6719C557.015 14.9386 557.596 15.0719 558.247 15.0719C558.759 15.0719 559.233 14.9812 559.671 14.7999C560.119 14.6186 560.503 14.3412 560.823 13.9679L561.463 14.7039C561.089 15.1519 560.62 15.4932 560.055 15.7279C559.5 15.9626 558.887 16.0799 558.215 16.0799Z" fill="#FFFBE6"/>
<path d="M393.528 147L394.904 135.8H395.768L394.392 147H393.528ZM387.464 143.96V143.08H397.144V143.96H387.464ZM389.368 147L390.744 135.8H391.624L390.232 147H389.368ZM387.976 139.72V138.84H397.656V139.72H387.976ZM402.317 147.096C401.506 147.096 400.738 146.968 400.013 146.712C399.298 146.445 398.722 146.093 398.285 145.656L398.845 144.744C399.207 145.117 399.693 145.427 400.301 145.672C400.919 145.917 401.591 146.04 402.317 146.04C403.245 146.04 403.954 145.837 404.445 145.432C404.946 145.027 405.197 144.483 405.197 143.8C405.197 143.117 404.951 142.573 404.461 142.168C403.981 141.763 403.218 141.56 402.173 141.56H401.373V140.712L404.829 136.376L404.989 136.824H398.749V135.8H405.949V136.616L402.493 140.952L401.933 140.584H402.365C403.709 140.584 404.711 140.883 405.373 141.48C406.045 142.077 406.381 142.845 406.381 143.784C406.381 144.413 406.231 144.979 405.933 145.48C405.634 145.981 405.181 146.376 404.573 146.664C403.975 146.952 403.223 147.096 402.317 147.096ZM409.769 147L414.601 136.312L414.953 136.824H408.025L408.617 136.264V138.92H407.481V135.8H415.705V136.616L411.017 147H409.769ZM420.711 135.704C421.703 135.704 422.54 135.928 423.223 136.376C423.905 136.813 424.423 137.448 424.775 138.28C425.127 139.112 425.303 140.12 425.303 141.304C425.303 142.563 425.084 143.624 424.647 144.488C424.22 145.352 423.623 146.003 422.855 146.44C422.087 146.877 421.196 147.096 420.183 147.096C419.681 147.096 419.201 147.048 418.743 146.952C418.295 146.856 417.889 146.701 417.527 146.488L417.991 145.56C418.279 145.752 418.609 145.891 418.983 145.976C419.367 146.051 419.761 146.088 420.167 146.088C421.372 146.088 422.332 145.704 423.047 144.936C423.772 144.168 424.135 143.021 424.135 141.496C424.135 141.251 424.119 140.957 424.087 140.616C424.065 140.275 424.007 139.933 423.911 139.592L424.311 139.896C424.204 140.451 423.975 140.925 423.623 141.32C423.281 141.704 422.855 141.997 422.343 142.2C421.841 142.403 421.281 142.504 420.663 142.504C419.927 142.504 419.271 142.365 418.695 142.088C418.129 141.811 417.687 141.421 417.367 140.92C417.047 140.419 416.887 139.827 416.887 139.144C416.887 138.44 417.052 137.832 417.383 137.32C417.713 136.808 418.167 136.413 418.743 136.136C419.329 135.848 419.985 135.704 420.711 135.704ZM420.759 136.68C420.225 136.68 419.751 136.781 419.335 136.984C418.929 137.176 418.609 137.453 418.375 137.816C418.14 138.179 418.023 138.611 418.023 139.112C418.023 139.848 418.273 140.435 418.775 140.872C419.287 141.309 419.975 141.528 420.839 141.528C421.415 141.528 421.916 141.421 422.343 141.208C422.78 140.995 423.116 140.701 423.351 140.328C423.596 139.955 423.719 139.539 423.719 139.08C423.719 138.664 423.607 138.275 423.383 137.912C423.159 137.549 422.828 137.256 422.391 137.032C421.953 136.797 421.409 136.68 420.759 136.68ZM431.565 147.096C430.573 147.096 429.735 146.877 429.053 146.44C428.37 145.992 427.853 145.352 427.501 144.52C427.149 143.677 426.973 142.669 426.973 141.496C426.973 140.227 427.186 139.165 427.613 138.312C428.05 137.448 428.653 136.797 429.421 136.36C430.189 135.923 431.079 135.704 432.093 135.704C432.594 135.704 433.074 135.752 433.533 135.848C433.991 135.944 434.397 136.099 434.749 136.312L434.285 137.24C433.997 137.048 433.666 136.915 433.293 136.84C432.919 136.755 432.525 136.712 432.109 136.712C430.903 136.712 429.938 137.096 429.213 137.864C428.498 138.632 428.141 139.779 428.141 141.304C428.141 141.539 428.151 141.832 428.173 142.184C428.205 142.525 428.269 142.867 428.365 143.208L427.965 142.904C428.082 142.349 428.311 141.88 428.653 141.496C428.994 141.101 429.421 140.803 429.933 140.6C430.445 140.397 431.005 140.296 431.613 140.296C432.359 140.296 433.015 140.435 433.581 140.712C434.146 140.989 434.589 141.379 434.909 141.88C435.229 142.381 435.389 142.973 435.389 143.656C435.389 144.349 435.223 144.957 434.893 145.48C434.562 145.992 434.103 146.392 433.517 146.68C432.941 146.957 432.29 147.096 431.565 147.096ZM431.517 146.12C432.05 146.12 432.519 146.024 432.925 145.832C433.341 145.629 433.666 145.347 433.901 144.984C434.135 144.611 434.253 144.179 434.253 143.688C434.253 142.952 433.997 142.365 433.485 141.928C432.983 141.491 432.301 141.272 431.437 141.272C430.861 141.272 430.359 141.379 429.933 141.592C429.506 141.805 429.17 142.099 428.925 142.472C428.679 142.835 428.557 143.251 428.557 143.72C428.557 144.125 428.669 144.515 428.893 144.888C429.117 145.251 429.447 145.549 429.885 145.784C430.333 146.008 430.877 146.12 431.517 146.12ZM441.315 147.096C440.323 147.096 439.485 146.877 438.803 146.44C438.12 145.992 437.603 145.352 437.251 144.52C436.899 143.677 436.723 142.669 436.723 141.496C436.723 140.227 436.936 139.165 437.363 138.312C437.8 137.448 438.403 136.797 439.171 136.36C439.939 135.923 440.829 135.704 441.843 135.704C442.344 135.704 442.824 135.752 443.283 135.848C443.741 135.944 444.147 136.099 444.499 136.312L444.035 137.24C443.747 137.048 443.416 136.915 443.043 136.84C442.669 136.755 442.275 136.712 441.859 136.712C440.653 136.712 439.688 137.096 438.963 137.864C438.248 138.632 437.891 139.779 437.891 141.304C437.891 141.539 437.901 141.832 437.923 142.184C437.955 142.525 438.019 142.867 438.115 143.208L437.715 142.904C437.832 142.349 438.061 141.88 438.403 141.496C438.744 141.101 439.171 140.803 439.683 140.6C440.195 140.397 440.755 140.296 441.363 140.296C442.109 140.296 442.765 140.435 443.331 140.712C443.896 140.989 444.339 141.379 444.659 141.88C444.979 142.381 445.139 142.973 445.139 143.656C445.139 144.349 444.973 144.957 444.643 145.48C444.312 145.992 443.853 146.392 443.267 146.68C442.691 146.957 442.04 147.096 441.315 147.096ZM441.267 146.12C441.8 146.12 442.269 146.024 442.675 145.832C443.091 145.629 443.416 145.347 443.651 144.984C443.885 144.611 444.003 144.179 444.003 143.688C444.003 142.952 443.747 142.365 443.235 141.928C442.733 141.491 442.051 141.272 441.187 141.272C440.611 141.272 440.109 141.379 439.683 141.592C439.256 141.805 438.92 142.099 438.675 142.472C438.429 142.835 438.307 143.251 438.307 143.72C438.307 144.125 438.419 144.515 438.643 144.888C438.867 145.251 439.197 145.549 439.635 145.784C440.083 146.008 440.627 146.12 441.267 146.12ZM448.521 141.224H454.441V142.248H448.521V141.224ZM448.649 147H447.465V135.8H455.145V136.824H448.649V147Z" fill="#FFFBE6"/>
<path d="M421.5 124.5C448.562 124.5 470.5 102.562 470.5 75.5C470.5 48.438 448.562 26.5 421.5 26.5C394.438 26.5 372.5 48.438 372.5 75.5C372.5 102.562 394.438 124.5 421.5 124.5Z" fill="#37966F" stroke="#1D0D0C"/>
<path d="M405.84 16.08C405.147 16.08 404.491 15.984 403.872 15.792C403.253 15.5893 402.768 15.3387 402.416 15.04L402.928 14.144C403.269 14.4 403.707 14.624 404.24 14.816C404.773 14.9973 405.333 15.088 405.92 15.088C406.72 15.088 407.296 14.9653 407.648 14.72C408 14.464 408.176 14.128 408.176 13.712C408.176 13.4027 408.075 13.1627 407.872 12.992C407.68 12.8107 407.424 12.6773 407.104 12.592C406.784 12.496 406.427 12.416 406.032 12.352C405.637 12.288 405.243 12.2133 404.848 12.128C404.464 12.0427 404.112 11.92 403.792 11.76C403.472 11.5893 403.211 11.36 403.008 11.072C402.816 10.784 402.72 10.4 402.72 9.92002C402.72 9.46135 402.848 9.05069 403.104 8.68802C403.36 8.32535 403.733 8.04269 404.224 7.84002C404.725 7.62669 405.333 7.52002 406.048 7.52002C406.592 7.52002 407.136 7.59469 407.68 7.74402C408.224 7.88269 408.672 8.06935 409.024 8.30402L408.528 9.21602C408.155 8.96002 407.755 8.77869 407.328 8.67202C406.901 8.55469 406.475 8.49602 406.048 8.49602C405.291 8.49602 404.731 8.62935 404.368 8.89602C404.016 9.15202 403.84 9.48269 403.84 9.88802C403.84 10.208 403.936 10.4587 404.128 10.64C404.331 10.8213 404.592 10.9653 404.912 11.072C405.243 11.168 405.6 11.248 405.984 11.312C406.379 11.376 406.768 11.456 407.152 11.552C407.547 11.6373 407.904 11.76 408.224 11.92C408.555 12.0693 408.816 12.288 409.008 12.576C409.211 12.8533 409.312 13.2213 409.312 13.68C409.312 14.1707 409.173 14.5973 408.896 14.96C408.629 15.312 408.235 15.5893 407.712 15.792C407.2 15.984 406.576 16.08 405.84 16.08ZM416.661 16V14.144L416.613 13.84V10.736C416.613 10.0213 416.41 9.47202 416.005 9.08802C415.61 8.70402 415.018 8.51202 414.229 8.51202C413.685 8.51202 413.167 8.60269 412.677 8.78402C412.186 8.96535 411.77 9.20535 411.429 9.50402L410.917 8.65602C411.343 8.29335 411.855 8.01602 412.453 7.82402C413.05 7.62135 413.679 7.52002 414.341 7.52002C415.429 7.52002 416.266 7.79202 416.853 8.33602C417.45 8.86935 417.749 9.68535 417.749 10.784V16H416.661ZM413.765 16.08C413.135 16.08 412.586 15.9787 412.117 15.776C411.658 15.5627 411.306 15.2747 411.061 14.912C410.815 14.5387 410.693 14.112 410.693 13.632C410.693 13.1947 410.794 12.8 410.997 12.448C411.21 12.0853 411.551 11.7973 412.021 11.584C412.501 11.36 413.141 11.248 413.941 11.248H416.837V12.096H413.973C413.162 12.096 412.597 12.24 412.277 12.528C411.967 12.816 411.812 13.1733 411.812 13.6C411.812 14.08 411.999 14.464 412.373 14.752C412.746 15.04 413.269 15.184 413.941 15.184C414.581 15.184 415.13 15.04 415.589 14.752C416.058 14.4533 416.399 14.0267 416.613 13.472L416.869 14.256C416.655 14.8107 416.282 15.2533 415.749 15.584C415.226 15.9147 414.565 16.08 413.765 16.08ZM424.418 19.184C423.65 19.184 422.914 19.072 422.21 18.848C421.506 18.624 420.935 18.304 420.498 17.888L421.074 17.024C421.469 17.376 421.954 17.6533 422.53 17.856C423.117 18.0693 423.735 18.176 424.386 18.176C425.453 18.176 426.237 17.9253 426.738 17.424C427.239 16.9333 427.49 16.1653 427.49 15.12V13.024L427.65 11.584L427.538 10.144V7.60002H428.626V14.976C428.626 16.4267 428.269 17.488 427.554 18.16C426.85 18.8427 425.805 19.184 424.418 19.184ZM424.21 15.68C423.41 15.68 422.69 15.5093 422.05 15.168C421.41 14.816 420.903 14.3307 420.53 13.712C420.167 13.0933 419.986 12.384 419.986 11.584C419.986 10.784 420.167 10.08 420.53 9.47202C420.903 8.85335 421.41 8.37335 422.05 8.03202C422.69 7.69069 423.41 7.52002 424.21 7.52002C424.957 7.52002 425.629 7.67469 426.226 7.98402C426.823 8.29335 427.298 8.75202 427.65 9.36002C428.002 9.96802 428.178 10.7093 428.178 11.584C428.178 12.4587 428.002 13.2 427.65 13.808C427.298 14.416 426.823 14.88 426.226 15.2C425.629 15.52 424.957 15.68 424.21 15.68ZM424.322 14.672C424.941 14.672 425.49 14.544 425.97 14.288C426.45 14.0213 426.829 13.6587 427.106 13.2C427.383 12.7307 427.522 12.192 427.522 11.584C427.522 10.976 427.383 10.4427 427.106 9.98402C426.829 9.52535 426.45 9.16802 425.97 8.91202C425.49 8.64535 424.941 8.51202 424.322 8.51202C423.714 8.51202 423.165 8.64535 422.674 8.91202C422.194 9.16802 421.815 9.52535 421.538 9.98402C421.271 10.4427 421.138 10.976 421.138 11.584C421.138 12.192 421.271 12.7307 421.538 13.2C421.815 13.6587 422.194 14.0213 422.674 14.288C423.165 14.544 423.714 14.672 424.322 14.672ZM435.355 16.08C434.48 16.08 433.712 15.8987 433.051 15.536C432.39 15.1627 431.872 14.656 431.499 14.016C431.126 13.3653 430.939 12.624 430.939 11.792C430.939 10.96 431.115 10.224 431.467 9.58402C431.83 8.94402 432.32 8.44269 432.939 8.08002C433.568 7.70669 434.272 7.52002 435.051 7.52002C435.84 7.52002 436.539 7.70135 437.147 8.06402C437.766 8.41602 438.251 8.91735 438.603 9.56802C438.955 10.208 439.131 10.9493 439.131 11.792C439.131 11.8453 439.126 11.904 439.115 11.968C439.115 12.0213 439.115 12.08 439.115 12.144H431.803V11.296H438.507L438.059 11.632C438.059 11.024 437.926 10.4853 437.659 10.016C437.403 9.53602 437.051 9.16269 436.603 8.89602C436.155 8.62935 435.638 8.49602 435.051 8.49602C434.475 8.49602 433.958 8.62935 433.499 8.89602C433.04 9.16269 432.683 9.53602 432.427 10.016C432.171 10.496 432.043 11.0453 432.043 11.664V11.84C432.043 12.48 432.182 13.0453 432.459 13.536C432.747 14.016 433.142 14.3947 433.643 14.672C434.155 14.9387 434.736 15.072 435.387 15.072C435.899 15.072 436.374 14.9813 436.811 14.8C437.259 14.6187 437.643 14.3413 437.963 13.968L438.603 14.704C438.23 15.152 437.76 15.4933 437.195 15.728C436.64 15.9627 436.027 16.08 435.355 16.08Z" fill="#FFFBE6"/>
<path d="M266.528 147L267.904 135.8H268.768L267.392 147H266.528ZM260.464 143.96V143.08H270.144V143.96H260.464ZM262.368 147L263.744 135.8H264.624L263.232 147H262.368ZM260.976 139.72V138.84H270.656V139.72H260.976ZM272.965 147V135.8H277.797C279.045 135.8 280.01 136.051 280.693 136.552C281.386 137.053 281.733 137.763 281.733 138.68C281.733 139.288 281.589 139.8 281.301 140.216C281.023 140.632 280.639 140.947 280.149 141.16C279.669 141.373 279.141 141.48 278.565 141.48L278.837 141.096C279.551 141.096 280.165 141.208 280.677 141.432C281.199 141.645 281.605 141.971 281.893 142.408C282.181 142.835 282.325 143.368 282.325 144.008C282.325 144.957 281.973 145.693 281.269 146.216C280.575 146.739 279.525 147 278.117 147H272.965ZM274.149 146.024H278.101C279.082 146.024 279.834 145.859 280.357 145.528C280.879 145.187 281.141 144.648 281.141 143.912C281.141 143.187 280.879 142.659 280.357 142.328C279.834 141.987 279.082 141.816 278.101 141.816H274.021V140.84H277.717C278.613 140.84 279.306 140.669 279.797 140.328C280.298 139.987 280.549 139.48 280.549 138.808C280.549 138.125 280.298 137.619 279.797 137.288C279.306 136.947 278.613 136.776 277.717 136.776H274.149V146.024ZM287.523 135.704C288.515 135.704 289.352 135.928 290.035 136.376C290.718 136.813 291.235 137.448 291.587 138.28C291.939 139.112 292.115 140.12 292.115 141.304C292.115 142.563 291.896 143.624 291.459 144.488C291.032 145.352 290.435 146.003 289.667 146.44C288.899 146.877 288.008 147.096 286.995 147.096C286.494 147.096 286.014 147.048 285.555 146.952C285.107 146.856 284.702 146.701 284.339 146.488L284.803 145.56C285.091 145.752 285.422 145.891 285.795 145.976C286.179 146.051 286.574 146.088 286.979 146.088C288.184 146.088 289.144 145.704 289.859 144.936C290.584 144.168 290.947 143.021 290.947 141.496C290.947 141.251 290.931 140.957 290.899 140.616C290.878 140.275 290.819 139.933 290.723 139.592L291.123 139.896C291.016 140.451 290.787 140.925 290.435 141.32C290.094 141.704 289.667 141.997 289.155 142.2C288.654 142.403 288.094 142.504 287.475 142.504C286.739 142.504 286.083 142.365 285.507 142.088C284.942 141.811 284.499 141.421 284.179 140.92C283.859 140.419 283.699 139.827 283.699 139.144C283.699 138.44 283.864 137.832 284.195 137.32C284.526 136.808 284.979 136.413 285.555 136.136C286.142 135.848 286.798 135.704 287.523 135.704ZM287.571 136.68C287.038 136.68 286.563 136.781 286.147 136.984C285.742 137.176 285.422 137.453 285.187 137.816C284.952 138.179 284.835 138.611 284.835 139.112C284.835 139.848 285.086 140.435 285.587 140.872C286.099 141.309 286.787 141.528 287.651 141.528C288.227 141.528 288.728 141.421 289.155 141.208C289.592 140.995 289.928 140.701 290.163 140.328C290.408 139.955 290.531 139.539 290.531 139.08C290.531 138.664 290.419 138.275 290.195 137.912C289.971 137.549 289.64 137.256 289.203 137.032C288.766 136.797 288.222 136.68 287.571 136.68ZM295.833 140.808H301.753V141.816H295.833V140.808ZM295.961 145.976H302.697V147H294.777V135.8H302.457V136.824H295.961V145.976ZM303.703 144.056V143.224L309.639 135.8H310.919L305.031 143.224L304.407 143.032H313.415V144.056H303.703ZM310.023 147V144.056L310.055 143.032V140.44H311.175V147H310.023ZM320.485 147.096C319.642 147.096 318.864 146.957 318.149 146.68C317.434 146.392 316.816 145.992 316.293 145.48C315.77 144.968 315.36 144.365 315.061 143.672C314.773 142.979 314.629 142.221 314.629 141.4C314.629 140.579 314.773 139.821 315.061 139.128C315.36 138.435 315.77 137.832 316.293 137.32C316.826 136.808 317.45 136.413 318.165 136.136C318.88 135.848 319.658 135.704 320.501 135.704C321.312 135.704 322.074 135.843 322.789 136.12C323.504 136.387 324.106 136.792 324.597 137.336L323.845 138.088C323.386 137.619 322.88 137.283 322.325 137.08C321.77 136.867 321.173 136.76 320.533 136.76C319.861 136.76 319.237 136.877 318.661 137.112C318.085 137.336 317.584 137.661 317.157 138.088C316.73 138.504 316.394 138.995 316.149 139.56C315.914 140.115 315.797 140.728 315.797 141.4C315.797 142.072 315.914 142.691 316.149 143.256C316.394 143.811 316.73 144.301 317.157 144.728C317.584 145.144 318.085 145.469 318.661 145.704C319.237 145.928 319.861 146.04 320.533 146.04C321.173 146.04 321.77 145.933 322.325 145.72C322.88 145.507 323.386 145.165 323.845 144.696L324.597 145.448C324.106 145.992 323.504 146.403 322.789 146.68C322.074 146.957 321.306 147.096 320.485 147.096ZM329.461 135.704C330.453 135.704 331.29 135.928 331.973 136.376C332.655 136.813 333.173 137.448 333.525 138.28C333.877 139.112 334.053 140.12 334.053 141.304C334.053 142.563 333.834 143.624 333.397 144.488C332.97 145.352 332.373 146.003 331.605 146.44C330.837 146.877 329.946 147.096 328.933 147.096C328.431 147.096 327.951 147.048 327.493 146.952C327.045 146.856 326.639 146.701 326.277 146.488L326.741 145.56C327.029 145.752 327.359 145.891 327.733 145.976C328.117 146.051 328.511 146.088 328.917 146.088C330.122 146.088 331.082 145.704 331.797 144.936C332.522 144.168 332.885 143.021 332.885 141.496C332.885 141.251 332.869 140.957 332.837 140.616C332.815 140.275 332.757 139.933 332.661 139.592L333.061 139.896C332.954 140.451 332.725 140.925 332.373 141.32C332.031 141.704 331.605 141.997 331.093 142.2C330.591 142.403 330.031 142.504 329.413 142.504C328.677 142.504 328.021 142.365 327.445 142.088C326.879 141.811 326.437 141.421 326.117 140.92C325.797 140.419 325.637 139.827 325.637 139.144C325.637 138.44 325.802 137.832 326.133 137.32C326.463 136.808 326.917 136.413 327.493 136.136C328.079 135.848 328.735 135.704 329.461 135.704ZM329.509 136.68C328.975 136.68 328.501 136.781 328.085 136.984C327.679 137.176 327.359 137.453 327.125 137.816C326.89 138.179 326.773 138.611 326.773 139.112C326.773 139.848 327.023 140.435 327.525 140.872C328.037 141.309 328.725 141.528 329.589 141.528C330.165 141.528 330.666 141.421 331.093 141.208C331.53 140.995 331.866 140.701 332.101 140.328C332.346 139.955 332.469 139.539 332.469 139.08C332.469 138.664 332.357 138.275 332.133 137.912C331.909 137.549 331.578 137.256 331.141 137.032C330.703 136.797 330.159 136.68 329.509 136.68Z" fill="#FFFBE6"/>
<path d="M297.5 124.5C324.562 124.5 346.5 102.562 346.5 75.5C346.5 48.438 324.562 26.5 297.5 26.5C270.438 26.5 248.5 48.438 248.5 75.5C248.5 102.562 270.438 124.5 297.5 124.5Z" fill="#B9E4C9" stroke="#1D0D0C"/>
<path d="M284.92 16.0799C284.184 16.0799 283.523 15.9146 282.936 15.5839C282.349 15.2426 281.885 14.7519 281.544 14.1119C281.203 13.4719 281.032 12.6986 281.032 11.7919C281.032 10.8746 281.203 10.1012 281.544 9.47193C281.896 8.83193 282.365 8.3466 282.952 8.01593C283.539 7.68526 284.195 7.51993 284.92 7.51993C285.72 7.51993 286.435 7.70126 287.064 8.06393C287.704 8.41593 288.205 8.91193 288.568 9.55193C288.931 10.1919 289.112 10.9386 289.112 11.7919C289.112 12.6346 288.931 13.3812 288.568 14.0319C288.205 14.6719 287.704 15.1732 287.064 15.5359C286.435 15.8986 285.72 16.0799 284.92 16.0799ZM280.584 15.9999V4.12793H281.72V10.0799L281.56 11.7759L281.672 13.4719V15.9999H280.584ZM284.84 15.0719C285.437 15.0719 285.971 14.9386 286.44 14.6719C286.909 14.3946 287.283 14.0106 287.56 13.5199C287.837 13.0186 287.976 12.4426 287.976 11.7919C287.976 11.1306 287.837 10.5546 287.56 10.0639C287.283 9.57326 286.909 9.1946 286.44 8.92793C285.971 8.6506 285.437 8.51193 284.84 8.51193C284.243 8.51193 283.704 8.6506 283.224 8.92793C282.755 9.1946 282.381 9.57326 282.104 10.0639C281.837 10.5546 281.704 11.1306 281.704 11.7919C281.704 12.4426 281.837 13.0186 282.104 13.5199C282.381 14.0106 282.755 14.3946 283.224 14.6719C283.704 14.9386 284.243 15.0719 284.84 15.0719ZM296.645 15.9999V14.1439L296.597 13.8399V10.7359C296.597 10.0212 296.394 9.47193 295.989 9.08793C295.594 8.70393 295.002 8.51193 294.213 8.51193C293.669 8.51193 293.152 8.6026 292.661 8.78393C292.17 8.96526 291.754 9.20526 291.413 9.50393L290.901 8.65593C291.328 8.29326 291.84 8.01593 292.437 7.82393C293.034 7.62126 293.664 7.51993 294.325 7.51993C295.413 7.51993 296.25 7.79193 296.837 8.33593C297.434 8.86926 297.733 9.68526 297.733 10.7839V15.9999H296.645ZM293.749 16.0799C293.12 16.0799 292.57 15.9786 292.101 15.7759C291.642 15.5626 291.29 15.2746 291.045 14.9119C290.8 14.5386 290.677 14.1119 290.677 13.6319C290.677 13.1946 290.778 12.7999 290.981 12.4479C291.194 12.0852 291.536 11.7972 292.005 11.5839C292.485 11.3599 293.125 11.2479 293.925 11.2479H296.821V12.0959H293.957C293.146 12.0959 292.581 12.2399 292.261 12.5279C291.952 12.8159 291.797 13.1732 291.797 13.5999C291.797 14.0799 291.984 14.4639 292.357 14.7519C292.73 15.0399 293.253 15.1839 293.925 15.1839C294.565 15.1839 295.114 15.0399 295.573 14.7519C296.042 14.4532 296.384 14.0266 296.597 13.4719L296.853 14.2559C296.64 14.8106 296.266 15.2532 295.733 15.5839C295.21 15.9146 294.549 16.0799 293.749 16.0799ZM303.074 16.0799C302.381 16.0799 301.725 15.9839 301.106 15.7919C300.488 15.5892 300.002 15.3386 299.65 15.0399L300.162 14.1439C300.504 14.3999 300.941 14.6239 301.474 14.8159C302.008 14.9972 302.568 15.0879 303.154 15.0879C303.954 15.0879 304.53 14.9652 304.882 14.7199C305.234 14.4639 305.41 14.1279 305.41 13.7119C305.41 13.4026 305.309 13.1626 305.106 12.9919C304.914 12.8106 304.658 12.6772 304.338 12.5919C304.018 12.4959 303.661 12.4159 303.266 12.3519C302.872 12.2879 302.477 12.2132 302.082 12.1279C301.698 12.0426 301.346 11.9199 301.026 11.7599C300.706 11.5892 300.445 11.3599 300.242 11.0719C300.05 10.7839 299.954 10.3999 299.954 9.91993C299.954 9.46126 300.082 9.0506 300.338 8.68793C300.594 8.32526 300.968 8.0426 301.458 7.83993C301.96 7.6266 302.568 7.51993 303.282 7.51993C303.826 7.51993 304.37 7.5946 304.914 7.74393C305.458 7.8826 305.906 8.06926 306.258 8.30393L305.762 9.21593C305.389 8.95993 304.989 8.7786 304.562 8.67193C304.136 8.5546 303.709 8.49593 303.282 8.49593C302.525 8.49593 301.965 8.62926 301.602 8.89593C301.25 9.15193 301.074 9.4826 301.074 9.88793C301.074 10.2079 301.17 10.4586 301.362 10.6399C301.565 10.8212 301.826 10.9652 302.146 11.0719C302.477 11.1679 302.834 11.2479 303.218 11.3119C303.613 11.3759 304.002 11.4559 304.386 11.5519C304.781 11.6372 305.138 11.7599 305.458 11.9199C305.789 12.0692 306.05 12.2879 306.242 12.5759C306.445 12.8532 306.546 13.2212 306.546 13.6799C306.546 14.1706 306.408 14.5972 306.13 14.9599C305.864 15.3119 305.469 15.5892 304.946 15.7919C304.434 15.9839 303.81 16.0799 303.074 16.0799ZM308.631 15.9999V7.59993H309.767V15.9999H308.631ZM309.207 5.74393C308.972 5.74393 308.775 5.66393 308.615 5.50393C308.455 5.34393 308.375 5.15193 308.375 4.92793C308.375 4.70393 308.455 4.51726 308.615 4.36793C308.775 4.20793 308.972 4.12793 309.207 4.12793C309.442 4.12793 309.639 4.2026 309.799 4.35193C309.959 4.50126 310.039 4.68793 310.039 4.91193C310.039 5.1466 309.959 5.34393 309.799 5.50393C309.65 5.66393 309.452 5.74393 309.207 5.74393ZM312.928 15.9999V4.12793H314.064V15.9999H312.928Z" fill="#FFFBE6"/>
<path d="M142.528 147L143.904 135.8H144.768L143.392 147H142.528ZM136.464 143.96V143.08H146.144V143.96H136.464ZM138.368 147L139.744 135.8H140.624L139.232 147H138.368ZM136.976 139.72V138.84H146.656V139.72H136.976ZM150.021 140.808H155.941V141.816H150.021V140.808ZM150.149 145.976H156.885V147H148.965V135.8H156.645V136.824H150.149V145.976ZM159.668 147V135.8H164.5C165.748 135.8 166.713 136.051 167.396 136.552C168.089 137.053 168.436 137.763 168.436 138.68C168.436 139.288 168.292 139.8 168.004 140.216C167.726 140.632 167.342 140.947 166.852 141.16C166.372 141.373 165.844 141.48 165.268 141.48L165.54 141.096C166.254 141.096 166.868 141.208 167.38 141.432C167.902 141.645 168.308 141.971 168.596 142.408C168.884 142.835 169.028 143.368 169.028 144.008C169.028 144.957 168.676 145.693 167.972 146.216C167.278 146.739 166.228 147 164.82 147H159.668ZM160.852 146.024H164.804C165.785 146.024 166.537 145.859 167.06 145.528C167.582 145.187 167.844 144.648 167.844 143.912C167.844 143.187 167.582 142.659 167.06 142.328C166.537 141.987 165.785 141.816 164.804 141.816H160.724V140.84H164.42C165.316 140.84 166.009 140.669 166.5 140.328C167.001 139.987 167.252 139.48 167.252 138.808C167.252 138.125 167.001 137.619 166.5 137.288C166.009 136.947 165.316 136.776 164.42 136.776H160.852V146.024ZM172.786 140.808H178.706V141.816H172.786V140.808ZM172.914 145.976H179.65V147H171.73V135.8H179.41V136.824H172.914V145.976ZM183.284 147L188.116 136.312L188.468 136.824H181.54L182.132 136.264V138.92H180.996V135.8H189.22V136.616L184.532 147H183.284ZM191.73 147V135.8H196.29C197.485 135.8 198.53 136.04 199.426 136.52C200.333 136.989 201.037 137.645 201.538 138.488C202.04 139.331 202.29 140.301 202.29 141.4C202.29 142.499 202.04 143.469 201.538 144.312C201.037 145.155 200.333 145.816 199.426 146.296C198.53 146.765 197.485 147 196.29 147H191.73ZM192.914 145.976H196.226C197.218 145.976 198.077 145.784 198.802 145.4C199.538 145.005 200.109 144.467 200.514 143.784C200.92 143.091 201.122 142.296 201.122 141.4C201.122 140.493 200.92 139.699 200.514 139.016C200.109 138.333 199.538 137.8 198.802 137.416C198.077 137.021 197.218 136.824 196.226 136.824H192.914V145.976ZM205.753 147V136.28L206.265 136.824H203.113V135.8H206.905V147H205.753Z" fill="#FFFBE6"/>
<path d="M173.5 124.5C200.562 124.5 222.5 102.562 222.5 75.5C222.5 48.438 200.562 26.5 173.5 26.5C146.438 26.5 124.5 48.438 124.5 75.5C124.5 102.562 146.438 124.5 173.5 124.5Z" fill="#EBE7D1" stroke="#1D0D0C"/>
<path d="M144.584 15.9999V7.59993H145.672V9.88793L145.56 9.48793C145.795 8.84793 146.189 8.3626 146.744 8.03193C147.299 7.6906 147.987 7.51993 148.808 7.51993V8.62393C148.765 8.62393 148.723 8.62393 148.68 8.62393C148.637 8.61326 148.595 8.60793 148.552 8.60793C147.667 8.60793 146.973 8.87993 146.472 9.42393C145.971 9.95726 145.72 10.7199 145.72 11.7119V15.9999H144.584ZM154.371 16.0799C153.496 16.0799 152.728 15.8986 152.067 15.5359C151.405 15.1626 150.888 14.6559 150.515 14.0159C150.141 13.3652 149.955 12.6239 149.955 11.7919C149.955 10.9599 150.131 10.2239 150.483 9.58393C150.845 8.94393 151.336 8.4426 151.955 8.07993C152.584 7.7066 153.288 7.51993 154.067 7.51993C154.856 7.51993 155.555 7.70126 156.163 8.06393C156.781 8.41593 157.267 8.91726 157.619 9.56793C157.971 10.2079 158.147 10.9492 158.147 11.7919C158.147 11.8452 158.141 11.9039 158.131 11.9679C158.131 12.0212 158.131 12.0799 158.131 12.1439H150.819V11.2959H157.523L157.075 11.6319C157.075 11.0239 156.941 10.4852 156.675 10.0159C156.419 9.53593 156.067 9.1626 155.619 8.89593C155.171 8.62926 154.653 8.49593 154.067 8.49593C153.491 8.49593 152.973 8.62926 152.515 8.89593C152.056 9.1626 151.699 9.53593 151.443 10.0159C151.187 10.4959 151.059 11.0452 151.059 11.6639V11.8399C151.059 12.4799 151.197 13.0452 151.475 13.5359C151.763 14.0159 152.157 14.3946 152.659 14.6719C153.171 14.9386 153.752 15.0719 154.403 15.0719C154.915 15.0719 155.389 14.9812 155.827 14.7999C156.275 14.6186 156.659 14.3412 156.979 13.9679L157.619 14.7039C157.245 15.1519 156.776 15.4932 156.211 15.7279C155.656 15.9626 155.043 16.0799 154.371 16.0799ZM163.947 16.0799C163.115 16.0799 162.368 15.8986 161.707 15.5359C161.056 15.1626 160.544 14.6559 160.171 14.0159C159.798 13.3652 159.611 12.6239 159.611 11.7919C159.611 10.9492 159.798 10.2079 160.171 9.56793C160.544 8.92793 161.056 8.4266 161.707 8.06393C162.368 7.70126 163.115 7.51993 163.947 7.51993C164.662 7.51993 165.307 7.6586 165.883 7.93593C166.459 8.21326 166.912 8.62926 167.243 9.18393L166.395 9.75993C166.107 9.33326 165.75 9.0186 165.323 8.81593C164.896 8.61326 164.432 8.51193 163.931 8.51193C163.334 8.51193 162.795 8.6506 162.315 8.92793C161.835 9.1946 161.456 9.57326 161.179 10.0639C160.902 10.5546 160.763 11.1306 160.763 11.7919C160.763 12.4532 160.902 13.0292 161.179 13.5199C161.456 14.0106 161.835 14.3946 162.315 14.6719C162.795 14.9386 163.334 15.0719 163.931 15.0719C164.432 15.0719 164.896 14.9706 165.323 14.7679C165.75 14.5652 166.107 14.2559 166.395 13.8399L167.243 14.4159C166.912 14.9599 166.459 15.3759 165.883 15.6639C165.307 15.9412 164.662 16.0799 163.947 16.0799ZM172.902 16.0799C172.027 16.0799 171.259 15.8986 170.598 15.5359C169.937 15.1626 169.419 14.6559 169.046 14.0159C168.673 13.3652 168.486 12.6239 168.486 11.7919C168.486 10.9599 168.662 10.2239 169.014 9.58393C169.377 8.94393 169.867 8.4426 170.486 8.07993C171.115 7.7066 171.819 7.51993 172.598 7.51993C173.387 7.51993 174.086 7.70126 174.694 8.06393C175.313 8.41593 175.798 8.91726 176.15 9.56793C176.502 10.2079 176.678 10.9492 176.678 11.7919C176.678 11.8452 176.673 11.9039 176.662 11.9679C176.662 12.0212 176.662 12.0799 176.662 12.1439H169.35V11.2959H176.054L175.606 11.6319C175.606 11.0239 175.473 10.4852 175.206 10.0159C174.95 9.53593 174.598 9.1626 174.15 8.89593C173.702 8.62926 173.185 8.49593 172.598 8.49593C172.022 8.49593 171.505 8.62926 171.046 8.89593C170.587 9.1626 170.23 9.53593 169.974 10.0159C169.718 10.4959 169.59 11.0452 169.59 11.6639V11.8399C169.59 12.4799 169.729 13.0452 170.006 13.5359C170.294 14.0159 170.689 14.3946 171.19 14.6719C171.702 14.9386 172.283 15.0719 172.934 15.0719C173.446 15.0719 173.921 14.9812 174.358 14.7999C174.806 14.6186 175.19 14.3412 175.51 13.9679L176.15 14.7039C175.777 15.1519 175.307 15.4932 174.742 15.7279C174.187 15.9626 173.574 16.0799 172.902 16.0799ZM178.99 15.9999V7.59993H180.126V15.9999H178.99ZM179.566 5.74393C179.332 5.74393 179.134 5.66393 178.974 5.50393C178.814 5.34393 178.734 5.15193 178.734 4.92793C178.734 4.70393 178.814 4.51726 178.974 4.36793C179.134 4.20793 179.332 4.12793 179.566 4.12793C179.801 4.12793 179.998 4.2026 180.158 4.35193C180.318 4.50126 180.398 4.68793 180.398 4.91193C180.398 5.1466 180.318 5.34393 180.158 5.50393C180.009 5.66393 179.812 5.74393 179.566 5.74393ZM187.623 16.0799C186.898 16.0799 186.242 15.9146 185.655 15.5839C185.068 15.2426 184.599 14.7572 184.247 14.1279C183.906 13.4879 183.735 12.7092 183.735 11.7919C183.735 10.8746 183.906 10.1012 184.247 9.47193C184.588 8.83193 185.052 8.3466 185.639 8.01593C186.226 7.68526 186.887 7.51993 187.623 7.51993C188.423 7.51993 189.138 7.70126 189.767 8.06393C190.407 8.41593 190.908 8.91726 191.271 9.56793C191.634 10.2079 191.815 10.9492 191.815 11.7919C191.815 12.6452 191.634 13.3919 191.271 14.0319C190.908 14.6719 190.407 15.1732 189.767 15.5359C189.138 15.8986 188.423 16.0799 187.623 16.0799ZM183.287 19.1039V7.59993H184.375V10.1279L184.263 11.8079L184.423 13.5039V19.1039H183.287ZM187.543 15.0719C188.14 15.0719 188.674 14.9386 189.143 14.6719C189.612 14.3946 189.986 14.0106 190.263 13.5199C190.54 13.0186 190.679 12.4426 190.679 11.7919C190.679 11.1412 190.54 10.5706 190.263 10.0799C189.986 9.58926 189.612 9.20526 189.143 8.92793C188.674 8.6506 188.14 8.51193 187.543 8.51193C186.946 8.51193 186.407 8.6506 185.927 8.92793C185.458 9.20526 185.084 9.58926 184.807 10.0799C184.54 10.5706 184.407 11.1412 184.407 11.7919C184.407 12.4426 184.54 13.0186 184.807 13.5199C185.084 14.0106 185.458 14.3946 185.927 14.6719C186.407 14.9386 186.946 15.0719 187.543 15.0719ZM196.787 16.0799C195.998 16.0799 195.39 15.8666 194.963 15.4399C194.536 15.0132 194.323 14.4106 194.323 13.6319V5.74393H195.459V13.5679C195.459 14.0586 195.582 14.4372 195.827 14.7039C196.083 14.9706 196.446 15.1039 196.915 15.1039C197.416 15.1039 197.832 14.9599 198.163 14.6719L198.563 15.4879C198.339 15.6906 198.067 15.8399 197.747 15.9359C197.438 16.0319 197.118 16.0799 196.787 16.0799ZM192.819 8.54393V7.59993H198.019V8.54393H192.819Z" fill="#FFFBE6"/>
<path d="M18.5279 147L19.9039 135.8H20.7679L19.3919 147H18.5279ZM12.4639 143.96V143.08H22.1439V143.96H12.4639ZM14.3679 147L15.7439 135.8H16.6239L15.2319 147H14.3679ZM12.9759 139.72V138.84H22.6559V139.72H12.9759ZM26.0205 141.224H31.9405V142.248H26.0205V141.224ZM26.1485 147H24.9645V135.8H32.6445V136.824H26.1485V147ZM36.1455 141.224H42.0655V142.248H36.1455V141.224ZM36.2735 147H35.0895V135.8H42.7695V136.824H36.2735V147ZM46.2705 141.224H52.1905V142.248H46.2705V141.224ZM46.3985 147H45.2145V135.8H52.8945V136.824H46.3985V147ZM55.3395 147V135.8H60.1715C61.4195 135.8 62.3849 136.051 63.0675 136.552C63.7609 137.053 64.1075 137.763 64.1075 138.68C64.1075 139.288 63.9635 139.8 63.6755 140.216C63.3982 140.632 63.0142 140.947 62.5235 141.16C62.0435 141.373 61.5155 141.48 60.9395 141.48L61.2115 141.096C61.9262 141.096 62.5395 141.208 63.0515 141.432C63.5742 141.645 63.9795 141.971 64.2675 142.408C64.5555 142.835 64.6995 143.368 64.6995 144.008C64.6995 144.957 64.3475 145.693 63.6435 146.216C62.9502 146.739 61.8995 147 60.4915 147H55.3395ZM56.5235 146.024H60.4755C61.4569 146.024 62.2089 145.859 62.7315 145.528C63.2542 145.187 63.5155 144.648 63.5155 143.912C63.5155 143.187 63.2542 142.659 62.7315 142.328C62.2089 141.987 61.4569 141.816 60.4755 141.816H56.3955V140.84H60.0915C60.9875 140.84 61.6809 140.669 62.1715 140.328C62.6729 139.987 62.9235 139.48 62.9235 138.808C62.9235 138.125 62.6729 137.619 62.1715 137.288C61.6809 136.947 60.9875 136.776 60.0915 136.776H56.5235V146.024ZM68.458 140.808H74.378V141.816H68.458V140.808ZM68.586 145.976H75.322V147H67.402V135.8H75.082V136.824H68.586V145.976ZM81.4552 147.096C80.4632 147.096 79.6258 146.877 78.9432 146.44C78.2605 145.992 77.7432 145.352 77.3912 144.52C77.0392 143.677 76.8632 142.669 76.8632 141.496C76.8632 140.227 77.0765 139.165 77.5032 138.312C77.9405 137.448 78.5432 136.797 79.3112 136.36C80.0792 135.923 80.9698 135.704 81.9832 135.704C82.4845 135.704 82.9645 135.752 83.4232 135.848C83.8818 135.944 84.2872 136.099 84.6392 136.312L84.1752 137.24C83.8872 137.048 83.5565 136.915 83.1832 136.84C82.8098 136.755 82.4152 136.712 81.9992 136.712C80.7938 136.712 79.8285 137.096 79.1032 137.864C78.3885 138.632 78.0311 139.779 78.0311 141.304C78.0311 141.539 78.0418 141.832 78.0632 142.184C78.0952 142.525 78.1592 142.867 78.2552 143.208L77.8552 142.904C77.9725 142.349 78.2018 141.88 78.5432 141.496C78.8845 141.101 79.3112 140.803 79.8232 140.6C80.3352 140.397 80.8952 140.296 81.5032 140.296C82.2498 140.296 82.9058 140.435 83.4712 140.712C84.0365 140.989 84.4792 141.379 84.7992 141.88C85.1192 142.381 85.2792 142.973 85.2792 143.656C85.2792 144.349 85.1138 144.957 84.7832 145.48C84.4525 145.992 83.9938 146.392 83.4072 146.68C82.8312 146.957 82.1805 147.096 81.4552 147.096ZM81.4072 146.12C81.9405 146.12 82.4098 146.024 82.8152 145.832C83.2312 145.629 83.5565 145.347 83.7912 144.984C84.0258 144.611 84.1432 144.179 84.1432 143.688C84.1432 142.952 83.8872 142.365 83.3752 141.928C82.8738 141.491 82.1912 141.272 81.3272 141.272C80.7512 141.272 80.2498 141.379 79.8232 141.592C79.3965 141.805 79.0605 142.099 78.8152 142.472C78.5698 142.835 78.4472 143.251 78.4472 143.72C78.4472 144.125 78.5592 144.515 78.7832 144.888C79.0072 145.251 79.3378 145.549 79.7752 145.784C80.2232 146.008 80.7672 146.12 81.4072 146.12Z" fill="#FFFBE6"/>
<path d="M49.5 124.5C76.562 124.5 98.5 102.562 98.5 75.5C98.5 48.438 76.562 26.5 49.5 26.5C22.438 26.5 0.5 48.438 0.5 75.5C0.5 102.562 22.438 124.5 49.5 124.5Z" fill="#FFFBE6" stroke="#1D0D0C"/>
<path d="M30.92 16.08C30.1947 16.08 29.5387 15.9147 28.952 15.584C28.3653 15.2427 27.896 14.7573 27.544 14.128C27.2027 13.488 27.032 12.7093 27.032 11.792C27.032 10.8747 27.2027 10.1013 27.544 9.47202C27.8853 8.83202 28.3493 8.34669 28.936 8.01602C29.5227 7.68535 30.184 7.52002 30.92 7.52002C31.72 7.52002 32.4347 7.70135 33.064 8.06402C33.704 8.41602 34.2053 8.91735 34.568 9.56802C34.9307 10.208 35.112 10.9493 35.112 11.792C35.112 12.6453 34.9307 13.392 34.568 14.032C34.2053 14.672 33.704 15.1733 33.064 15.536C32.4347 15.8987 31.72 16.08 30.92 16.08ZM26.584 19.104V7.60002H27.672V10.128L27.56 11.808L27.72 13.504V19.104H26.584ZM30.84 15.072C31.4373 15.072 31.9707 14.9387 32.44 14.672C32.9093 14.3947 33.2827 14.0107 33.56 13.52C33.8373 13.0187 33.976 12.4427 33.976 11.792C33.976 11.1413 33.8373 10.5707 33.56 10.08C33.2827 9.58935 32.9093 9.20535 32.44 8.92802C31.9707 8.65069 31.4373 8.51202 30.84 8.51202C30.2427 8.51202 29.704 8.65069 29.224 8.92802C28.7547 9.20535 28.3813 9.58935 28.104 10.08C27.8373 10.5707 27.704 11.1413 27.704 11.792C27.704 12.4427 27.8373 13.0187 28.104 13.52C28.3813 14.0107 28.7547 14.3947 29.224 14.672C29.704 14.9387 30.2427 15.072 30.84 15.072ZM42.6449 16V14.144L42.5969 13.84V10.736C42.5969 10.0213 42.3942 9.47202 41.9889 9.08802C41.5942 8.70402 41.0022 8.51202 40.2129 8.51202C39.6689 8.51202 39.1515 8.60269 38.6609 8.78402C38.1702 8.96535 37.7542 9.20535 37.4129 9.50402L36.9009 8.65602C37.3275 8.29335 37.8395 8.01602 38.4369 7.82402C39.0342 7.62135 39.6635 7.52002 40.3249 7.52002C41.4129 7.52002 42.2502 7.79202 42.8369 8.33602C43.4342 8.86935 43.7329 9.68535 43.7329 10.784V16H42.6449ZM39.7489 16.08C39.1195 16.08 38.5702 15.9787 38.1009 15.776C37.6422 15.5627 37.2902 15.2747 37.0449 14.912C36.7995 14.5387 36.6769 14.112 36.6769 13.632C36.6769 13.1947 36.7782 12.8 36.9809 12.448C37.1942 12.0853 37.5355 11.7973 38.0049 11.584C38.4849 11.36 39.1249 11.248 39.9249 11.248H42.8209V12.096H39.9569C39.1462 12.096 38.5809 12.24 38.2609 12.528C37.9515 12.816 37.7969 13.1733 37.7969 13.6C37.7969 14.08 37.9835 14.464 38.3569 14.752C38.7302 15.04 39.2529 15.184 39.9249 15.184C40.5649 15.184 41.1142 15.04 41.5729 14.752C42.0422 14.4533 42.3835 14.0267 42.5969 13.472L42.8529 14.256C42.6395 14.8107 42.2662 15.2533 41.7329 15.584C41.2102 15.9147 40.5489 16.08 39.7489 16.08ZM51.1544 16.08C50.429 16.08 49.773 15.9147 49.1864 15.584C48.5997 15.2427 48.1304 14.7573 47.7784 14.128C47.437 13.488 47.2664 12.7093 47.2664 11.792C47.2664 10.8747 47.437 10.1013 47.7784 9.47202C48.1197 8.83202 48.5837 8.34669 49.1704 8.01602C49.757 7.68535 50.4184 7.52002 51.1544 7.52002C51.9544 7.52002 52.669 7.70135 53.2984 8.06402C53.9384 8.41602 54.4397 8.91735 54.8024 9.56802C55.165 10.208 55.3464 10.9493 55.3464 11.792C55.3464 12.6453 55.165 13.392 54.8024 14.032C54.4397 14.672 53.9384 15.1733 53.2984 15.536C52.669 15.8987 51.9544 16.08 51.1544 16.08ZM46.8184 19.104V7.60002H47.9064V10.128L47.7944 11.808L47.9544 13.504V19.104H46.8184ZM51.0744 15.072C51.6717 15.072 52.205 14.9387 52.6744 14.672C53.1437 14.3947 53.517 14.0107 53.7944 13.52C54.0717 13.0187 54.2104 12.4427 54.2104 11.792C54.2104 11.1413 54.0717 10.5707 53.7944 10.08C53.517 9.58935 53.1437 9.20535 52.6744 8.92802C52.205 8.65069 51.6717 8.51202 51.0744 8.51202C50.477 8.51202 49.9384 8.65069 49.4584 8.92802C48.989 9.20535 48.6157 9.58935 48.3384 10.08C48.0717 10.5707 47.9384 11.1413 47.9384 11.792C47.9384 12.4427 48.0717 13.0187 48.3384 13.52C48.6157 14.0107 48.989 14.3947 49.4584 14.672C49.9384 14.9387 50.477 15.072 51.0744 15.072ZM61.2301 16.08C60.3555 16.08 59.5875 15.8987 58.9261 15.536C58.2648 15.1627 57.7475 14.656 57.3741 14.016C57.0008 13.3653 56.8141 12.624 56.8141 11.792C56.8141 10.96 56.9901 10.224 57.3421 9.58402C57.7048 8.94402 58.1955 8.44269 58.8141 8.08002C59.4435 7.70669 60.1475 7.52002 60.9261 7.52002C61.7155 7.52002 62.4141 7.70135 63.0221 8.06402C63.6408 8.41602 64.1261 8.91735 64.4781 9.56802C64.8301 10.208 65.0061 10.9493 65.0061 11.792C65.0061 11.8453 65.0008 11.904 64.9901 11.968C64.9901 12.0213 64.9901 12.08 64.9901 12.144H57.6781V11.296H64.3821L63.9341 11.632C63.9341 11.024 63.8008 10.4853 63.5341 10.016C63.2781 9.53602 62.9261 9.16269 62.4781 8.89602C62.0301 8.62935 61.5128 8.49602 60.9261 8.49602C60.3501 8.49602 59.8328 8.62935 59.3741 8.89602C58.9155 9.16269 58.5581 9.53602 58.3021 10.016C58.0461 10.496 57.9181 11.0453 57.9181 11.664V11.84C57.9181 12.48 58.0568 13.0453 58.3341 13.536C58.6221 14.016 59.0168 14.3947 59.5181 14.672C60.0301 14.9387 60.6115 15.072 61.2621 15.072C61.7741 15.072 62.2488 14.9813 62.6861 14.8C63.1341 14.6187 63.5181 14.3413 63.8381 13.968L64.4781 14.704C64.1048 15.152 63.6355 15.4933 63.0701 15.728C62.5155 15.9627 61.9021 16.08 61.2301 16.08ZM67.3184 16V7.60002H68.4064V9.88802L68.2944 9.48802C68.529 8.84802 68.9237 8.36269 69.4784 8.03202C70.033 7.69069 70.721 7.52002 71.5424 7.52002V8.62402C71.4997 8.62402 71.457 8.62402 71.4144 8.62402C71.3717 8.61335 71.329 8.60802 71.2864 8.60802C70.401 8.60802 69.7077 8.88002 69.2064 9.42402C68.705 9.95735 68.4544 10.72 68.4544 11.712V16H67.3184Z" fill="#FFFBE6"/>
</svg>
