<svg width="863" height="86" viewBox="0 0 863 86" fill="none" xmlns="http://www.w3.org/2000/svg">
<g clip-path="url(#clip0_127_288)">
<path d="M345.477 8.32258C345.477 3.72615 349.189 0 353.768 0H422.863C427.442 0 431.155 3.72614 431.155 8.32258V77.6774C431.155 82.2736 427.442 86 422.863 86H353.768C349.189 86 345.477 82.2736 345.477 77.6774V8.32258Z" fill="#D889B4"/>
<path d="M367.412 47.1613L368.362 39.3936H368.959L368.009 47.1613H367.412ZM363.222 45.0529V44.4426H369.91V45.0529H363.222ZM364.537 47.1613L365.488 39.3936H366.096L365.134 47.1613H364.537ZM363.575 42.1123V41.5019H370.264V42.1123H363.575Z" fill="white"/>
<path d="M374.004 47.2165C373.451 47.2165 372.954 47.0908 372.511 46.8393C372.077 46.5877 371.734 46.24 371.483 45.7961C371.233 45.3449 371.107 44.8271 371.107 44.2426C371.107 43.6508 371.233 43.1329 371.483 42.6891C371.734 42.2452 372.077 41.9012 372.511 41.6571C372.954 41.4055 373.451 41.2798 374.004 41.2798C374.512 41.2798 374.966 41.3944 375.364 41.6238C375.769 41.8531 376.09 42.1897 376.325 42.6336C376.569 43.07 376.69 43.6064 376.69 44.2426C376.69 44.8714 376.573 45.4078 376.337 45.8516C376.101 46.2955 375.78 46.6358 375.375 46.8725C374.977 47.1019 374.52 47.2165 374.004 47.2165ZM374.059 46.5174C374.472 46.5174 374.841 46.425 375.165 46.24C375.496 46.0477 375.755 45.7814 375.939 45.4411C376.131 45.0934 376.226 44.6939 376.226 44.2426C376.226 43.784 376.131 43.3845 375.939 43.0442C375.755 42.7038 375.496 42.4413 375.165 42.2563C374.841 42.064 374.472 41.9678 374.059 41.9678C373.654 41.9678 373.289 42.064 372.965 42.2563C372.641 42.4413 372.383 42.7038 372.191 43.0442C371.999 43.3845 371.903 43.784 371.903 44.2426C371.903 44.6939 371.999 45.0934 372.191 45.4411C372.383 45.7814 372.641 46.0477 372.965 46.24C373.289 46.425 373.654 46.5174 374.059 46.5174ZM376.248 47.1611V45.4078L376.325 44.2315L376.215 43.0552V38.9272H377V47.1611H376.248Z" fill="white"/>
<path d="M381.607 47.2281C380.988 47.2281 380.454 47.1393 380.004 46.9617C379.562 46.7842 379.219 46.529 378.976 46.1961C378.74 45.8557 378.622 45.4562 378.622 44.9976C378.622 44.5537 378.736 44.1764 378.965 43.8657C379.2 43.5476 379.54 43.3035 379.982 43.1333C380.432 42.9632 380.973 42.8781 381.607 42.8781C382.234 42.8781 382.771 42.9632 383.221 43.1333C383.671 43.3035 384.014 43.5476 384.249 43.8657C384.492 44.1764 384.614 44.5537 384.614 44.9976C384.614 45.4562 384.492 45.8557 384.249 46.1961C384.006 46.529 383.66 46.7842 383.21 46.9617C382.76 47.1393 382.226 47.2281 381.607 47.2281ZM381.607 46.5512C382.292 46.5512 382.827 46.4106 383.21 46.1295C383.6 45.8484 383.796 45.4673 383.796 44.9865C383.796 44.5057 383.6 44.1284 383.21 43.8546C382.827 43.5735 382.292 43.433 381.607 43.433C380.922 43.433 380.387 43.5735 380.004 43.8546C379.62 44.1284 379.429 44.5057 379.429 44.9865C379.429 45.4673 379.62 45.8484 380.004 46.1295C380.387 46.4106 380.922 46.5512 381.607 46.5512ZM381.607 43.3331C381.032 43.3331 380.542 43.2554 380.137 43.1001C379.739 42.9447 379.433 42.7228 379.219 42.4342C379.006 42.1383 378.898 41.787 378.898 41.3801C378.898 40.951 379.009 40.5848 379.23 40.2815C379.459 39.9708 379.775 39.7341 380.181 39.5713C380.586 39.4085 381.062 39.3271 381.607 39.3271C382.152 39.3271 382.628 39.4085 383.033 39.5713C383.446 39.7341 383.766 39.9708 383.995 40.2815C384.224 40.5848 384.338 40.951 384.338 41.3801C384.338 41.787 384.231 42.1383 384.017 42.4342C383.804 42.7228 383.49 42.9447 383.077 43.1001C382.672 43.2554 382.182 43.3331 381.607 43.3331ZM381.607 42.8004C382.212 42.8004 382.683 42.6747 383.022 42.4231C383.361 42.1716 383.531 41.835 383.531 41.4133C383.531 40.9695 383.354 40.6255 383 40.3813C382.654 40.1298 382.189 40.0041 381.607 40.0041C381.025 40.0041 380.56 40.1298 380.214 40.3813C379.868 40.6255 379.694 40.9658 379.694 41.4022C379.694 41.8313 379.86 42.1716 380.192 42.4231C380.531 42.6747 381.002 42.8004 381.607 42.8004Z" fill="white"/>
<path d="M388.657 47.2281C388.038 47.2281 387.504 47.1393 387.054 46.9617C386.612 46.7842 386.269 46.529 386.026 46.1961C385.79 45.8557 385.672 45.4562 385.672 44.9976C385.672 44.5537 385.787 44.1764 386.015 43.8657C386.251 43.5476 386.589 43.3035 387.032 43.1333C387.481 42.9632 388.023 42.8781 388.657 42.8781C389.283 42.8781 389.822 42.9632 390.271 43.1333C390.721 43.3035 391.063 43.5476 391.299 43.8657C391.542 44.1764 391.664 44.5537 391.664 44.9976C391.664 45.4562 391.542 45.8557 391.299 46.1961C391.056 46.529 390.71 46.7842 390.26 46.9617C389.811 47.1393 389.276 47.2281 388.657 47.2281ZM388.657 46.5512C389.342 46.5512 389.877 46.4106 390.26 46.1295C390.651 45.8484 390.846 45.4673 390.846 44.9865C390.846 44.5057 390.651 44.1284 390.26 43.8546C389.877 43.5735 389.342 43.433 388.657 43.433C387.971 43.433 387.437 43.5735 387.054 43.8546C386.671 44.1284 386.479 44.5057 386.479 44.9865C386.479 45.4673 386.671 45.8484 387.054 46.1295C387.437 46.4106 387.971 46.5512 388.657 46.5512ZM388.657 43.3331C388.082 43.3331 387.592 43.2554 387.186 43.1001C386.788 42.9447 386.483 42.7228 386.269 42.4342C386.055 42.1383 385.948 41.787 385.948 41.3801C385.948 40.951 386.059 40.5848 386.28 40.2815C386.509 39.9708 386.826 39.7341 387.231 39.5713C387.636 39.4085 388.112 39.3271 388.657 39.3271C389.203 39.3271 389.678 39.4085 390.083 39.5713C390.496 39.7341 390.817 39.9708 391.045 40.2815C391.273 40.5848 391.387 40.951 391.387 41.3801C391.387 41.787 391.281 42.1383 391.067 42.4342C390.853 42.7228 390.54 42.9447 390.127 43.1001C389.722 43.2554 389.232 43.3331 388.657 43.3331ZM388.657 42.8004C389.261 42.8004 389.733 42.6747 390.072 42.4231C390.411 42.1716 390.58 41.835 390.58 41.4133C390.58 40.9695 390.404 40.6255 390.05 40.3813C389.704 40.1298 389.239 40.0041 388.657 40.0041C388.075 40.0041 387.611 40.1298 387.264 40.3813C386.918 40.6255 386.744 40.9658 386.744 41.4022C386.744 41.8313 386.91 42.1716 387.242 42.4231C387.581 42.6747 388.053 42.8004 388.657 42.8004Z" fill="white"/>
<path d="M395.175 39.3271C395.861 39.3271 396.44 39.4825 396.911 39.7932C397.383 40.0965 397.74 40.5367 397.983 41.1137C398.227 41.6908 398.348 42.3899 398.348 43.211C398.348 44.084 398.198 44.8201 397.895 45.4193C397.601 46.0185 397.187 46.4698 396.657 46.7731C396.126 47.0764 395.511 47.2281 394.811 47.2281C394.464 47.2281 394.133 47.1948 393.816 47.1282C393.506 47.0616 393.226 46.9543 392.975 46.8064L393.296 46.1628C393.495 46.2959 393.724 46.3921 393.981 46.4513C394.247 46.5031 394.52 46.529 394.8 46.529C395.633 46.529 396.296 46.2626 396.789 45.73C397.291 45.1973 397.541 44.4021 397.541 43.3442C397.541 43.1741 397.53 42.9706 397.508 42.7339C397.494 42.4972 397.453 42.2604 397.386 42.0237L397.663 42.2345C397.59 42.6192 397.431 42.9484 397.187 43.2221C396.952 43.4884 396.657 43.6919 396.303 43.8324C395.957 43.973 395.57 44.0433 395.142 44.0433C394.634 44.0433 394.18 43.9471 393.782 43.7548C393.392 43.5624 393.086 43.2924 392.865 42.9447C392.644 42.597 392.533 42.1864 392.533 41.713C392.533 41.2247 392.648 40.803 392.876 40.4479C393.105 40.0928 393.418 39.8191 393.816 39.6268C394.221 39.427 394.674 39.3271 395.175 39.3271ZM395.209 40.0041C394.84 40.0041 394.512 40.0743 394.225 40.2149C393.945 40.3481 393.724 40.5404 393.561 40.7919C393.4 41.0435 393.318 41.3431 393.318 41.6908C393.318 42.2012 393.492 42.6081 393.838 42.9114C394.191 43.2147 394.667 43.3664 395.264 43.3664C395.662 43.3664 396.009 43.2924 396.303 43.1444C396.606 42.9965 396.838 42.793 397 42.5341C397.169 42.2752 397.254 41.9867 397.254 41.6686C397.254 41.3801 397.176 41.1101 397.022 40.8585C396.867 40.607 396.639 40.4035 396.336 40.2482C396.034 40.0854 395.658 40.0041 395.209 40.0041Z" fill="white"/>
<path d="M403.018 47.2165C402.51 47.2165 402.053 47.1019 401.648 46.8725C401.243 46.6358 400.922 46.2955 400.686 45.8516C400.45 45.4078 400.332 44.8714 400.332 44.2426C400.332 43.6064 400.45 43.07 400.686 42.6336C400.929 42.1897 401.254 41.8531 401.659 41.6238C402.064 41.3944 402.517 41.2798 403.018 41.2798C403.571 41.2798 404.065 41.4055 404.5 41.6571C404.942 41.9012 405.289 42.2452 405.539 42.6891C405.79 43.1329 405.915 43.6508 405.915 44.2426C405.915 44.8271 405.79 45.3449 405.539 45.7961C405.289 46.24 404.942 46.5877 404.5 46.8393C404.065 47.0908 403.571 47.2165 403.018 47.2165ZM400.022 47.1611V38.9272H400.807V43.0552L400.697 44.2315L400.774 45.4078V47.1611H400.022ZM402.963 46.5174C403.376 46.5174 403.745 46.425 404.069 46.24C404.393 46.0477 404.651 45.7814 404.843 45.4411C405.035 45.0934 405.13 44.6939 405.13 44.2426C405.13 43.784 405.035 43.3845 404.843 43.0442C404.651 42.7038 404.393 42.4413 404.069 42.2563C403.745 42.064 403.376 41.9678 402.963 41.9678C402.551 41.9678 402.178 42.064 401.847 42.2563C401.523 42.4413 401.265 42.7038 401.073 43.0442C400.889 43.3845 400.796 43.784 400.796 44.2426C400.796 44.6939 400.889 45.0934 401.073 45.4411C401.265 45.7814 401.523 46.0477 401.847 46.24C402.178 46.425 402.551 46.5174 402.963 46.5174Z" fill="white"/>
<path d="M406.862 45.1195V44.5425L410.964 39.3936H411.848L407.78 44.5425L407.349 44.4093H413.573V45.1195H406.862ZM411.229 47.1613V45.1195L411.251 44.4093V42.6116H412.025V47.1613H411.229Z" fill="white"/>
<path d="M259.107 8.32258C259.107 3.72615 262.82 0 267.399 0H336.494C341.073 0 344.786 3.72614 344.786 8.32258V77.6774C344.786 82.2736 341.073 86 336.494 86H267.399C262.82 86 259.107 82.2736 259.107 77.6774V8.32258Z" fill="#74365F"/>
<path d="M284.649 47.1613L285.599 39.3936H286.196L285.245 47.1613H284.649ZM280.458 45.0529V44.4426H287.147V45.0529H280.458ZM281.774 47.1613L282.724 39.3936H283.332L282.371 47.1613H281.774ZM280.812 42.1123V41.5019H287.501V42.1123H280.812Z" fill="white"/>
<path d="M289.77 47.1613L293.109 39.7487L293.352 40.1037H288.565L288.974 39.7154V41.5574H288.189V39.3936H293.872V39.9595L290.633 47.1613H289.77Z" fill="white"/>
<path d="M294.064 45.1195V44.5425L298.166 39.3936H299.05L294.982 44.5425L294.551 44.4093H300.775V45.1195H294.064ZM298.431 47.1613V45.1195L298.453 44.4093V42.6116H299.227V47.1613H298.431Z" fill="white"/>
<path d="M303.655 47.2279C303.095 47.2279 302.564 47.1391 302.063 46.9616C301.569 46.7766 301.171 46.5325 300.869 46.2292L301.256 45.5967C301.507 45.8556 301.842 46.0701 302.262 46.2403C302.69 46.4104 303.154 46.4955 303.655 46.4955C304.296 46.4955 304.786 46.3549 305.125 46.0738C305.472 45.7927 305.645 45.4154 305.645 44.9419C305.645 44.4685 305.476 44.0912 305.136 43.8101C304.805 43.529 304.278 43.3884 303.556 43.3884H303.003V42.8003L305.391 39.793L305.501 40.1037H301.19V39.3936H306.165V39.9595L303.777 42.9667L303.39 42.7115H303.688C304.617 42.7115 305.31 42.9187 305.767 43.3329C306.231 43.7472 306.463 44.2798 306.463 44.9308C306.463 45.3673 306.36 45.7594 306.154 46.1071C305.947 46.4548 305.634 46.7285 305.214 46.9283C304.801 47.128 304.282 47.2279 303.655 47.2279Z" fill="white"/>
<path d="M310.758 47.2281C310.072 47.2281 309.494 47.0764 309.022 46.7731C308.55 46.4624 308.193 46.0185 307.95 45.4415C307.707 44.857 307.585 44.1579 307.585 43.3442C307.585 42.4639 307.732 41.7277 308.027 41.1359C308.329 40.5367 308.746 40.0854 309.276 39.7821C309.807 39.4788 310.423 39.3271 311.123 39.3271C311.469 39.3271 311.8 39.3604 312.118 39.427C312.435 39.4936 312.715 39.6009 312.958 39.7488L312.637 40.3924C312.438 40.2593 312.21 40.1668 311.952 40.115C311.694 40.0559 311.421 40.0262 311.134 40.0262C310.301 40.0262 309.634 40.2926 309.133 40.8252C308.639 41.3579 308.392 42.1532 308.392 43.211C308.392 43.3738 308.4 43.5772 308.414 43.8213C308.436 44.0581 308.48 44.2948 308.547 44.5315L308.27 44.3207C308.351 43.936 308.51 43.6105 308.746 43.3442C308.981 43.0704 309.276 42.8633 309.63 42.7228C309.984 42.5822 310.371 42.5119 310.791 42.5119C311.307 42.5119 311.76 42.6081 312.151 42.8004C312.541 42.9928 312.847 43.2628 313.068 43.6105C313.289 43.9582 313.4 44.3688 313.4 44.8422C313.4 45.3231 313.286 45.7448 313.057 46.1073C312.829 46.4624 312.512 46.7398 312.107 46.9395C311.709 47.1319 311.259 47.2281 310.758 47.2281ZM310.725 46.5512C311.093 46.5512 311.418 46.4846 311.698 46.3514C311.985 46.2108 312.21 46.0148 312.372 45.7633C312.534 45.5044 312.615 45.2048 312.615 44.8644C312.615 44.354 312.438 43.9471 312.084 43.6438C311.738 43.3405 311.266 43.1888 310.669 43.1888C310.271 43.1888 309.925 43.2628 309.63 43.4108C309.335 43.5587 309.103 43.7622 308.934 44.0211C308.764 44.2726 308.679 44.5612 308.679 44.8866C308.679 45.1677 308.757 45.4378 308.912 45.6967C309.066 45.9482 309.295 46.1553 309.597 46.3181C309.907 46.4735 310.282 46.5512 310.725 46.5512Z" fill="white"/>
<path d="M316.764 47.2279C316.211 47.2279 315.684 47.1391 315.183 46.9616C314.682 46.7766 314.284 46.5325 313.989 46.2292L314.376 45.5967C314.619 45.8556 314.951 46.0701 315.371 46.2403C315.799 46.4104 316.259 46.4955 316.753 46.4955C317.409 46.4955 317.906 46.3512 318.246 46.0627C318.592 45.7668 318.765 45.3821 318.765 44.9087C318.765 44.5757 318.684 44.2909 318.522 44.0542C318.367 43.8101 318.102 43.6214 317.726 43.4883C317.35 43.3551 316.834 43.2885 316.178 43.2885H314.531L314.929 39.3936H319.163V40.1037H315.25L315.659 39.7154L315.316 42.9778L314.907 42.5783H316.355C317.137 42.5783 317.763 42.6745 318.234 42.8668C318.706 43.0592 319.045 43.3292 319.252 43.6769C319.465 44.0172 319.572 44.4167 319.572 44.8754C319.572 45.3118 319.469 45.7113 319.263 46.0738C319.056 46.4289 318.746 46.71 318.334 46.9172C317.921 47.1243 317.398 47.2279 316.764 47.2279Z" fill="white"/>
<path d="M321.235 47.1614V40.6032C321.235 40.0853 321.386 39.6674 321.689 39.3492C321.991 39.0311 322.425 38.8721 322.993 38.8721C323.214 38.8721 323.428 38.9017 323.634 38.9608C323.84 39.02 324.014 39.1125 324.154 39.2383L323.889 39.8264C323.778 39.7302 323.649 39.6599 323.502 39.6156C323.354 39.5637 323.196 39.5379 323.026 39.5379C322.695 39.5379 322.441 39.6303 322.264 39.8153C322.087 40.0003 321.998 40.2739 321.998 40.6365V41.5242L322.02 41.8904V47.1614H321.235ZM320.196 41.9903V41.3356H323.789V41.9903H320.196Z" fill="white"/>
<path d="M690.953 8.32258C690.953 3.72615 694.664 0 699.245 0H768.34C772.921 0 776.631 3.72614 776.631 8.32258V77.6774C776.631 82.2736 772.921 86 768.34 86H699.245C694.664 86 690.953 82.2736 690.953 77.6774V8.32258Z" fill="#C7CEC5"/>
<path d="M715.793 47.1613L716.746 39.3936H717.34L716.387 47.1613H715.793ZM711.605 45.0529V44.4426H718.294V45.0529H711.605ZM712.918 47.1613L713.872 39.3936H714.48L713.513 47.1613H712.918ZM711.958 42.1123V41.5019H718.646V42.1123H711.958Z" fill="#40142E"/>
<path d="M722.481 47.2166C721.908 47.2166 721.396 47.0908 720.933 46.8393C720.484 46.5804 720.132 46.2289 719.876 45.7851C719.62 45.3338 719.489 44.8197 719.489 44.2426C719.489 43.6582 719.62 43.144 719.876 42.7002C720.132 42.2563 720.484 41.9086 720.933 41.6571C721.396 41.4055 721.908 41.2798 722.481 41.2798C722.979 41.2798 723.421 41.376 723.821 41.5683C724.222 41.7606 724.533 42.0491 724.761 42.4338L724.174 42.8333C723.973 42.5374 723.732 42.3192 723.435 42.1786C723.137 42.038 722.82 41.9678 722.474 41.9678C722.06 41.9678 721.686 42.064 721.355 42.2563C721.023 42.4413 720.761 42.7038 720.574 43.0442C720.381 43.3845 720.284 43.784 720.284 44.2426C720.284 44.7013 720.381 45.1007 720.574 45.4411C720.761 45.7814 721.023 46.0477 721.355 46.24C721.686 46.425 722.06 46.5175 722.474 46.5175C722.82 46.5175 723.137 46.4472 723.435 46.3066C723.732 46.166 723.973 45.9515 724.174 45.663L724.761 46.0625C724.533 46.4398 724.222 46.7283 723.821 46.928C723.421 47.1204 722.979 47.2166 722.481 47.2166Z" fill="#40142E"/>
<path d="M726.979 47.1613L730.323 39.7487L730.565 40.1037H725.776L726.184 39.7154V41.5574H725.403V39.3936H731.083V39.9595L727.842 47.1613H726.979Z" fill="#40142E"/>
<path d="M734.511 47.2166C733.937 47.2166 733.419 47.0908 732.963 46.8393C732.514 46.5804 732.161 46.2289 731.899 45.7851C731.643 45.3338 731.512 44.8197 731.512 44.2426C731.512 43.6582 731.643 43.144 731.899 42.7002C732.161 42.2563 732.514 41.9086 732.963 41.6571C733.419 41.4055 733.937 41.2798 734.511 41.2798C735.008 41.2798 735.45 41.376 735.851 41.5683C736.245 41.7606 736.563 42.0491 736.791 42.4338L736.203 42.8333C736.003 42.5374 735.754 42.3192 735.464 42.1786C735.167 42.038 734.849 41.9678 734.497 41.9678C734.089 41.9678 733.716 42.064 733.384 42.2563C733.053 42.4413 732.79 42.7038 732.597 43.0442C732.41 43.3845 732.313 43.784 732.313 44.2426C732.313 44.7013 732.41 45.1007 732.597 45.4411C732.79 45.7814 733.053 46.0477 733.384 46.24C733.716 46.425 734.089 46.5175 734.497 46.5175C734.849 46.5175 735.167 46.4472 735.464 46.3066C735.754 46.166 736.003 45.9515 736.203 45.663L736.791 46.0625C736.563 46.4398 736.245 46.7283 735.851 46.928C735.45 47.1204 735.008 47.2166 734.511 47.2166Z" fill="#40142E"/>
<path d="M740.702 47.2166C740.093 47.2166 739.561 47.0908 739.105 46.8393C738.649 46.5804 738.29 46.2289 738.034 45.7851C737.779 45.3338 737.647 44.8197 737.647 44.2426C737.647 43.6656 737.772 43.1551 738.014 42.7113C738.262 42.2674 738.601 41.9197 739.029 41.6682C739.465 41.4093 739.948 41.2798 740.487 41.2798C741.033 41.2798 741.517 41.4055 741.938 41.6571C742.367 41.9012 742.698 42.2489 742.94 42.7002C743.189 43.144 743.306 43.6582 743.306 44.2426C743.306 44.2796 743.306 44.3203 743.299 44.3647C743.299 44.4017 743.299 44.4424 743.299 44.4868H738.242V43.8986H742.878L742.567 44.1317C742.567 43.71 742.477 43.3364 742.291 43.0109C742.111 42.678 741.869 42.4191 741.558 42.2341C741.254 42.0491 740.895 41.9567 740.487 41.9567C740.093 41.9567 739.734 42.0491 739.416 42.2341C739.099 42.4191 738.85 42.678 738.677 43.0109C738.497 43.3438 738.408 43.7248 738.408 44.1539V44.2759C738.408 44.7198 738.504 45.1118 738.698 45.4522C738.898 45.7851 739.168 46.0477 739.513 46.24C739.872 46.425 740.273 46.5175 740.722 46.5175C741.075 46.5175 741.399 46.4546 741.703 46.3288C742.014 46.2031 742.277 46.0107 742.498 45.7518L742.94 46.2622C742.685 46.5729 742.36 46.8097 741.973 46.9724C741.586 47.1352 741.164 47.2166 740.702 47.2166Z" fill="#40142E"/>
<path d="M747.314 47.2166C746.741 47.2166 746.222 47.0908 745.766 46.8393C745.317 46.5804 744.965 46.2289 744.709 45.7851C744.447 45.3338 744.322 44.8197 744.322 44.2426C744.322 43.6582 744.447 43.144 744.709 42.7002C744.965 42.2563 745.317 41.9086 745.766 41.6571C746.222 41.4055 746.741 41.2798 747.314 41.2798C747.812 41.2798 748.254 41.376 748.655 41.5683C749.048 41.7606 749.366 42.0491 749.594 42.4338L749.007 42.8333C748.807 42.5374 748.558 42.3192 748.268 42.1786C747.97 42.038 747.653 41.9678 747.307 41.9678C746.893 41.9678 746.519 42.064 746.188 42.2563C745.856 42.4413 745.594 42.7038 745.4 43.0442C745.214 43.3845 745.117 43.784 745.117 44.2426C745.117 44.7013 745.214 45.1007 745.4 45.4411C745.594 45.7814 745.856 46.0477 746.188 46.24C746.519 46.425 746.893 46.5175 747.307 46.5175C747.653 46.5175 747.97 46.4472 748.268 46.3066C748.558 46.166 748.807 45.9515 749.007 45.663L749.594 46.0625C749.366 46.4398 749.048 46.7283 748.655 46.928C748.254 47.1204 747.812 47.2166 747.314 47.2166Z" fill="#40142E"/>
<path d="M753.056 47.2279C752.503 47.2279 751.978 47.1391 751.48 46.9616C750.976 46.7766 750.575 46.5325 750.285 46.2292L750.672 45.5967C750.914 45.8556 751.246 46.0701 751.667 46.2403C752.095 46.4104 752.551 46.4955 753.049 46.4955C753.705 46.4955 754.203 46.3512 754.541 46.0627C754.887 45.7668 755.06 45.3821 755.06 44.9087C755.06 44.5757 754.977 44.2909 754.818 44.0542C754.659 43.8101 754.396 43.6214 754.023 43.4883C753.643 43.3551 753.125 43.2885 752.476 43.2885H750.824L751.225 39.3936H755.46V40.1037H751.543L751.95 39.7154L751.612 42.9778L751.204 42.5783H752.648C753.429 42.5783 754.058 42.6745 754.528 42.8668C754.997 43.0592 755.336 43.3292 755.543 43.6769C755.757 44.0172 755.868 44.4167 755.868 44.8754C755.868 45.3118 755.764 45.7113 755.557 46.0738C755.35 46.4289 755.039 46.71 754.631 46.9172C754.217 47.1243 753.692 47.2279 753.056 47.2279Z" fill="#40142E"/>
<path d="M604.584 8.32258C604.584 3.72615 608.296 0 612.875 0H681.971C686.55 0 690.262 3.72614 690.262 8.32258V77.6774C690.262 82.2736 686.55 86 681.971 86H612.875C608.296 86 604.584 82.2736 604.584 77.6774V8.32258Z" fill="#91B0A9"/>
<path d="M628.765 47.1613L629.716 39.3936H630.313L629.362 47.1613H628.765ZM624.575 45.0529V44.4426H631.264V45.0529H624.575ZM625.891 47.1613L626.842 39.3936H627.45L626.488 47.1613H625.891ZM624.929 42.1123V41.5019H631.617V42.1123H624.929Z" fill="white"/>
<path d="M634.936 39.3271C635.622 39.3271 636.201 39.4825 636.672 39.7932C637.144 40.0965 637.501 40.5367 637.744 41.1137C637.987 41.6908 638.109 42.3899 638.109 43.211C638.109 44.084 637.958 44.8201 637.656 45.4193C637.361 46.0185 636.948 46.4698 636.418 46.7731C635.887 47.0764 635.272 47.2281 634.571 47.2281C634.225 47.2281 633.894 47.1948 633.576 47.1282C633.267 47.0616 632.987 46.9543 632.736 46.8064L633.057 46.1628C633.256 46.2959 633.484 46.3921 633.742 46.4513C634.008 46.5031 634.28 46.529 634.56 46.529C635.394 46.529 636.057 46.2626 636.55 45.73C637.052 45.1973 637.302 44.4021 637.302 43.3442C637.302 43.1741 637.291 42.9706 637.269 42.7339C637.254 42.4972 637.214 42.2604 637.147 42.0237L637.424 42.2345C637.35 42.6192 637.191 42.9484 636.948 43.2221C636.713 43.4884 636.418 43.6919 636.064 43.8324C635.718 43.973 635.331 44.0433 634.903 44.0433C634.394 44.0433 633.941 43.9471 633.543 43.7548C633.153 43.5624 632.847 43.2924 632.626 42.9447C632.405 42.597 632.294 42.1864 632.294 41.713C632.294 41.2247 632.409 40.803 632.637 40.4479C632.865 40.0928 633.178 39.8191 633.576 39.6268C633.982 39.427 634.435 39.3271 634.936 39.3271ZM634.969 40.0041C634.601 40.0041 634.273 40.0743 633.985 40.2149C633.706 40.3481 633.484 40.5404 633.322 40.7919C633.16 41.0435 633.079 41.3431 633.079 41.6908C633.079 42.2012 633.252 42.6081 633.598 42.9114C633.952 43.2147 634.428 43.3664 635.025 43.3664C635.423 43.3664 635.769 43.2924 636.064 43.1444C636.366 42.9965 636.599 42.793 636.76 42.5341C636.93 42.2752 637.015 41.9867 637.015 41.6686C637.015 41.3801 636.937 41.1101 636.782 40.8585C636.628 40.607 636.4 40.4035 636.097 40.2482C635.795 40.0854 635.419 40.0041 634.969 40.0041Z" fill="white"/>
<path d="M640.612 47.1613V39.7265L640.966 40.1037H638.788V39.3936H641.408V47.1613H640.612Z" fill="white"/>
<path d="M646.774 47.2165C646.266 47.2165 645.808 47.1019 645.403 46.8725C644.998 46.6358 644.677 46.2955 644.442 45.8516C644.205 45.4078 644.088 44.8714 644.088 44.2426C644.088 43.6064 644.205 43.07 644.442 42.6336C644.685 42.1897 645.009 41.8531 645.415 41.6238C645.819 41.3944 646.273 41.2798 646.774 41.2798C647.327 41.2798 647.82 41.4055 648.256 41.6571C648.698 41.9012 649.044 42.2452 649.295 42.6891C649.545 43.1329 649.671 43.6508 649.671 44.2426C649.671 44.8271 649.545 45.3449 649.295 45.7961C649.044 46.24 648.698 46.5877 648.256 46.8393C647.82 47.0908 647.327 47.2165 646.774 47.2165ZM643.778 47.1611V38.9272H644.563V43.0552L644.453 44.2315L644.53 45.4078V47.1611H643.778ZM646.719 46.5174C647.132 46.5174 647.5 46.425 647.825 46.24C648.149 46.0477 648.406 45.7814 648.598 45.4411C648.79 45.0934 648.886 44.6939 648.886 44.2426C648.886 43.784 648.79 43.3845 648.598 43.0442C648.406 42.7038 648.149 42.4413 647.825 42.2563C647.5 42.064 647.132 41.9678 646.719 41.9678C646.306 41.9678 645.934 42.064 645.602 42.2563C645.278 42.4413 645.02 42.7038 644.829 43.0442C644.644 43.3845 644.552 43.784 644.552 44.2426C644.552 44.6939 644.644 45.0934 644.829 45.4411C645.02 45.7814 645.278 46.0477 645.602 46.24C645.934 46.425 646.306 46.5174 646.719 46.5174Z" fill="white"/>
<path d="M653.834 47.2281C653.237 47.2281 652.707 47.0727 652.242 46.762C651.778 46.4439 651.413 45.9926 651.148 45.4082C650.883 44.8164 650.75 44.1062 650.75 43.2776C650.75 42.449 650.883 41.7426 651.148 41.1581C651.413 40.5663 651.778 40.115 652.242 39.8043C652.707 39.4862 653.237 39.3271 653.834 39.3271C654.431 39.3271 654.962 39.4862 655.426 39.8043C655.891 40.115 656.256 40.5663 656.521 41.1581C656.794 41.7426 656.93 42.449 656.93 43.2776C656.93 44.1062 656.794 44.8164 656.521 45.4082C656.256 45.9926 655.891 46.4439 655.426 46.762C654.962 47.0727 654.431 47.2281 653.834 47.2281ZM653.834 46.4957C654.292 46.4957 654.69 46.3736 655.028 46.1295C655.368 45.8779 655.633 45.5155 655.824 45.042C656.016 44.5612 656.112 43.973 656.112 43.2776C656.112 42.5822 656.016 41.9978 655.824 41.5243C655.633 41.0435 655.368 40.681 655.028 40.4368C654.69 40.1853 654.292 40.0595 653.834 40.0595C653.392 40.0595 652.998 40.1853 652.652 40.4368C652.305 40.681 652.037 41.0435 651.845 41.5243C651.653 41.9978 651.557 42.5822 651.557 43.2776C651.557 43.973 651.653 44.5612 651.845 45.042C652.037 45.5155 652.305 45.8779 652.652 46.1295C652.998 46.3736 653.392 46.4957 653.834 46.4957Z" fill="white"/>
<path d="M662.227 47.1611V45.8738L662.194 45.663V43.5102C662.194 43.0146 662.054 42.6336 661.774 42.3673C661.501 42.1009 661.092 41.9678 660.547 41.9678C660.171 41.9678 659.814 42.0307 659.474 42.1564C659.135 42.2822 658.848 42.4486 658.612 42.6558L658.258 42.0677C658.553 41.8161 658.907 41.6238 659.32 41.4906C659.732 41.35 660.167 41.2798 660.624 41.2798C661.376 41.2798 661.954 41.4684 662.36 41.8457C662.772 42.2156 662.979 42.7815 662.979 43.5435V47.1611H662.227ZM660.226 47.2166C659.792 47.2166 659.411 47.1463 659.087 47.0057C658.77 46.8578 658.527 46.658 658.358 46.4065C658.188 46.1476 658.104 45.8517 658.104 45.5188C658.104 45.2155 658.173 44.9417 658.314 44.6976C658.461 44.446 658.697 44.2463 659.021 44.0984C659.353 43.943 659.795 43.8653 660.348 43.8653H662.349V44.4535H660.37C659.809 44.4535 659.419 44.5533 659.198 44.7531C658.984 44.9528 658.877 45.2006 658.877 45.4966C658.877 45.8295 659.007 46.0958 659.264 46.2955C659.522 46.4953 659.883 46.5951 660.348 46.5951C660.79 46.5951 661.169 46.4953 661.486 46.2955C661.81 46.0884 662.047 45.7925 662.194 45.4078L662.371 45.9515C662.224 46.3362 661.965 46.6432 661.597 46.8726C661.236 47.1019 660.779 47.2166 660.226 47.2166Z" fill="white"/>
<path d="M666.839 39.3271C667.525 39.3271 668.104 39.4825 668.575 39.7932C669.047 40.0965 669.404 40.5367 669.648 41.1137C669.891 41.6908 670.012 42.3899 670.012 43.211C670.012 44.084 669.862 44.8201 669.559 45.4193C669.265 46.0185 668.852 46.4698 668.321 46.7731C667.79 47.0764 667.175 47.2281 666.475 47.2281C666.128 47.2281 665.797 47.1948 665.48 47.1282C665.17 47.0616 664.89 46.9543 664.639 46.8064L664.96 46.1628C665.159 46.2959 665.388 46.3921 665.646 46.4513C665.911 46.5031 666.184 46.529 666.464 46.529C667.297 46.529 667.96 46.2626 668.454 45.73C668.955 45.1973 669.205 44.4021 669.205 43.3442C669.205 43.1741 669.194 42.9706 669.172 42.7339C669.158 42.4972 669.117 42.2604 669.051 42.0237L669.327 42.2345C669.254 42.6192 669.095 42.9484 668.852 43.2221C668.616 43.4884 668.321 43.6919 667.967 43.8324C667.621 43.973 667.234 44.0433 666.806 44.0433C666.298 44.0433 665.845 43.9471 665.447 43.7548C665.056 43.5624 664.75 43.2924 664.529 42.9447C664.308 42.597 664.197 42.1864 664.197 41.713C664.197 41.2247 664.312 40.803 664.54 40.4479C664.769 40.0928 665.082 39.8191 665.48 39.6268C665.885 39.427 666.339 39.3271 666.839 39.3271ZM666.873 40.0041C666.504 40.0041 666.176 40.0743 665.889 40.2149C665.609 40.3481 665.388 40.5404 665.225 40.7919C665.064 41.0435 664.982 41.3431 664.982 41.6908C664.982 42.2012 665.156 42.6081 665.502 42.9114C665.856 43.2147 666.331 43.3664 666.928 43.3664C667.326 43.3664 667.673 43.2924 667.967 43.1444C668.27 42.9965 668.502 42.793 668.664 42.5341C668.834 42.2752 668.918 41.9867 668.918 41.6686C668.918 41.3801 668.84 41.1101 668.686 40.8585C668.531 40.607 668.303 40.4035 668 40.2482C667.698 40.0854 667.322 40.0041 666.873 40.0041Z" fill="white"/>
<path d="M518.215 8.32258C518.215 3.72615 521.927 0 526.506 0H595.602C600.18 0 603.893 3.72614 603.893 8.32258V77.6774C603.893 82.2736 600.18 86 595.602 86H526.506C521.927 86 518.215 82.2736 518.215 77.6774V8.32258Z" fill="#C0DFF1"/>
<path d="M542.779 47.1613L543.73 39.3936H544.327L543.376 47.1613H542.779ZM538.589 45.0529V44.4426H545.277V45.0529H538.589ZM539.904 47.1613L540.855 39.3936H541.463L540.501 47.1613H539.904ZM538.943 42.1123V41.5019H545.631V42.1123H538.943Z" fill="#40142E"/>
<path d="M549.471 47.2166C548.896 47.2166 548.38 47.0908 547.923 46.8393C547.473 46.5804 547.119 46.2289 546.862 45.7851C546.604 45.3338 546.475 44.8197 546.475 44.2426C546.475 43.6582 546.604 43.144 546.862 42.7002C547.119 42.2563 547.473 41.9086 547.923 41.6571C548.38 41.4055 548.896 41.2798 549.471 41.2798C549.965 41.2798 550.41 41.376 550.808 41.5683C551.206 41.7606 551.519 42.0491 551.748 42.4338L551.162 42.8333C550.963 42.5374 550.716 42.3192 550.421 42.1786C550.126 42.038 549.806 41.9678 549.459 41.9678C549.047 41.9678 548.675 42.064 548.343 42.2563C548.011 42.4413 547.749 42.7038 547.558 43.0442C547.367 43.3845 547.271 43.784 547.271 44.2426C547.271 44.7013 547.367 45.1007 547.558 45.4411C547.749 45.7814 548.011 46.0477 548.343 46.24C548.675 46.425 549.047 46.5175 549.459 46.5175C549.806 46.5175 550.126 46.4472 550.421 46.3066C550.716 46.166 550.963 45.9515 551.162 45.663L551.748 46.0625C551.519 46.4398 551.206 46.7283 550.808 46.928C550.41 47.1204 549.965 47.2166 549.471 47.2166Z" fill="#40142E"/>
<path d="M555.769 47.2281C555.172 47.2281 554.641 47.0727 554.177 46.762C553.713 46.4439 553.348 45.9926 553.083 45.4082C552.817 44.8164 552.685 44.1062 552.685 43.2776C552.685 42.449 552.817 41.7426 553.083 41.1581C553.348 40.5663 553.713 40.115 554.177 39.8043C554.641 39.4862 555.172 39.3271 555.769 39.3271C556.366 39.3271 556.897 39.4862 557.361 39.8043C557.825 40.115 558.19 40.5663 558.455 41.1581C558.728 41.7426 558.864 42.449 558.864 43.2776C558.864 44.1062 558.728 44.8164 558.455 45.4082C558.19 45.9926 557.825 46.4439 557.361 46.762C556.897 47.0727 556.366 47.2281 555.769 47.2281ZM555.769 46.4957C556.226 46.4957 556.624 46.3736 556.963 46.1295C557.301 45.8779 557.567 45.5155 557.759 45.042C557.95 44.5612 558.046 43.973 558.046 43.2776C558.046 42.5822 557.95 41.9978 557.759 41.5243C557.567 41.0435 557.301 40.681 556.963 40.4368C556.624 40.1853 556.226 40.0595 555.769 40.0595C555.327 40.0595 554.932 40.1853 554.586 40.4368C554.239 40.681 553.97 41.0435 553.779 41.5243C553.587 41.9978 553.492 42.5822 553.492 43.2776C553.492 43.973 553.587 44.5612 553.779 45.042C553.97 45.5155 554.239 45.8779 554.586 46.1295C554.932 46.3736 555.327 46.4957 555.769 46.4957Z" fill="#40142E"/>
<path d="M562.834 47.2165C562.281 47.2165 561.784 47.0908 561.342 46.8393C560.907 46.5877 560.564 46.24 560.313 45.7961C560.063 45.3449 559.938 44.8271 559.938 44.2426C559.938 43.6508 560.063 43.1329 560.313 42.6891C560.564 42.2452 560.907 41.9012 561.342 41.6571C561.784 41.4055 562.281 41.2798 562.834 41.2798C563.343 41.2798 563.796 41.3944 564.194 41.6238C564.599 41.8531 564.92 42.1897 565.156 42.6336C565.399 43.07 565.52 43.6064 565.52 44.2426C565.52 44.8714 565.403 45.4078 565.167 45.8516C564.931 46.2955 564.61 46.6358 564.205 46.8725C563.807 47.1019 563.35 47.2165 562.834 47.2165ZM562.889 46.5174C563.302 46.5174 563.671 46.425 563.995 46.24C564.326 46.0477 564.585 45.7814 564.769 45.4411C564.961 45.0934 565.056 44.6939 565.056 44.2426C565.056 43.784 564.961 43.3845 564.769 43.0442C564.585 42.7038 564.326 42.4413 563.995 42.2563C563.671 42.064 563.302 41.9678 562.889 41.9678C562.484 41.9678 562.12 42.064 561.795 42.2563C561.471 42.4413 561.213 42.7038 561.021 43.0442C560.83 43.3845 560.734 43.784 560.734 44.2426C560.734 44.6939 560.83 45.0934 561.021 45.4411C561.213 45.7814 561.471 46.0477 561.795 46.24C562.12 46.425 562.484 46.5174 562.889 46.5174ZM565.078 47.1611V45.4078L565.156 44.2315L565.045 43.0552V38.9272H565.83V47.1611H565.078Z" fill="#40142E"/>
<path d="M568.149 47.1614V40.6032C568.149 40.0853 568.3 39.6674 568.602 39.3492C568.904 39.0311 569.339 38.8721 569.906 38.8721C570.127 38.8721 570.342 38.9017 570.548 38.9608C570.754 39.02 570.928 39.1125 571.067 39.2383L570.802 39.8264C570.691 39.7302 570.563 39.6599 570.415 39.6156C570.268 39.5637 570.109 39.5379 569.94 39.5379C569.608 39.5379 569.354 39.6303 569.177 39.8153C569 40.0003 568.911 40.2739 568.911 40.6365V41.5242L568.934 41.8904V47.1614H568.149ZM567.109 41.9903V41.3356H570.702V41.9903H567.109Z" fill="#40142E"/>
<path d="M571.916 47.1614V40.6032C571.916 40.0853 572.067 39.6674 572.369 39.3492C572.672 39.0311 573.107 38.8721 573.674 38.8721C573.895 38.8721 574.109 38.9017 574.315 38.9608C574.522 39.02 574.695 39.1125 574.835 39.2383L574.569 39.8264C574.459 39.7302 574.33 39.6599 574.182 39.6156C574.035 39.5637 573.877 39.5379 573.707 39.5379C573.375 39.5379 573.121 39.6303 572.944 39.8153C572.767 40.0003 572.679 40.2739 572.679 40.6365V41.5242L572.701 41.8904V47.1614H571.916ZM570.877 41.9903V41.3356H574.47V41.9903H570.877Z" fill="#40142E"/>
<path d="M576.932 47.1613V39.7265L577.285 40.1037H575.107V39.3936H577.728V47.1613H576.932Z" fill="#40142E"/>
<path d="M431.846 8.32258C431.846 3.72615 435.558 0 440.137 0H509.232C513.811 0 517.524 3.72614 517.524 8.32258V77.6774C517.524 82.2736 513.811 86 509.232 86H440.137C435.558 86 431.846 82.2736 431.846 77.6774V8.32258Z" fill="#3972B6"/>
<path d="M455.735 47.1613L456.686 39.3936H457.283L456.332 47.1613H455.735ZM451.545 45.0529V44.4426H458.233V45.0529H451.545ZM452.86 47.1613L453.811 39.3936H454.419L453.457 47.1613H452.86ZM451.899 42.1123V41.5019H458.587V42.1123H451.899Z" fill="white"/>
<path d="M461.808 47.2279C461.248 47.2279 460.717 47.1391 460.216 46.9616C459.722 46.7766 459.324 46.5325 459.021 46.2292L459.408 45.5967C459.659 45.8556 459.994 46.0701 460.414 46.2403C460.842 46.4104 461.306 46.4955 461.808 46.4955C462.449 46.4955 462.939 46.3549 463.278 46.0738C463.625 45.7927 463.798 45.4154 463.798 44.9419C463.798 44.4685 463.628 44.0912 463.29 43.8101C462.958 43.529 462.431 43.3884 461.708 43.3884H461.155V42.8003L463.543 39.793L463.654 40.1037H459.342V39.3936H464.317V39.9595L461.929 42.9667L461.542 42.7115H461.841C462.769 42.7115 463.462 42.9187 463.919 43.3329C464.383 43.7472 464.615 44.2798 464.615 44.9308C464.615 45.3673 464.512 45.7594 464.306 46.1071C464.1 46.4548 463.787 46.7285 463.367 46.9283C462.954 47.128 462.434 47.2279 461.808 47.2279Z" fill="white"/>
<path d="M468.147 39.3271C468.832 39.3271 469.411 39.4825 469.883 39.7932C470.354 40.0965 470.712 40.5367 470.955 41.1137C471.198 41.6908 471.32 42.3899 471.32 43.211C471.32 44.084 471.169 44.8201 470.867 45.4193C470.572 46.0185 470.159 46.4698 469.628 46.7731C469.098 47.0764 468.482 47.2281 467.782 47.2281C467.435 47.2281 467.104 47.1948 466.787 47.1282C466.478 47.0616 466.197 46.9543 465.947 46.8064L466.268 46.1628C466.467 46.2959 466.695 46.3921 466.953 46.4513C467.218 46.5031 467.491 46.529 467.771 46.529C468.604 46.529 469.267 46.2626 469.761 45.73C470.262 45.1973 470.513 44.4021 470.513 43.3442C470.513 43.1741 470.502 42.9706 470.48 42.7339C470.465 42.4972 470.424 42.2604 470.358 42.0237L470.634 42.2345C470.561 42.6192 470.402 42.9484 470.159 43.2221C469.923 43.4884 469.628 43.6919 469.275 43.8324C468.928 43.973 468.541 44.0433 468.114 44.0433C467.605 44.0433 467.152 43.9471 466.754 43.7548C466.363 43.5624 466.058 43.2924 465.837 42.9447C465.615 42.597 465.505 42.1864 465.505 41.713C465.505 41.2247 465.619 40.803 465.848 40.4479C466.076 40.0928 466.389 39.8191 466.787 39.6268C467.192 39.427 467.645 39.3271 468.147 39.3271ZM468.18 40.0041C467.811 40.0041 467.484 40.0743 467.196 40.2149C466.916 40.3481 466.695 40.5404 466.533 40.7919C466.371 41.0435 466.29 41.3431 466.29 41.6908C466.29 42.2012 466.463 42.6081 466.809 42.9114C467.163 43.2147 467.639 43.3664 468.236 43.3664C468.633 43.3664 468.98 43.2924 469.275 43.1444C469.577 42.9965 469.809 42.793 469.971 42.5341C470.14 42.2752 470.225 41.9867 470.225 41.6686C470.225 41.3801 470.148 41.1101 469.993 40.8585C469.839 40.607 469.61 40.4035 469.308 40.2482C469.005 40.0854 468.629 40.0041 468.18 40.0041Z" fill="white"/>
<path d="M473.748 47.1613L477.087 39.7487L477.33 40.1037H472.543L472.952 39.7154V41.5574H472.167V39.3936H477.849V39.9595L474.61 47.1613H473.748Z" fill="white"/>
<path d="M478.755 47.1615V46.5955L481.972 43.433C482.266 43.1444 482.487 42.8929 482.635 42.6784C482.782 42.4564 482.882 42.2493 482.933 42.057C482.985 41.8646 483.011 41.6833 483.011 41.5132C483.011 41.0619 482.856 40.7068 482.547 40.4479C482.244 40.189 481.795 40.0595 481.198 40.0595C480.74 40.0595 480.336 40.1298 479.982 40.2704C479.635 40.411 479.336 40.6291 479.086 40.9251L478.522 40.4368C478.824 40.0817 479.211 39.808 479.683 39.6157C480.154 39.4233 480.682 39.3271 481.264 39.3271C481.787 39.3271 482.24 39.4122 482.624 39.5824C483.007 39.7452 483.302 39.9855 483.508 40.3037C483.722 40.6218 483.829 40.9953 483.829 41.4244C483.829 41.676 483.792 41.9238 483.718 42.1679C483.652 42.4121 483.526 42.671 483.343 42.9447C483.166 43.211 482.904 43.5143 482.558 43.8546L479.606 46.762L479.385 46.4513H484.183V47.1615H478.755Z" fill="white"/>
<path d="M488.696 47.2165C488.188 47.2165 487.731 47.1019 487.325 46.8725C486.92 46.6358 486.6 46.2955 486.364 45.8516C486.128 45.4078 486.01 44.8714 486.01 44.2426C486.01 43.6064 486.128 43.07 486.364 42.6336C486.607 42.1897 486.931 41.8531 487.336 41.6238C487.742 41.3944 488.195 41.2798 488.696 41.2798C489.249 41.2798 489.743 41.4055 490.178 41.6571C490.62 41.9012 490.967 42.2452 491.217 42.6891C491.468 43.1329 491.593 43.6508 491.593 44.2426C491.593 44.8271 491.468 45.3449 491.217 45.7961C490.967 46.24 490.62 46.5877 490.178 46.8393C489.743 47.0908 489.249 47.2165 488.696 47.2165ZM485.7 47.1611V38.9272H486.485V43.0552L486.375 44.2315L486.452 45.4078V47.1611H485.7ZM488.641 46.5174C489.054 46.5174 489.422 46.425 489.746 46.24C490.071 46.0477 490.329 45.7814 490.52 45.4411C490.712 45.0934 490.808 44.6939 490.808 44.2426C490.808 43.784 490.712 43.3845 490.52 43.0442C490.329 42.7038 490.071 42.4413 489.746 42.2563C489.422 42.064 489.054 41.9678 488.641 41.9678C488.228 41.9678 487.856 42.064 487.524 42.2563C487.2 42.4413 486.943 42.7038 486.75 43.0442C486.567 43.3845 486.474 43.784 486.474 44.2426C486.474 44.6939 486.567 45.0934 486.75 45.4411C486.943 45.7814 487.2 46.0477 487.524 46.24C487.856 46.425 488.228 46.5174 488.641 46.5174Z" fill="white"/>
<path d="M495.847 47.2281C495.161 47.2281 494.583 47.0764 494.111 46.7731C493.639 46.4624 493.282 46.0185 493.039 45.4415C492.795 44.857 492.674 44.1579 492.674 43.3442C492.674 42.4639 492.821 41.7277 493.116 41.1359C493.418 40.5367 493.835 40.0854 494.365 39.7821C494.896 39.4788 495.512 39.3271 496.212 39.3271C496.558 39.3271 496.889 39.3604 497.206 39.427C497.524 39.4936 497.803 39.6009 498.047 39.7488L497.726 40.3924C497.527 40.2593 497.298 40.1668 497.041 40.115C496.783 40.0559 496.51 40.0262 496.223 40.0262C495.39 40.0262 494.723 40.2926 494.222 40.8252C493.728 41.3579 493.481 42.1532 493.481 43.211C493.481 43.3738 493.488 43.5772 493.503 43.8213C493.525 44.0581 493.569 44.2948 493.636 44.5315L493.359 44.3207C493.44 43.936 493.599 43.6105 493.835 43.3442C494.07 43.0704 494.365 42.8633 494.719 42.7228C495.073 42.5822 495.46 42.5119 495.88 42.5119C496.396 42.5119 496.849 42.6081 497.24 42.8004C497.63 42.9928 497.936 43.2628 498.157 43.6105C498.378 43.9582 498.489 44.3688 498.489 44.8422C498.489 45.3231 498.375 45.7448 498.146 46.1073C497.917 46.4624 497.601 46.7398 497.195 46.9395C496.797 47.1319 496.348 47.2281 495.847 47.2281ZM495.814 46.5512C496.182 46.5512 496.507 46.4846 496.786 46.3514C497.074 46.2108 497.298 46.0148 497.461 45.7633C497.623 45.5044 497.704 45.2048 497.704 44.8644C497.704 44.354 497.527 43.9471 497.173 43.6438C496.827 43.3405 496.355 43.1888 495.758 43.1888C495.36 43.1888 495.014 43.2628 494.719 43.4108C494.424 43.5587 494.192 43.7622 494.023 44.0211C493.853 44.2726 493.768 44.5612 493.768 44.8866C493.768 45.1677 493.846 45.4378 494 45.6967C494.155 45.9482 494.384 46.1553 494.686 46.3181C494.995 46.4735 495.371 46.5512 495.814 46.5512Z" fill="white"/>
<path d="M172.738 8.32258C172.738 3.72615 176.451 0 181.03 0H250.125C254.704 0 258.416 3.72614 258.416 8.32258V77.6774C258.416 82.2736 254.704 86 250.125 86H181.03C176.451 86 172.738 82.2736 172.738 77.6774V8.32258Z" fill="#F5D97F"/>
<path d="M198.955 47.1613L199.905 39.3936H200.502L199.552 47.1613H198.955ZM194.765 45.0529V44.4426H201.453V45.0529H194.765ZM196.08 47.1613L197.031 39.3936H197.639L196.677 47.1613H196.08ZM195.118 42.1123V41.5019H201.807V42.1123H195.118Z" fill="#40142E"/>
<path d="M203.369 47.1614V40.6032C203.369 40.0853 203.52 39.6674 203.823 39.3492C204.124 39.0311 204.559 38.8721 205.127 38.8721C205.348 38.8721 205.562 38.9017 205.768 38.9608C205.974 39.02 206.148 39.1125 206.288 39.2383L206.023 39.8264C205.912 39.7302 205.783 39.6599 205.636 39.6156C205.488 39.5637 205.33 39.5379 205.16 39.5379C204.829 39.5379 204.574 39.6303 204.397 39.8153C204.221 40.0003 204.132 40.2739 204.132 40.6365V41.5242L204.154 41.8904V47.1614H203.369ZM202.33 41.9903V41.3356H205.923V41.9903H202.33Z" fill="#40142E"/>
<path d="M209.068 47.2279C208.515 47.2279 207.988 47.1391 207.487 46.9616C206.986 46.7766 206.588 46.5325 206.293 46.2292L206.68 45.5967C206.923 45.8556 207.255 46.0701 207.675 46.2403C208.103 46.4104 208.563 46.4955 209.057 46.4955C209.712 46.4955 210.21 46.3512 210.549 46.0627C210.895 45.7668 211.069 45.3821 211.069 44.9087C211.069 44.5757 210.988 44.2909 210.826 44.0542C210.671 43.8101 210.406 43.6214 210.03 43.4883C209.654 43.3551 209.138 43.2885 208.482 43.2885H206.835L207.233 39.3936H211.467V40.1037H207.553L207.962 39.7154L207.62 42.9778L207.211 42.5783H208.659C209.44 42.5783 210.066 42.6745 210.538 42.8668C211.01 43.0592 211.349 43.3292 211.555 43.6769C211.769 44.0172 211.876 44.4167 211.876 44.8754C211.876 45.3118 211.773 45.7113 211.566 46.0738C211.36 46.4289 211.05 46.71 210.638 46.9172C210.225 47.1243 209.701 47.2279 209.068 47.2279Z" fill="#40142E"/>
<path d="M215.716 47.2165C215.163 47.2165 214.666 47.0908 214.223 46.8393C213.789 46.5877 213.446 46.24 213.195 45.7961C212.945 45.3449 212.819 44.8271 212.819 44.2426C212.819 43.6508 212.945 43.1329 213.195 42.6891C213.446 42.2452 213.789 41.9012 214.223 41.6571C214.666 41.4055 215.163 41.2798 215.716 41.2798C216.224 41.2798 216.678 41.3944 217.076 41.6238C217.481 41.8531 217.802 42.1897 218.037 42.6336C218.281 43.07 218.402 43.6064 218.402 44.2426C218.402 44.8714 218.285 45.4078 218.048 45.8516C217.813 46.2955 217.492 46.6358 217.087 46.8725C216.689 47.1019 216.232 47.2165 215.716 47.2165ZM215.771 46.5174C216.184 46.5174 216.553 46.425 216.877 46.24C217.208 46.0477 217.467 45.7814 217.65 45.4411C217.843 45.0934 217.938 44.6939 217.938 44.2426C217.938 43.784 217.843 43.3845 217.65 43.0442C217.467 42.7038 217.208 42.4413 216.877 42.2563C216.553 42.064 216.184 41.9678 215.771 41.9678C215.366 41.9678 215.001 42.064 214.677 42.2563C214.353 42.4413 214.095 42.7038 213.903 43.0442C213.711 43.3845 213.615 43.784 213.615 44.2426C213.615 44.6939 213.711 45.0934 213.903 45.4411C214.095 45.7814 214.353 46.0477 214.677 46.24C215.001 46.425 215.366 46.5174 215.771 46.5174ZM217.96 47.1611V45.4078L218.037 44.2315L217.927 43.0552V38.9272H218.712V47.1611H217.96Z" fill="#40142E"/>
<path d="M222.789 39.3271C223.474 39.3271 224.053 39.4825 224.524 39.7932C224.996 40.0965 225.354 40.5367 225.597 41.1137C225.84 41.6908 225.962 42.3899 225.962 43.211C225.962 44.084 225.811 44.8201 225.508 45.4193C225.214 46.0185 224.801 46.4698 224.27 46.7731C223.739 47.0764 223.124 47.2281 222.424 47.2281C222.078 47.2281 221.746 47.1948 221.429 47.1282C221.119 47.0616 220.839 46.9543 220.589 46.8064L220.909 46.1628C221.108 46.2959 221.337 46.3921 221.595 46.4513C221.86 46.5031 222.133 46.529 222.413 46.529C223.246 46.529 223.909 46.2626 224.403 45.73C224.904 45.1973 225.155 44.4021 225.155 43.3442C225.155 43.1741 225.143 42.9706 225.121 42.7339C225.107 42.4972 225.066 42.2604 225 42.0237L225.276 42.2345C225.203 42.6192 225.044 42.9484 224.801 43.2221C224.565 43.4884 224.27 43.6919 223.916 43.8324C223.57 43.973 223.183 44.0433 222.756 44.0433C222.247 44.0433 221.794 43.9471 221.396 43.7548C221.005 43.5624 220.699 43.2924 220.478 42.9447C220.257 42.597 220.146 42.1864 220.146 41.713C220.146 41.2247 220.261 40.803 220.489 40.4479C220.718 40.0928 221.031 39.8191 221.429 39.6268C221.834 39.427 222.288 39.3271 222.789 39.3271ZM222.822 40.0041C222.454 40.0041 222.125 40.0743 221.838 40.2149C221.558 40.3481 221.337 40.5404 221.175 40.7919C221.013 41.0435 220.931 41.3431 220.931 41.6908C220.931 42.2012 221.105 42.6081 221.451 42.9114C221.805 43.2147 222.28 43.3664 222.877 43.3664C223.275 43.3664 223.622 43.2924 223.916 43.1444C224.219 42.9965 224.451 42.793 224.613 42.5341C224.783 42.2752 224.867 41.9867 224.867 41.6686C224.867 41.3801 224.79 41.1101 224.635 40.8585C224.48 40.607 224.252 40.4035 223.949 40.2482C223.648 40.0854 223.272 40.0041 222.822 40.0041Z" fill="#40142E"/>
<path d="M228.389 47.1613L231.727 39.7487L231.97 40.1037H227.183L227.593 39.7154V41.5574H226.808V39.3936H232.49V39.9595L229.251 47.1613H228.389Z" fill="#40142E"/>
<path d="M234.192 47.1614V40.6032C234.192 40.0853 234.343 39.6674 234.645 39.3492C234.947 39.0311 235.382 38.8721 235.949 38.8721C236.17 38.8721 236.384 38.9017 236.591 38.9608C236.797 39.02 236.97 39.1125 237.11 39.2383L236.845 39.8264C236.734 39.7302 236.605 39.6599 236.458 39.6156C236.311 39.5637 236.152 39.5379 235.982 39.5379C235.651 39.5379 235.397 39.6303 235.22 39.8153C235.043 40.0003 234.954 40.2739 234.954 40.6365V41.5242L234.976 41.8904V47.1614H234.192ZM233.152 41.9903V41.3356H236.745V41.9903H233.152Z" fill="#40142E"/>
<path d="M86.3691 8.32258C86.3691 3.72615 90.0816 0 94.6606 0H163.756C168.335 0 172.047 3.72614 172.047 8.32258V77.6774C172.047 82.2736 168.335 86 163.756 86H94.6606C90.0816 86 86.3691 82.2736 86.3691 77.6774V8.32258Z" fill="#C98228"/>
<path d="M110.442 47.1613L111.394 39.3936H111.991L111.039 47.1613H110.442ZM106.253 45.0529V44.4426H112.941V45.0529H106.253ZM107.568 47.1613L108.519 39.3936H109.127L108.165 47.1613H107.568ZM106.606 42.1123V41.5019H113.295V42.1123H106.606Z" fill="white"/>
<path d="M117.134 47.2166C116.559 47.2166 116.043 47.0908 115.586 46.8393C115.136 46.5804 114.782 46.2289 114.525 45.7851C114.267 45.3338 114.138 44.8197 114.138 44.2426C114.138 43.6582 114.267 43.144 114.525 42.7002C114.782 42.2563 115.136 41.9086 115.586 41.6571C116.043 41.4055 116.559 41.2798 117.134 41.2798C117.628 41.2798 118.073 41.376 118.471 41.5683C118.869 41.7606 119.182 42.0491 119.411 42.4338L118.825 42.8333C118.626 42.5374 118.379 42.3192 118.084 42.1786C117.789 42.038 117.469 41.9678 117.123 41.9678C116.71 41.9678 116.338 42.064 116.006 42.2563C115.674 42.4413 115.413 42.7038 115.221 43.0442C115.03 43.3845 114.934 43.784 114.934 44.2426C114.934 44.7013 115.03 45.1007 115.221 45.4411C115.413 45.7814 115.674 46.0477 116.006 46.24C116.338 46.425 116.71 46.5175 117.123 46.5175C117.469 46.5175 117.789 46.4472 118.084 46.3066C118.379 46.166 118.626 45.9515 118.825 45.663L119.411 46.0625C119.182 46.4398 118.869 46.7283 118.471 46.928C118.073 47.1204 117.628 47.2166 117.134 47.2166Z" fill="white"/>
<path d="M122.757 39.3271C123.443 39.3271 124.021 39.4825 124.493 39.7932C124.964 40.0965 125.322 40.5367 125.565 41.1137C125.809 41.6908 125.93 42.3899 125.93 43.211C125.93 44.084 125.779 44.8201 125.477 45.4193C125.182 46.0185 124.769 46.4698 124.239 46.7731C123.708 47.0764 123.093 47.2281 122.393 47.2281C122.046 47.2281 121.714 47.1948 121.398 47.1282C121.088 47.0616 120.808 46.9543 120.557 46.8064L120.878 46.1628C121.077 46.2959 121.305 46.3921 121.563 46.4513C121.829 46.5031 122.101 46.529 122.382 46.529C123.214 46.529 123.877 46.2626 124.372 45.73C124.872 45.1973 125.123 44.4021 125.123 43.3442C125.123 43.1741 125.112 42.9706 125.09 42.7339C125.075 42.4972 125.035 42.2604 124.968 42.0237L125.245 42.2345C125.171 42.6192 125.013 42.9484 124.769 43.2221C124.533 43.4884 124.239 43.6919 123.885 43.8324C123.538 43.973 123.151 44.0433 122.724 44.0433C122.216 44.0433 121.762 43.9471 121.364 43.7548C120.973 43.5624 120.668 43.2924 120.447 42.9447C120.226 42.597 120.115 42.1864 120.115 41.713C120.115 41.2247 120.229 40.803 120.458 40.4479C120.686 40.0928 121 39.8191 121.398 39.6268C121.803 39.427 122.256 39.3271 122.757 39.3271ZM122.791 40.0041C122.422 40.0041 122.094 40.0743 121.807 40.2149C121.526 40.3481 121.305 40.5404 121.143 40.7919C120.981 41.0435 120.9 41.3431 120.9 41.6908C120.9 42.2012 121.073 42.6081 121.42 42.9114C121.774 43.2147 122.249 43.3664 122.846 43.3664C123.244 43.3664 123.59 43.2924 123.885 43.1444C124.187 42.9965 124.419 42.793 124.582 42.5341C124.751 42.2752 124.836 41.9867 124.836 41.6686C124.836 41.3801 124.758 41.1101 124.604 40.8585C124.449 40.607 124.22 40.4035 123.918 40.2482C123.616 40.0854 123.24 40.0041 122.791 40.0041Z" fill="white"/>
<path d="M130.025 47.2281C129.406 47.2281 128.871 47.1393 128.422 46.9617C127.98 46.7842 127.637 46.529 127.394 46.1961C127.157 45.8557 127.04 45.4562 127.04 44.9976C127.04 44.5537 127.154 44.1764 127.383 43.8657C127.618 43.5476 127.958 43.3035 128.4 43.1333C128.849 42.9632 129.391 42.8781 130.025 42.8781C130.651 42.8781 131.189 42.9632 131.639 43.1333C132.088 43.3035 132.431 43.5476 132.667 43.8657C132.91 44.1764 133.032 44.5537 133.032 44.9976C133.032 45.4562 132.91 45.8557 132.667 46.1961C132.424 46.529 132.077 46.7842 131.628 46.9617C131.178 47.1393 130.644 47.2281 130.025 47.2281ZM130.025 46.5512C130.71 46.5512 131.244 46.4106 131.628 46.1295C132.018 45.8484 132.214 45.4673 132.214 44.9865C132.214 44.5057 132.018 44.1284 131.628 43.8546C131.244 43.5735 130.71 43.433 130.025 43.433C129.34 43.433 128.805 43.5735 128.422 43.8546C128.038 44.1284 127.847 44.5057 127.847 44.9865C127.847 45.4673 128.038 45.8484 128.422 46.1295C128.805 46.4106 129.34 46.5512 130.025 46.5512ZM130.025 43.3331C129.45 43.3331 128.96 43.2554 128.555 43.1001C128.157 42.9447 127.851 42.7228 127.637 42.4342C127.423 42.1383 127.316 41.787 127.316 41.3801C127.316 40.951 127.427 40.5848 127.648 40.2815C127.876 39.9708 128.193 39.7341 128.599 39.5713C129.004 39.4085 129.479 39.3271 130.025 39.3271C130.57 39.3271 131.045 39.4085 131.451 39.5713C131.864 39.7341 132.184 39.9708 132.413 40.2815C132.641 40.5848 132.756 40.951 132.756 41.3801C132.756 41.787 132.649 42.1383 132.435 42.4342C132.221 42.7228 131.908 42.9447 131.495 43.1001C131.09 43.2554 130.6 43.3331 130.025 43.3331ZM130.025 42.8004C130.629 42.8004 131.101 42.6747 131.44 42.4231C131.779 42.1716 131.949 41.835 131.949 41.4133C131.949 40.9695 131.772 40.6255 131.418 40.3813C131.071 40.1298 130.607 40.0041 130.025 40.0041C129.442 40.0041 128.978 40.1298 128.632 40.3813C128.285 40.6255 128.112 40.9658 128.112 41.4022C128.112 41.8313 128.278 42.1716 128.61 42.4231C128.948 42.6747 129.42 42.8004 130.025 42.8004Z" fill="white"/>
<path d="M133.99 47.1615V46.5955L137.207 43.433C137.502 43.1444 137.723 42.8929 137.87 42.6784C138.018 42.4564 138.117 42.2493 138.169 42.057C138.221 41.8646 138.246 41.6833 138.246 41.5132C138.246 41.0619 138.091 40.7068 137.782 40.4479C137.48 40.189 137.03 40.0595 136.433 40.0595C135.976 40.0595 135.571 40.1298 135.217 40.2704C134.871 40.411 134.572 40.6291 134.322 40.9251L133.758 40.4368C134.06 40.0817 134.447 39.808 134.919 39.6157C135.391 39.4233 135.917 39.3271 136.5 39.3271C137.023 39.3271 137.476 39.4122 137.859 39.5824C138.243 39.7452 138.537 39.9855 138.744 40.3037C138.957 40.6218 139.064 40.9953 139.064 41.4244C139.064 41.676 139.028 41.9238 138.954 42.1679C138.887 42.4121 138.762 42.671 138.578 42.9447C138.401 43.211 138.139 43.5143 137.793 43.8546L134.841 46.762L134.62 46.4513H139.418V47.1615H133.99Z" fill="white"/>
<path d="M140.274 47.1615V46.5955L143.491 43.433C143.786 43.1444 144.007 42.8929 144.155 42.6784C144.302 42.4564 144.401 42.2493 144.453 42.057C144.504 41.8646 144.53 41.6833 144.53 41.5132C144.53 41.0619 144.376 40.7068 144.066 40.4479C143.763 40.189 143.314 40.0595 142.717 40.0595C142.26 40.0595 141.855 40.1298 141.501 40.2704C141.154 40.411 140.856 40.6291 140.606 40.9251L140.042 40.4368C140.344 40.0817 140.731 39.808 141.203 39.6157C141.674 39.4233 142.201 39.3271 142.784 39.3271C143.307 39.3271 143.76 39.4122 144.143 39.5824C144.526 39.7452 144.821 39.9855 145.028 40.3037C145.241 40.6218 145.349 40.9953 145.349 41.4244C145.349 41.676 145.311 41.9238 145.238 42.1679C145.172 42.4121 145.046 42.671 144.862 42.9447C144.685 43.211 144.423 43.5143 144.077 43.8546L141.125 46.762L140.904 46.4513H145.702V47.1615H140.274Z" fill="white"/>
<path d="M149.641 47.2281C149.022 47.2281 148.488 47.1393 148.038 46.9617C147.596 46.7842 147.253 46.529 147.01 46.1961C146.774 45.8557 146.656 45.4562 146.656 44.9976C146.656 44.5537 146.771 44.1764 146.999 43.8657C147.235 43.5476 147.574 43.3035 148.016 43.1333C148.466 42.9632 149.008 42.8781 149.641 42.8781C150.268 42.8781 150.806 42.9632 151.255 43.1333C151.705 43.3035 152.048 43.5476 152.283 43.8657C152.527 44.1764 152.648 44.5537 152.648 44.9976C152.648 45.4562 152.527 45.8557 152.283 46.1961C152.04 46.529 151.694 46.7842 151.244 46.9617C150.795 47.1393 150.26 47.2281 149.641 47.2281ZM149.641 46.5512C150.327 46.5512 150.861 46.4106 151.244 46.1295C151.635 45.8484 151.83 45.4673 151.83 44.9865C151.83 44.5057 151.635 44.1284 151.244 43.8546C150.861 43.5735 150.327 43.433 149.641 43.433C148.956 43.433 148.422 43.5735 148.038 43.8546C147.655 44.1284 147.463 44.5057 147.463 44.9865C147.463 45.4673 147.655 45.8484 148.038 46.1295C148.422 46.4106 148.956 46.5512 149.641 46.5512ZM149.641 43.3331C149.066 43.3331 148.576 43.2554 148.171 43.1001C147.773 42.9447 147.467 42.7228 147.253 42.4342C147.04 42.1383 146.933 41.787 146.933 41.3801C146.933 40.951 147.043 40.5848 147.264 40.2815C147.493 39.9708 147.81 39.7341 148.215 39.5713C148.621 39.4085 149.096 39.3271 149.641 39.3271C150.187 39.3271 150.662 39.4085 151.067 39.5713C151.48 39.7341 151.801 39.9708 152.029 40.2815C152.258 40.5848 152.372 40.951 152.372 41.3801C152.372 41.787 152.265 42.1383 152.051 42.4342C151.838 42.7228 151.525 42.9447 151.112 43.1001C150.707 43.2554 150.216 43.3331 149.641 43.3331ZM149.641 42.8004C150.246 42.8004 150.718 42.6747 151.056 42.4231C151.395 42.1716 151.565 41.835 151.565 41.4133C151.565 40.9695 151.388 40.6255 151.034 40.3813C150.688 40.1298 150.224 40.0041 149.641 40.0041C149.059 40.0041 148.595 40.1298 148.248 40.3813C147.902 40.6255 147.729 40.9658 147.729 41.4022C147.729 41.8313 147.894 42.1716 148.226 42.4231C148.565 42.6747 149.037 42.8004 149.641 42.8004Z" fill="white"/>
<path d="M777.322 8.32258C777.322 3.72615 781.033 0 785.614 0H854.709C859.29 0 863 3.72614 863 8.32258V77.6774C863 82.2736 859.29 86 854.709 86H785.614C781.033 86 777.322 82.2736 777.322 77.6774V8.32258Z" fill="#F3F3F3"/>
<path d="M805.423 47.1613L806.369 39.3936H806.97L806.017 47.1613H805.423ZM801.229 45.0529V44.4426H807.917V45.0529H801.229ZM802.548 47.1613L803.495 39.3936H804.103L803.142 47.1613H802.548ZM801.588 42.1123V41.5019H808.276V42.1123H801.588Z" fill="#40142E"/>
<path d="M809.838 47.1614V40.6032C809.838 40.0853 809.99 39.6674 810.287 39.3492C810.591 39.0311 811.027 38.8721 811.593 38.8721C811.814 38.8721 812.029 38.9017 812.236 38.9608C812.443 39.02 812.616 39.1125 812.754 39.2383L812.492 39.8264C812.381 39.7302 812.25 39.6599 812.105 39.6156C811.953 39.5637 811.794 39.5379 811.628 39.5379C811.296 39.5379 811.041 39.6303 810.868 39.8153C810.688 40.0003 810.598 40.2739 810.598 40.6365V41.5242L810.619 41.8904V47.1614H809.838ZM808.795 41.9903V41.3356H812.388V41.9903H808.795Z" fill="#40142E"/>
<path d="M815.525 47.2279C814.958 47.2279 814.433 47.1391 813.929 46.9616C813.438 46.7766 813.037 46.5325 812.733 46.2292L813.12 45.5967C813.376 45.8556 813.708 46.0701 814.129 46.2403C814.558 46.4104 815.02 46.4955 815.525 46.4955C816.161 46.4955 816.651 46.3549 816.99 46.0738C817.335 45.7927 817.515 45.4154 817.515 44.9419C817.515 44.4685 817.342 44.0912 817.004 43.8101C816.672 43.529 816.147 43.3884 815.421 43.3884H814.868V42.8003L817.259 39.793L817.37 40.1037H813.058V39.3936H818.033V39.9595L815.642 42.9667L815.255 42.7115H815.552C816.485 42.7115 817.176 42.9187 817.632 43.3329C818.095 43.7472 818.33 44.2798 818.33 44.9308C818.33 45.3673 818.226 45.7594 818.019 46.1071C817.812 46.4548 817.501 46.7285 817.08 46.9283C816.665 47.128 816.147 47.2279 815.525 47.2279Z" fill="#40142E"/>
<path d="M820.106 47.1614V40.6032C820.106 40.0853 820.258 39.6674 820.555 39.3492C820.859 39.0311 821.294 38.8721 821.861 38.8721C822.082 38.8721 822.296 38.9017 822.503 38.9608C822.711 39.02 822.883 39.1125 823.022 39.2383L822.759 39.8264C822.649 39.7302 822.517 39.6599 822.372 39.6156C822.22 39.5637 822.061 39.5379 821.895 39.5379C821.564 39.5379 821.308 39.6303 821.128 39.8153C820.956 40.0003 820.866 40.2739 820.866 40.6365V41.5242L820.887 41.8904V47.1614H820.106ZM819.062 41.9903V41.3356H822.655V41.9903H819.062Z" fill="#40142E"/>
<path d="M825.786 47.2279C825.226 47.2279 824.701 47.1391 824.196 46.9616C823.706 46.7766 823.305 46.5325 823.001 46.2292L823.388 45.5967C823.644 45.8556 823.975 46.0701 824.397 46.2403C824.825 46.4104 825.288 46.4955 825.786 46.4955C826.428 46.4955 826.919 46.3549 827.257 46.0738C827.603 45.7927 827.775 45.4154 827.775 44.9419C827.775 44.4685 827.61 44.0912 827.271 43.8101C826.939 43.529 826.414 43.3884 825.689 43.3884H825.136V42.8003L827.527 39.793L827.637 40.1037H823.326V39.3936H828.301V39.9595L825.91 42.9667L825.523 42.7115H825.82C826.753 42.7115 827.444 42.9187 827.9 43.3329C828.363 43.7472 828.598 44.2798 828.598 44.9308C828.598 45.3673 828.494 45.7594 828.287 46.1071C828.079 46.4548 827.769 46.7285 827.347 46.9283C826.933 47.128 826.414 47.2279 825.786 47.2279Z" fill="#40142E"/>
<path d="M830.373 47.1614V40.6032C830.373 40.0853 830.519 39.6674 830.823 39.3492C831.127 39.0311 831.562 38.8721 832.128 38.8721C832.349 38.8721 832.564 38.9017 832.771 38.9608C832.978 39.02 833.151 39.1125 833.289 39.2383L833.027 39.8264C832.916 39.7302 832.785 39.6599 832.64 39.6156C832.488 39.5637 832.329 39.5379 832.163 39.5379C831.831 39.5379 831.576 39.6303 831.396 39.8153C831.223 40.0003 831.133 40.2739 831.133 40.6365V41.5242L831.154 41.8904V47.1614H830.373ZM829.33 41.9903V41.3356H832.923V41.9903H829.33Z" fill="#40142E"/>
<path d="M836.053 47.2279C835.493 47.2279 834.968 47.1391 834.464 46.9616C833.973 46.7766 833.573 46.5325 833.269 46.2292L833.656 45.5967C833.904 45.8556 834.243 46.0701 834.664 46.2403C835.093 46.4104 835.556 46.4955 836.053 46.4955C836.696 46.4955 837.186 46.3549 837.525 46.0738C837.87 45.7927 838.043 45.4154 838.043 44.9419C838.043 44.4685 837.877 44.0912 837.539 43.8101C837.207 43.529 836.682 43.3884 835.956 43.3884H835.404V42.8003L837.794 39.793L837.905 40.1037H833.593V39.3936H838.568V39.9595L836.178 42.9667L835.791 42.7115H836.088C837.02 42.7115 837.711 42.9187 838.167 43.3329C838.63 43.7472 838.865 44.2798 838.865 44.9308C838.865 45.3673 838.762 45.7594 838.554 46.1071C838.347 46.4548 838.036 46.7285 837.615 46.9283C837.2 47.128 836.682 47.2279 836.053 47.2279Z" fill="#40142E"/>
<path d="M0 8.32258C0 3.72615 3.7122 0 8.29143 0H77.3867C81.9657 0 85.6781 3.72614 85.6781 8.32258V77.6774C85.6781 82.2736 81.9657 86 77.3867 86H8.29143C3.71221 86 0 82.2736 0 77.6774V8.32258Z" fill="#26070E"/>
<path d="M23.9331 47.1613L24.8839 39.3936H25.4808L24.5301 47.1613H23.9331ZM19.7432 45.0529V44.4426H26.4316V45.0529H19.7432ZM21.0587 47.1613L22.0095 39.3936H22.6175L21.6557 47.1613H21.0587ZM20.0969 42.1123V41.5019H26.7854V42.1123H20.0969Z" fill="white"/>
<path d="M27.5515 47.1615V46.5955L30.7686 43.433C31.0634 43.1444 31.2845 42.8929 31.4319 42.6784C31.5793 42.4564 31.6788 42.2493 31.7304 42.057C31.782 41.8646 31.8078 41.6833 31.8078 41.5132C31.8078 41.0619 31.653 40.7068 31.3434 40.4479C31.0413 40.189 30.5917 40.0595 29.9947 40.0595C29.5378 40.0595 29.1324 40.1298 28.7786 40.2704C28.4323 40.411 28.1338 40.6291 27.8832 40.9251L27.3193 40.4368C27.6215 40.0817 28.0084 39.808 28.4801 39.6157C28.9519 39.4233 29.4788 39.3271 30.061 39.3271C30.5843 39.3271 31.0376 39.4122 31.4208 39.5824C31.8041 39.7452 32.0989 39.9855 32.3053 40.3037C32.519 40.6218 32.6259 40.9953 32.6259 41.4244C32.6259 41.676 32.589 41.9238 32.5153 42.1679C32.449 42.4121 32.3237 42.671 32.1394 42.9447C31.9625 43.211 31.7009 43.5143 31.3545 43.8546L28.4028 46.762L28.1816 46.4513H32.9796V47.1615H27.5515Z" fill="white"/>
<path d="M37.1289 47.2281C36.4435 47.2281 35.8649 47.0764 35.3932 46.7731C34.9215 46.4624 34.5641 46.0185 34.3209 45.4415C34.0777 44.857 33.9561 44.1579 33.9561 43.3442C33.9561 42.4639 34.1034 41.7277 34.3983 41.1359C34.7004 40.5367 35.1169 40.0854 35.6475 39.7821C36.1782 39.4788 36.7936 39.3271 37.4937 39.3271C37.8401 39.3271 38.1718 39.3604 38.4887 39.427C38.8056 39.4936 39.0857 39.6009 39.3289 39.7488L39.0083 40.3924C38.8093 40.2593 38.5808 40.1668 38.3229 40.115C38.0649 40.0559 37.7922 40.0262 37.5048 40.0262C36.672 40.0262 36.0049 40.2926 35.5038 40.8252C35.01 41.3579 34.7631 42.1532 34.7631 43.211C34.7631 43.3738 34.7705 43.5772 34.7852 43.8213C34.8073 44.0581 34.8515 44.2948 34.9179 44.5315L34.6415 44.3207C34.7225 43.936 34.881 43.6105 35.1169 43.3442C35.3527 43.0704 35.6475 42.8633 36.0013 42.7228C36.355 42.5822 36.742 42.5119 37.1621 42.5119C37.678 42.5119 38.1313 42.6081 38.5219 42.8004C38.9125 42.9928 39.2184 43.2628 39.4395 43.6105C39.6606 43.9582 39.7711 44.3688 39.7711 44.8422C39.7711 45.3231 39.6569 45.7448 39.4284 46.1073C39.1999 46.4624 38.883 46.7398 38.4776 46.9395C38.0797 47.1319 37.6301 47.2281 37.1289 47.2281ZM37.0957 46.5512C37.4642 46.5512 37.7886 46.4846 38.0686 46.3514C38.356 46.2108 38.5808 46.0148 38.743 45.7633C38.9051 45.5044 38.9862 45.2048 38.9862 44.8644C38.9862 44.354 38.8093 43.9471 38.4555 43.6438C38.1092 43.3405 37.6375 43.1888 37.0405 43.1888C36.6425 43.1888 36.2961 43.2628 36.0013 43.4108C35.7064 43.5587 35.4743 43.7622 35.3048 44.0211C35.1353 44.2726 35.0505 44.5612 35.0505 44.8866C35.0505 45.1677 35.1279 45.4378 35.2827 45.6967C35.4375 45.9482 35.666 46.1553 35.9681 46.3181C36.2777 46.4735 36.6535 46.5512 37.0957 46.5512Z" fill="white"/>
<path d="M43.7778 47.2281C43.1808 47.2281 42.6501 47.0727 42.1858 46.762C41.7215 46.4439 41.3567 45.9926 41.0913 45.4082C40.826 44.8164 40.6934 44.1062 40.6934 43.2776C40.6934 42.449 40.826 41.7426 41.0913 41.1581C41.3567 40.5663 41.7215 40.115 42.1858 39.8043C42.6501 39.4862 43.1808 39.3271 43.7778 39.3271C44.3748 39.3271 44.9054 39.4862 45.3697 39.8043C45.834 40.115 46.1989 40.5663 46.4642 41.1581C46.7369 41.7426 46.8732 42.449 46.8732 43.2776C46.8732 44.1062 46.7369 44.8164 46.4642 45.4082C46.1989 45.9926 45.834 46.4439 45.3697 46.762C44.9054 47.0727 44.3748 47.2281 43.7778 47.2281ZM43.7778 46.4957C44.2347 46.4957 44.6327 46.3736 44.9717 46.1295C45.3108 45.8779 45.5761 45.5155 45.7677 45.042C45.9593 44.5612 46.0552 43.973 46.0552 43.2776C46.0552 42.5822 45.9593 41.9978 45.7677 41.5243C45.5761 41.0435 45.3108 40.681 44.9717 40.4368C44.6327 40.1853 44.2347 40.0595 43.7778 40.0595C43.3356 40.0595 42.9412 40.1853 42.5949 40.4368C42.2485 40.681 41.9794 41.0435 41.7878 41.5243C41.5962 41.9978 41.5004 42.5822 41.5004 43.2776C41.5004 43.973 41.5962 44.5612 41.7878 45.042C41.9794 45.5155 42.2485 45.8779 42.5949 46.1295C42.9412 46.3736 43.3356 46.4957 43.7778 46.4957Z" fill="white"/>
<path d="M49.287 47.1613L52.6256 39.7487L52.8689 40.1037H48.0819L48.491 39.7154V41.5574H47.7061V39.3936H53.3885V39.9595L50.1493 47.1613H49.287Z" fill="white"/>
<path d="M57.3051 47.2281C56.7081 47.2281 56.1775 47.0727 55.7132 46.762C55.2488 46.4439 54.884 45.9926 54.6187 45.4082C54.3534 44.8164 54.2207 44.1062 54.2207 43.2776C54.2207 42.449 54.3534 41.7426 54.6187 41.1581C54.884 40.5663 55.2488 40.115 55.7132 39.8043C56.1775 39.4862 56.7081 39.3271 57.3051 39.3271C57.9021 39.3271 58.4327 39.4862 58.8971 39.8043C59.3614 40.115 59.7262 40.5663 59.9915 41.1581C60.2643 41.7426 60.4006 42.449 60.4006 43.2776C60.4006 44.1062 60.2643 44.8164 59.9915 45.4082C59.7262 45.9926 59.3614 46.4439 58.8971 46.762C58.4327 47.0727 57.9021 47.2281 57.3051 47.2281ZM57.3051 46.4957C57.7621 46.4957 58.1601 46.3736 58.4991 46.1295C58.8381 45.8779 59.1035 45.5155 59.2951 45.042C59.4867 44.5612 59.5825 43.973 59.5825 43.2776C59.5825 42.5822 59.4867 41.9978 59.2951 41.5243C59.1035 41.0435 58.8381 40.681 58.4991 40.4368C58.1601 40.1853 57.7621 40.0595 57.3051 40.0595C56.8629 40.0595 56.4686 40.1853 56.1222 40.4368C55.7758 40.681 55.5068 41.0435 55.3152 41.5243C55.1236 41.9978 55.0277 42.5822 55.0277 43.2776C55.0277 43.973 55.1236 44.5612 55.3152 45.042C55.5068 45.5155 55.7758 45.8779 56.1222 46.1295C56.4686 46.3736 56.8629 46.4957 57.3051 46.4957Z" fill="white"/>
<path d="M64.5259 47.2166C63.9215 47.2166 63.3908 47.0908 62.9339 46.8393C62.4769 46.5804 62.1195 46.2289 61.8615 45.7851C61.6035 45.3338 61.4746 44.8197 61.4746 44.2426C61.4746 43.6656 61.5962 43.1551 61.8394 42.7113C62.09 42.2674 62.429 41.9197 62.8565 41.6682C63.2913 41.4093 63.7778 41.2798 64.3158 41.2798C64.8612 41.2798 65.3439 41.4055 65.764 41.6571C66.1915 41.9012 66.5269 42.2489 66.7701 42.7002C67.0133 43.144 67.1349 43.6582 67.1349 44.2426C67.1349 44.2796 67.1312 44.3203 67.1238 44.3647C67.1238 44.4017 67.1238 44.4424 67.1238 44.4868H62.0716V43.8986H66.7037L66.3942 44.1317C66.3942 43.71 66.302 43.3364 66.1178 43.0109C65.9409 42.678 65.6977 42.4191 65.3882 42.2341C65.0786 42.0491 64.7211 41.9567 64.3158 41.9567C63.9178 41.9567 63.5603 42.0491 63.2435 42.2341C62.9265 42.4191 62.6796 42.678 62.5027 43.0109C62.3259 43.3438 62.2374 43.7248 62.2374 44.1539V44.2759C62.2374 44.7198 62.3332 45.1118 62.5249 45.4522C62.7239 45.7851 62.9965 46.0477 63.3429 46.24C63.6967 46.425 64.0984 46.5175 64.548 46.5175C64.9017 46.5175 65.2297 46.4546 65.5319 46.3288C65.8414 46.2031 66.1068 46.0107 66.3279 45.7518L66.7701 46.2622C66.5121 46.5729 66.1878 46.8097 65.7972 46.9724C65.4139 47.1352 64.9902 47.2166 64.5259 47.2166Z" fill="white"/>
</g>
<defs>
<clipPath id="clip0_127_288">
<rect width="863" height="86" fill="white"/>
</clipPath>
</defs>
</svg>
